<?xml version="1.0" encoding="UTF-8"?>
<!DOCTYPE svg PUBLIC "-//W3C//DTD SVG 1.1//EN" "http://www.w3.org/Graphics/SVG/1.1/DTD/svg11.dtd">
<!-- Creator: CorelDRAW X8 -->
<svg xmlns="http://www.w3.org/2000/svg" xml:space="preserve" width="11in" height="8.5in" version="1.1" shape-rendering="geometricPrecision" text-rendering="geometricPrecision" image-rendering="optimizeQuality" fill-rule="evenodd" clip-rule="evenodd"
viewBox="0 0 11000 8500"
 xmlns:xlink="http://www.w3.org/1999/xlink">
 <g id="Capa_x0020_1">
  <metadata id="CorelCorpID_0Corel-Layer"/>
  <path fill="#2BC97F" d="M6782 3358c-7,133 -264,1233 -299,1388 -100,452 -247,964 -254,1446 6,25 41,22 78,30l165 24 84 9c56,-153 128,-331 163,-492 63,-286 214,-717 323,-989 27,-67 209,-386 242,-412 13,-44 65,-116 90,-162 30,-56 60,-108 89,-165 1,69 -85,401 -123,432 39,119 223,356 291,442l269 281c31,28 55,56 90,83l201 165c67,51 136,100 209,148 80,54 366,233 464,257 12,-10 21,-20 28,-28l88 -127c17,-44 23,-40 -6,-88 -230,-377 -356,-510 -723,-761 -121,-83 -217,-117 -275,-266 -82,-214 4,-505 -370,-1249 -30,-60 -55,-118 -86,-184 -49,-101 -61,-95 -111,-142 -49,62 -54,75 -125,119 -45,28 -114,58 -169,82 -104,44 -233,126 -333,159z"/>
  <path fill="#299A65" d="M4851 6449c54,-19 450,-7 540,-7l-12 71 -530 3 2 -67zm-525 -5l485 -2 -9 71 -472 3 -4 -72zm-561 -2l522 0 -5 73 -511 1 -6 -74zm-467 0l428 0 -2 73 -415 1 -11 -74zm988 -5l-520 0 -7 -331 539 -3 -12 334zm-1015 -322c62,-16 360,-7 444,-7l10 329c-85,0 -364,11 -427,-6l-27 -316zm1541 317c-53,12 -407,9 -477,3 -21,-51 1,-252 5,-325 58,-18 421,-10 510,-9l-38 331zm563 5l-520 0 38 -339 554 -2 -48 303c-14,57 4,22 -24,38zm-2226 -293l6 -34 73 0 29 327 -107 0 109 8 3 70 -291 1 -63 -403 184 -4c65,1 39,-10 57,35zm2477 293l-191 0 55 -341 146 -1c12,0 15,-1 27,2 26,5 3,-5 21,8 27,-18 53,-12 96,-12 35,0 71,0 106,0l-79 422 -380 1 5 -74 194 -5zm-1426 -939l121 -5 -3 113 -17 456 -542 2 -7 -416 -3 -132 451 -18zm-1013 204c17,35 33,302 38,367l-80 -6 -243 9 -73 -518 351 -15 7 163zm64 -166l457 -18 1 137 9 411 -453 3c-2,-47 -41,-345 -20,-377 -30,-20 -23,-116 -24,-153l30 -3zm1662 21l-57 502 -515 3 20 -460 3 -111 559 -23 -10 89zm47 -42l3 -49 586 -22 -6 61 -91 550 -555 0 63 -540zm743 518c-39,38 -98,21 -203,22 1,-67 52,-340 69,-441 3,-22 6,-56 11,-76 13,-50 -5,-21 32,-40 -42,-4 -8,4 -23,-10l7 -49 418 -16 -123 630 -169 0c-24,-6 -15,6 -19,-20zm-2572 -1046l44 512c-354,15 -349,42 -361,-41l-26 -186c-12,-87 -23,-170 -36,-256l379 -29zm134 -11l424 -32c21,52 21,448 16,533l-452 19 -37 2 -41 -515 90 -7zm935 481l-453 19 -10 -537 472 -37 134 -8 -20 557 -123 6zm795 -615c-10,96 -44,527 -73,579 -43,20 -472,26 -559,29l20 -562 612 -46zm549 558l-575 24 72 -587 479 -35 140 -13 -97 596c-10,19 5,10 -19,15zm598 -650l-119 631 -419 18 99 -614 439 -35zm-1931 110l-471 37 -5 -45 -2 -333 93 -9 393 -39 140 -13 -16 392 -132 10zm-1074 -280l552 -56 6 331 2 46 -430 33 -88 7c-15,-18 -12,26 -13,-26l-21 -205 -8 -130zm-41 6l28 360 -378 29 -49 -354 399 -35zm1951 -196l-52 409 -610 48c4,-69 6,-139 8,-207 2,-42 -1,-135 11,-173 1,-2 3,-4 4,-8 1,-4 2,-5 4,-8l635 -61zm464 364c-44,18 -396,38 -468,40 7,-85 24,-352 52,-410l407 -39 236 -23 -68 424 -159 8zm273 -438c91,-10 376,-49 447,-38l-80 425c-65,22 -347,33 -440,40l73 -427zm520 -447c-10,67 -25,131 -36,198 -25,139 -13,159 -68,165l26 -422c-29,-17 -32,-19 -58,-38l-2 465 -638 63 -33 3 -1276 127 -411 39 -618 61 -541 55 283 1969c130,11 296,2 430,2l2168 0c175,0 573,-57 564,311 -11,397 -342,328 -545,328l-2544 0c-40,9 -16,-9 -26,19 -1,36 33,22 113,22l2399 0c262,0 633,74 643,-369 4,-184 -81,-244 -178,-318 -31,-4 -87,-2 -97,-32 -18,-32 214,-1182 241,-1326 42,-222 84,-442 126,-664 42,-226 101,-437 131,-670 47,16 84,41 136,22 42,-31 -7,-115 -85,-163l-50 -1c4,59 14,75 1,139l-55 15z"/>
  <path fill="#FAD474" d="M4511 3640l-1077 87 -13 338c57,-37 101,-44 178,-21 61,18 92,57 107,124l39 1 63 300 411 -39 4 -222 1255 -244 17 339 33 -3 61 -740 -89 7 -989 73z"/>
  <path fill="#606062" d="M6654 1635c-95,91 -101,107 -166,252 -49,110 -89,215 -70,355 33,144 15,325 62,457 73,-201 117,-435 208,-621 117,11 242,44 307,112 -51,204 -365,863 -368,940 41,80 93,194 155,228 100,-33 229,-115 333,-159 55,-24 124,-54 169,-82 71,-44 76,-57 125,-119 19,-125 -69,-260 -89,-402 -33,-234 121,-567 -27,-878 -60,-124 -156,-187 -335,-172 -114,61 -122,45 -232,154 -20,20 -38,51 -77,41l5 -106z"/>
  <path fill="#FEC1C6" d="M6418 2242c-56,93 -118,1128 -145,1327 -39,3 -59,5 -88,-9l-38 39c-56,57 -2,118 21,173 26,19 29,21 58,38l73 54c1,1 4,3 5,5l55 -15c13,-64 3,-80 -1,-139l50 1c15,-201 -19,-72 88,-317 19,-43 100,-258 131,-269 3,-77 317,-736 368,-940 -65,-68 -190,-101 -307,-112 -91,186 -135,420 -208,621 -47,-132 -29,-313 -62,-457z"/>
  <path fill="#606062" d="M6271 828l23 -73c97,14 125,39 261,-35 138,-75 64,50 109,124 20,34 56,68 92,83 27,-34 63,-89 124,-96 28,63 14,210 -85,186 -1,40 11,80 27,112 34,67 44,75 79,80 37,-75 49,-56 96,-192 28,-79 44,-157 58,-243 32,-208 -4,-357 -226,-343 -34,-167 -380,-269 -452,-199 -57,54 7,121 27,162 -377,-21 -449,169 -169,236 -58,30 -140,24 -127,113 9,65 96,90 163,85z"/>
  <path fill="#FDBFC6" d="M6271 828c-6,159 -27,322 29,467 24,64 57,120 136,125 86,6 135,-54 172,-83 13,-53 17,-25 48,-63 18,-22 28,-47 51,-67 -3,67 -28,142 -69,172 26,82 23,164 16,256l-5 106c39,10 57,-21 77,-41 110,-109 118,-93 232,-154 -29,1 -30,-32 -37,-64 -6,-32 -11,-59 -15,-91 -8,-57 -21,-141 -5,-182 -35,-5 -45,-13 -79,-80 -16,-32 -28,-72 -27,-112 99,24 113,-123 85,-186 -61,7 -97,62 -124,96 -36,-15 -72,-49 -92,-83 -45,-74 29,-199 -109,-124 -136,74 -164,49 -261,35l-23 73z"/>
  <polygon fill="#CE385E" points="4219,4430 5495,4303 5478,3964 4223,4208 "/>
  <path fill="#CE385E" d="M4383 4888l-20 562c87,-3 516,-9 559,-29 29,-52 63,-483 73,-579l-612 46z"/>
  <polygon fill="#CE385E" points="5544,5400 5520,4802 5041,4837 4969,5424 "/>
  <polygon fill="#4B388A" points="5543,5505 4956,5552 4960,5515 4897,6055 5452,6055 "/>
  <polygon fill="#4B388A" points="4361,5602 4341,6062 4856,6059 4913,5557 "/>
  <polygon fill="#F7BA79" points="4200,5457 4209,4902 3737,4939 3747,5476 "/>
  <path fill="#CE385E" d="M4412 4451c-2,3 -3,4 -4,8 -1,4 -3,6 -4,8 -12,38 -9,131 -11,173 -2,68 -4,138 -8,207l610 -48 52 -409 -635 61z"/>
  <polygon fill="#4B388A" points="4198,5614 3752,5648 3759,6064 4301,6062 4318,5606 "/>
  <path fill="#F7BA79" d="M3265 4976l-12 520 452 -19c5,-85 5,-481 -16,-533l-424 32z"/>
  <path fill="#4B388A" d="M5375 6437c28,-16 10,19 24,-38l48 -303 -554 2 -38 339 520 0z"/>
  <path fill="#CE385E" d="M5511 4754l-9 -409 -407 39c-28,58 -45,325 -52,410 72,-2 424,-22 468,-40z"/>
  <path fill="#4B388A" d="M3245 5692c-21,32 18,330 20,377l453 -3 -9 -411 -464 37z"/>
  <polygon fill="#4B388A" points="4298,6103 3759,6106 3766,6437 4286,6437 "/>
  <path fill="#89C2FA" d="M3364 4186l-96 11 -78 333 618 -61 -63 -300 -39 -1 -26 -2c-31,41 3,24 -32,38l-7 -32 -206 13c-29,-3 -12,10 -21,-8l3 -45 -2 -20c-32,45 -16,57 -34,91 -26,-6 -10,9 -17,-17z"/>
  <path fill="#4B388A" d="M4850 6101c-89,-1 -452,-9 -510,9 -4,73 -26,274 -5,325 70,6 424,9 477,-3l38 -331z"/>
  <path fill="#89C2FA" d="M3137 4580l46 -5c-6,41 -14,105 -38,135l21 205 -3 -59 106 2 426 -3 -6 -331 -552 56z"/>
  <path fill="#4B388A" d="M3298 6431c63,17 342,6 427,6l-10 -329c-84,0 -382,-9 -444,7l27 316z"/>
  <path fill="#FAD474" d="M3826 4510c-5,60 55,260 66,342l-157 0 5 45 471 -37 8 -389 -393 39z"/>
  <path fill="#4B388A" d="M5612 5498c-37,19 -19,-10 -32,40 -5,20 -8,54 -11,76 -17,101 -68,374 -69,441 105,-1 164,16 203,-22l99 -549 -190 14z"/>
  <path fill="#299A65" d="M5130 7484c32,212 376,183 342,-57 -30,-221 -378,-177 -342,57z"/>
  <path fill="#299A65" d="M3114 7475c14,213 368,195 345,-39 -22,-218 -362,-200 -345,39z"/>
  <polygon fill="#CE385E" points="4209,4902 4200,5457 4323,5451 4343,4894 "/>
  <polygon fill="#F7BA79" points="3251,5536 3245,5692 3709,5655 3708,5518 "/>
  <path fill="#4B388A" d="M5626 6437l58 -332c-18,-13 5,-3 -21,-8 -12,-3 -15,-2 -27,-2l-146 1 -55 341 191 0z"/>
  <polygon fill="#F7BA79" points="3752,5648 4198,5614 4200,5498 3749,5516 "/>
  <polygon fill="#CE385E" points="4361,5602 4913,5557 4923,5468 4364,5491 "/>
  <polygon fill="#CE385E" points="4219,4471 4211,4860 4343,4850 4359,4458 "/>
  <path fill="#462C41" d="M8992 5883c-29,34 -263,169 -172,372 60,-89 302,-379 320,-437 -53,-2 -107,43 -148,65z"/>
  <path fill="#462C41" d="M5859 6517c10,30 66,28 97,32l435 75 -16 -36c-21,-10 -88,-52 -106,-66 -70,-27 -121,-62 -209,-70 -43,-4 -85,0 -121,15 -41,17 -52,38 -80,50z"/>
  <path fill="#FEC1C8" d="M6269 6522c18,14 85,56 106,66l97 -342 -165 -24c-3,54 6,260 -38,300z"/>
  <polygon fill="#CE385E" points="4960,5515 4956,5552 5543,5505 5549,5444 4963,5466 "/>
  <path fill="#89C2FA" d="M3735 4852l157 0c-11,-82 -71,-282 -66,-342l-93 9 2 333z"/>
  <polygon fill="#4B388A" points="3149,6144 3150,6437 3257,6437 3228,6110 3155,6110 "/>
  <polygon fill="#F7BA79" points="3269,4858 3267,4934 3697,4901 3695,4855 "/>
  <path fill="#299A65" d="M7284 4362l56 105c38,-31 124,-363 123,-432 -29,57 -59,109 -89,165 -25,46 -77,118 -90,162z"/>
  <path fill="#4B388A" d="M3145 6063l80 6c-5,-65 -21,-332 -38,-367l-48 -2 6 363z"/>
  <path fill="#FEC1C6" d="M8892 5815c19,11 38,22 57,31 30,15 40,11 43,37 41,-22 95,-67 148,-65 -40,-49 -121,-83 -160,-130l-88 127z"/>
  <path fill="#6A6968" d="M3421 4065c-29,52 -41,26 -57,121 7,26 -9,11 17,17 18,-34 2,-46 34,-91l8 -28c19,-12 37,-26 67,-27 -39,10 -41,47 -73,75l-3 45c9,18 -8,5 21,8 16,-71 45,-131 129,-125 41,28 62,56 77,112l7 32c35,-14 1,3 32,-38l26 2c-15,-67 -46,-106 -107,-124 -77,-23 -121,-16 -178,21z"/>
  <path fill="#FAD474" d="M3435 4185l206 -13c-15,-56 -36,-84 -77,-112 -84,-6 -113,54 -129,125z"/>
  <polygon fill="#CE385E" points="4198,5614 4318,5606 4321,5493 4200,5498 "/>
  <path fill="#D7A8AD" d="M6608 1337l30 42c41,-30 66,-105 69,-172 -23,20 -33,45 -51,67 -31,38 -35,10 -48,63z"/>
  <path fill="#DCC471" d="M3415 4112l2 20c32,-28 34,-65 73,-75 -30,1 -48,15 -67,27l-8 28z"/>
 </g>
</svg>
