<?xml version="1.0" encoding="UTF-8"?>
<!DOCTYPE svg PUBLIC "-//W3C//DTD SVG 1.1//EN" "http://www.w3.org/Graphics/SVG/1.1/DTD/svg11.dtd">
<!-- Creator: CorelDRAW X8 -->
<svg xmlns="http://www.w3.org/2000/svg" xml:space="preserve" width="11in" height="8.5in" version="1.1" shape-rendering="geometricPrecision" text-rendering="geometricPrecision" image-rendering="optimizeQuality" fill-rule="evenodd" clip-rule="evenodd"
viewBox="0 0 11000 8500"
 xmlns:xlink="http://www.w3.org/1999/xlink">
 <g id="Capa_x0020_1">
  <metadata id="CorelCorpID_0Corel-Layer"/>
  <path fill="#2BC97F" d="M3974 2505l-87 179c-111,262 -116,346 -194,608 -41,136 -86,269 -132,401 -23,66 -45,131 -65,200 -9,31 -20,72 -25,106 -8,63 14,65 25,108 8,6 58,76 102,114 135,118 239,196 423,248 39,12 79,21 121,30 35,7 97,13 126,21 25,1 173,8 183,12 28,-16 63,-6 83,-30 13,-16 25,-59 31,-83 14,-61 35,-124 48,-181 -10,-8 -4,-3 -12,-13 -3,-5 -6,-9 -9,-13 -43,-60 -79,-112 -116,-180 -111,-207 -170,-430 -180,-669 -2,-29 -2,-58 -2,-86 0,-19 -2,-66 8,-79 14,27 30,74 40,102 11,31 27,67 40,96 52,122 116,253 195,352 36,44 141,108 146,124 20,4 132,84 153,97 163,107 299,186 486,248l54 3c24,-13 22,1 39,-22 8,-11 15,-23 24,-36 17,-27 27,-51 29,-86 1,-41 -16,-49 -40,-66 -20,-13 -41,-29 -61,-44 -40,-30 -81,-57 -122,-87 -102,-74 -269,-196 -373,-265 -31,-22 -36,-14 -46,-59 -7,-31 -9,-60 -12,-91 -7,-90 78,-302 67,-346l9 22c-1,-81 32,-193 44,-280 14,-110 14,-184 -4,-292 -20,-75 -36,-121 -65,-186 -13,-29 -29,-58 -44,-84 -12,-20 -40,-61 -44,-78 -78,-3 -149,-43 -199,-80 -26,-20 -53,-45 -73,-68 -15,-16 -58,-57 -65,-72 -49,-7 -134,58 -166,81 -88,65 -179,177 -242,269l-98 155z"/>
  <path fill="#606062" d="M2446 7159c7,9 13,25 19,37 8,14 12,18 23,32 33,43 76,75 124,104 16,10 61,30 71,42 21,2 50,18 73,25 104,-116 211,-248 311,-359l220 -262c30,-33 56,-69 87,-104 70,-80 193,-240 256,-324 112,-152 171,-345 234,-536l87 -272c1,-2 3,-7 5,-9 7,-11 -3,-1 7,-8 -2,-23 132,-443 150,-504l155 -501c-29,-8 -91,-14 -126,-21 -42,-9 -82,-18 -121,-30 -184,-52 -288,-130 -423,-248 -44,-38 -94,-108 -102,-114 -33,63 -44,49 -84,171 -131,398 -166,1151 -220,1576 -14,108 -10,114 -61,193 -168,262 -327,525 -492,789 -17,28 -187,298 -193,323z"/>
  <path fill="#4B4B4D" d="M6641 7555c-34,-112 137,-157 166,-49 31,115 -135,154 -166,49zm2702 -13c-10,-119 159,-131 171,-23 6,51 -30,91 -73,97 -50,6 -94,-30 -98,-74zm-3622 -3339c3,34 16,24 9,78 24,1 28,36 45,83l998 2725c10,27 26,65 33,95 -60,-1 -120,0 -181,0 -56,0 -107,-4 -122,48 -12,39 -7,124 15,149 31,33 96,22 151,22l-12 11c-41,32 -76,61 -67,136 11,87 81,98 103,116l14 1 47 -1c12,-10 90,-25 103,-116 5,-34 -3,-64 -19,-89 -8,-13 -15,-23 -24,-30l-33 -25c-1,0 -2,-1 -3,-2l2591 5c-31,24 -82,50 -75,133 3,32 15,59 33,78l66 47c6,1 57,0 67,0 22,-20 48,-18 70,-46 15,-18 30,-45 32,-75 5,-50 -14,-89 -48,-118 -15,-14 -19,-10 -33,-24 214,-15 320,62 296,-158 -8,-76 -90,-62 -163,-62 -76,0 -152,0 -227,-1l-980 0 -301 0 -667 0 -376 1 -3 -1 -97 0c-13,-17 -117,-311 -133,-356 -84,-229 -173,-481 -259,-707 -90,-233 -173,-474 -261,-710l-258 -707c-29,-78 -105,-297 -131,-356 -6,-28 -32,-87 -43,-118 -17,-48 -21,-78 -72,-88 6,33 8,73 -16,91 -17,12 -31,6 -43,-4 -6,-6 -22,-20 -26,-25z"/>
  <path fill="#606062" d="M4049 5696c11,41 26,68 33,116 6,44 3,90 8,135 44,402 351,1071 554,1444 26,47 9,22 37,41l-1 26 10 -29c33,9 92,-4 127,-10 32,-6 99,-28 124,-26 11,-16 7,-17 4,-39l-97 -633c-37,-222 -74,-446 -112,-666 -55,-322 -120,-666 -183,-987l-66 -325c2,32 -8,44 -20,70 -61,123 -401,864 -418,883z"/>
  <path fill="#F0A350" d="M7438 6554l233 1c-5,18 -25,50 -25,62 1,12 22,40 29,55l-235 0 -2 -118zm-84 -726l0 -60 114 1c-3,11 -11,22 -10,31 1,14 8,8 10,26l-114 2zm1 -488l112 1c-3,11 -10,23 -9,31 0,13 7,11 11,27l-114 0 0 -59zm-5 3l1 56 -1 372 1 57 3 0 -3 126 87 0 0 600 0 -1 -2 117c8,32 3,204 3,252 0,87 0,174 0,261l667 0 0 -977c11,-6 13,-4 32,-4 161,1 392,-7 530,-1l2 -248c-84,5 -178,1 -263,1 -86,0 -174,3 -260,3l-515 -5 0 -556 172 0 256 -1 0 -147c-36,-10 -297,-4 -355,-4 -118,0 -237,2 -355,0l0 99z"/>
  <path fill="#2BC97F" d="M9303 6264c8,14 24,101 25,119l-234 46 -22 -119 231 -46zm-896 -59l1 88 128 0c-3,15 3,5 -7,13 -12,50 -6,13 7,53l-125 0c-13,61 -4,256 -4,331 0,109 -3,224 1,333l127 0c-1,15 3,4 -6,12 -10,40 -11,11 3,46 6,8 6,2 2,11l-126 -1 -1 92 980 0c4,-161 0,-327 0,-489 0,-74 9,-449 -3,-489l-713 -1 -264 1z"/>
  <path fill="#D76713" d="M7140 5246l206 3 -106 64c-24,15 -87,49 -100,67l0 -134zm-7 708c49,-5 236,2 299,6 -16,4 -146,87 -180,107l-183 112c-19,29 10,870 -6,1005l376 -1c0,-87 0,-174 0,-261 0,-48 5,-220 -3,-252l-232 -1c3,-21 16,-36 15,-57 0,-12 -13,-41 -18,-57l237 -2 0 1 0 -600 -87 0 3 -126 -3 0 -113 -1c1,-12 5,-19 5,-31 0,-13 -4,-9 -4,-25l111 0 1 -372 -114 1c1,-19 6,-14 7,-28 1,-15 -4,-11 -6,-29l112 0 0 -99 -217 1 0 709z"/>
  <path fill="#2BC97F" d="M8056 5779l20 105 -207 40 -20 -105 207 -40zm-252 -293c17,0 34,0 52,0 7,0 21,-1 27,0 9,1 6,1 12,2l7 4c-13,27 -11,19 1,46l-101 1 2 414 557 -2 0 -554 -301 -2 -256 1 0 90z"/>
  <path fill="#299A65" d="M8106 7183l301 0 1 -92 -135 -2c11,-47 5,-22 0,-65l135 -1c-4,-109 -1,-224 -1,-333 0,-75 -9,-270 4,-331l-138 0c7,-43 9,-18 -1,-65l136 -1 -1 -88 -301 1 0 977z"/>
  <path fill="#4B4B4D" d="M3963 5525c1,8 36,68 44,83 14,27 30,66 42,88 17,-19 357,-760 418,-883 12,-26 22,-38 20,-70 6,-46 -35,-156 -36,-211 -10,-4 -158,-11 -183,-12l-155 501c-18,61 -152,481 -150,504z"/>
  <path fill="#4B4B4D" d="M4658 1721c18,14 61,1 83,-5 130,-38 113,-128 152,-163 120,-106 232,-27 335,-38 47,-10 71,-36 82,-82 18,-76 -13,-157 -18,-150l-264 -49c-91,-15 -195,-41 -279,-2 -149,70 -141,315 -91,489z"/>
  <path fill="#AA6F42" d="M4658 1721l7 90c7,9 10,23 17,37 35,61 95,99 158,130 29,14 71,25 80,38 76,-6 73,57 147,-29 64,-74 138,-271 158,-375 7,-36 -2,-73 3,-97 -103,11 -215,-68 -335,38 -39,35 -22,125 -152,163 -22,6 -65,19 -83,5z"/>
  <path fill="#299A65" d="M4613 4238c15,-35 111,-342 110,-366 -5,-16 -110,-80 -146,-124 -79,-99 -143,-230 -195,-352 -13,-29 -29,-65 -40,-96 -10,-28 -26,-75 -40,-102 -10,13 -8,60 -8,79 0,28 0,57 2,86 10,239 69,462 180,669 37,68 73,120 116,180 3,4 6,8 9,13 8,10 2,5 12,13z"/>
  <path fill="#4B4B4D" d="M4680 7458c-3,41 1,86 4,127 12,31 53,72 101,79 474,-2 961,5 1439,5 60,0 462,3 483,-2l-14 -1 -1339 -1 -13 -33c-29,-64 -125,-57 -213,-88 -89,-30 -155,-77 -187,-151 -25,-2 -92,20 -124,26 -35,6 -94,19 -127,10l-10 29z"/>
  <path fill="#299A65" d="M5508 4076l57 3c2,-9 27,-70 33,-79 -11,-35 2,-43 -31,-66 -165,-114 -336,-243 -502,-359 -21,-15 -99,-62 -108,-84 -23,-55 -24,-276 -27,-351l-9 -22c11,44 -74,256 -67,346 3,31 5,60 12,91 10,45 15,37 46,59 104,69 271,191 373,265 41,30 82,57 122,87 20,15 41,31 61,44 24,17 41,25 40,66z"/>
  <path fill="#4B4B4D" d="M2389 7398l13 11c31,32 70,67 90,106 14,27 15,54 27,83 18,41 27,41 45,68l304 1c10,-42 -7,-43 -22,-61 -73,-17 -92,-25 -124,-75 -14,-20 -21,-42 -27,-68 -7,-29 -5,-64 -12,-89 -10,-12 -55,-32 -71,-42 -48,-29 -91,-61 -124,-104 -11,-14 -15,-18 -23,-32 -6,-12 -12,-28 -19,-37 -50,53 -120,135 -74,211 4,6 7,10 10,14 7,12 1,0 7,14z"/>
  <path fill="#9C5F33" d="M4480 2000c7,15 50,56 65,72 20,23 47,48 73,68 50,37 121,77 199,80 17,-34 102,-174 103,-204 -9,-13 -51,-24 -80,-38 -63,-31 -123,-69 -158,-130 -7,-14 -10,-28 -17,-37 -9,7 -49,76 -131,148 -17,14 -38,26 -54,41z"/>
  <path fill="#299A65" d="M7632 5952l172 1 -2 -414 -100 -1c10,-33 6,-19 1,-49l101 -3 0 -90 -172 0 0 556z"/>
  <path fill="#CA5B13" d="M7060 7183l3 1c16,-135 -13,-976 6,-1005l183 -112c34,-20 164,-103 180,-107 -63,-4 -250,-11 -299,-6l-73 -1 0 1230z"/>
  <path fill="#AA6F42" d="M5416 4220c22,-1 27,8 44,17 14,7 30,13 46,18 25,7 92,13 105,20 50,6 46,26 76,42 30,-2 30,-13 43,-36 7,-54 -6,-44 -9,-78 -12,-12 -22,-32 -30,-42 -10,-12 -25,-26 -34,-35 -34,-33 -69,-36 -92,-47l-57 -3c-2,35 -12,59 -29,86 -9,13 -16,25 -24,36 -17,23 -15,9 -39,22z"/>
  <path fill="#9F6138" d="M5565 4079c23,11 58,14 92,47 9,9 24,23 34,35 8,10 18,30 30,42 4,5 20,19 26,25 12,10 26,16 43,4 24,-18 22,-58 16,-91 -32,-48 -35,-67 -77,-100 -32,-25 -79,-45 -131,-41 -6,9 -31,70 -33,79z"/>
  <path fill="#EAF1F9" d="M9072 6310l22 119 234 -46c-1,-18 -17,-105 -25,-119l-231 46z"/>
  <path fill="#CA5B13" d="M7436 6670l2 -117 -237 2c5,16 18,45 18,57 1,21 -12,36 -15,57l232 1z"/>
  <path fill="#FBD4AC" d="M7438 6554l2 118 235 0c-7,-15 -28,-43 -29,-55 0,-12 20,-44 25,-62l-233 -1z"/>
  <path fill="#299A65" d="M6641 7555c31,105 197,66 166,-49 -29,-108 -200,-63 -166,49z"/>
  <path fill="#299A65" d="M9343 7542c4,44 48,80 98,74 43,-6 79,-46 73,-97 -12,-108 -181,-96 -171,23z"/>
  <polygon fill="#EAF1F9" points="7849,5819 7869,5924 8076,5884 8056,5779 "/>
  <path fill="#CA5B13" d="M7140 5380c13,-18 76,-52 100,-67l106 -64 -206 -3 0 134z"/>
  <path fill="#A7C7F9" d="M8408 7091l126 1c4,-9 4,-3 -2,-11 -4,7 -3,7 -29,7l-98 0 -1 -63c24,0 47,1 71,0 50,0 60,-7 54,10 9,-8 5,3 6,-12l-127 0 -135 1c5,43 11,18 0,65l135 2z"/>
  <path fill="#A7C7F9" d="M8411 6359c-11,-16 -6,-41 -7,-64l121 1c9,8 4,-5 4,10 10,-8 4,2 7,-13l-128 0 -136 1c10,47 8,22 1,65l138 0z"/>
  <path fill="#EBF2F9" d="M8411 6359l125 0c-13,-40 -19,-3 -7,-53 0,-15 5,-2 -4,-10l-121 -1c1,23 -4,48 7,64z"/>
  <path fill="#EBF2FA" d="M8532 7081c-14,-35 -13,-6 -3,-46 6,-17 -4,-10 -54,-10 -24,1 -47,0 -71,0l1 63 98 0c26,0 25,0 29,-7z"/>
  <path fill="#FBD4AC" d="M7354 5828l114 -2c-2,-18 -9,-12 -10,-26 -1,-9 7,-20 10,-31l-114 -1 0 60z"/>
  <path fill="#FBD4AC" d="M7355 5399l114 0c-4,-16 -11,-14 -11,-27 -1,-8 6,-20 9,-31l-112 -1 0 59z"/>
  <path fill="#CA5B13" d="M7351 5828l-1 -57 -111 0c0,16 4,12 4,25 0,12 -4,19 -5,31l113 1z"/>
  <path fill="#CA5B13" d="M7351 5399l-1 -56 -112 0c2,18 7,14 6,29 -1,14 -6,9 -7,28l114 -1z"/>
  <path fill="#CEAE96" d="M8106 6206l301 -1 264 -1 0 -251 -310 -2 -557 2 -172 -1 515 5c86,0 174,-3 260,-3 85,0 179,4 263,-1l-2 248c-138,-6 -369,2 -530,1 -19,0 -21,-2 -32,4z"/>
  <path fill="#1D458A" d="M5611 4275c-13,-7 -80,-13 -105,-20 -16,-5 -32,-11 -46,-18 -17,-9 -22,-18 -44,-17l-54 -3c16,48 45,50 101,52 50,3 99,4 148,6z"/>
  <path fill="#A7C7F9" d="M7802 5539l1 -49 99 2 -7 -4c-6,-1 -3,-1 -12,-2 -6,-1 -20,0 -27,0 -18,0 -35,0 -52,0l-101 3c5,30 9,16 -1,49l100 1z"/>
  <path fill="#EBF2FA" d="M7802 5539l101 -1c-12,-27 -14,-19 -1,-46l-99 -2 -1 49z"/>
 </g>
</svg>
