<?xml version="1.0" encoding="UTF-8"?>
<!DOCTYPE svg PUBLIC "-//W3C//DTD SVG 1.1//EN" "http://www.w3.org/Graphics/SVG/1.1/DTD/svg11.dtd">
<!-- Creator: CorelDRAW X8 -->
<svg xmlns="http://www.w3.org/2000/svg" xml:space="preserve" width="11in" height="8.5in" version="1.1" shape-rendering="geometricPrecision" text-rendering="geometricPrecision" image-rendering="optimizeQuality" fill-rule="evenodd" clip-rule="evenodd"
viewBox="0 0 11000 8500"
 xmlns:xlink="http://www.w3.org/1999/xlink">
 <g id="Capa_x0020_1">
  <metadata id="CorelCorpID_0Corel-Layer"/>
  <path fill="#2BC97F" d="M3304 2502c4,-24 -12,-14 27,-25 50,-15 44,-8 115,-36 48,-18 84,-40 128,-67 46,-29 79,-51 119,-84 50,-41 83,-80 116,-83 -3,41 -19,42 -46,63 -20,15 -32,29 -53,45 -77,60 -333,224 -406,187zm424 -484c0,55 11,113 -21,143 -68,63 -159,38 -229,-8 -88,-57 -44,-62 -71,-74 -97,26 -186,59 -263,106 -63,38 -180,104 -208,154 70,13 144,101 175,159 35,65 60,173 80,251 64,242 129,549 233,774 95,207 304,378 510,490 87,-49 90,-120 140,-110 1,42 -83,101 -107,129 60,40 142,83 208,115 61,-4 94,-46 105,-102l-12 -692c-16,-149 -17,-302 -32,-453 -7,-74 -15,-143 -24,-216l-25 -158c-1,-9 -2,-15 -1,-24 1,-17 -1,-8 5,-18 -71,-165 -9,-167 -169,-257 -84,-48 -191,-105 -284,-140 -16,-20 -14,-61 -10,-87l0 18z"/>
  <path fill="#4B4B4D" d="M5365 2318c-27,-19 -71,-117 -85,-149 -56,-163 -97,-267 -97,-464 -1,-805 818,-1368 1573,-1070 715,282 966,1177 459,1810 -267,332 -758,494 -1216,360 -138,-41 -282,-120 -372,-192 -71,-58 -236,-215 -262,-295zm-40 305l178 159c85,66 157,97 204,132 199,69 249,126 528,146 323,24 654,-72 905,-262 124,-93 248,-212 330,-347 19,-32 44,-77 64,-105 23,-61 56,-116 80,-186 23,-66 42,-135 56,-208 29,-154 28,-330 2,-477 -14,-191 -153,-455 -238,-571 -388,-528 -1107,-720 -1714,-413 -323,163 -612,471 -712,905 -101,438 11,832 273,1172 16,19 34,34 44,55z"/>
  <path fill="#4B4B4D" d="M2981 5033c17,26 41,81 57,115 19,39 36,74 55,112 36,72 84,154 114,225l164 285c19,31 40,58 53,87l15 119 1 72 -1 19 59 -80c16,161 44,339 76,497l112 504 32 183 26 170 12 76c2,1 5,1 6,4 1,2 4,2 5,3 30,12 92,4 124,2 31,-1 114,0 138,-8l1 -68 -7 -181 -13 -291 -1 -9c-7,-109 -10,-215 -14,-324 -4,-87 -20,-237 -7,-313 -2,-2 -2,-5 -3,-6l-21 -372c-7,-59 -216,-866 -239,-955l22 -9c1,-3 5,-3 7,-4 -261,8 -421,9 -678,-39l-172 -35c-20,2 -5,-2 -17,6l94 215z"/>
  <path fill="#2BC97F" d="M2861 3508c-19,38 -9,549 -9,639 0,107 -6,583 3,647 21,12 17,5 32,24 12,-8 -3,-4 17,-6l172 35c257,48 417,47 678,39l164 -16c-28,-43 -77,-51 -68,-144 6,-54 56,-108 80,-139l186 -243c-106,-6 -156,-29 -205,-2 -123,67 -425,173 -539,123 8,-26 -10,-17 28,-22 3,0 39,2 46,2 124,3 395,-75 451,-132 -64,-14 -125,-41 -184,-65 -53,-22 -78,15 -173,53 -52,21 -358,122 -396,64 15,-19 -2,-9 31,-13l112 -10c98,-14 301,-74 360,-125 -83,-39 -182,-108 -248,-158 -82,-62 -146,-118 -212,-186 -63,-67 -215,-438 -250,-546l-18 31c-17,43 -57,185 -52,217l-6 -67z"/>
  <path fill="#299A65" d="M2860 3047c20,25 18,77 27,111 8,32 23,71 28,100 6,26 -40,166 -57,189l3 61 6 67c-5,-32 35,-174 52,-217l18 -31c35,108 187,479 250,546 66,68 130,124 212,186 66,50 165,119 248,158 -59,51 -262,111 -360,125l-112 10c-33,4 -16,-6 -31,13 38,58 344,-43 396,-64 95,-38 120,-75 173,-53 59,24 120,51 184,65 -56,57 -327,135 -451,132 -7,0 -43,-2 -46,-2 -38,5 -20,-4 -28,22 114,50 416,-56 539,-123 49,-27 99,-4 205,2l4 1c-12,-81 28,-141 55,-198 -66,-32 -148,-75 -208,-115 24,-28 108,-87 107,-129 -50,-10 -53,61 -140,110 -206,-112 -415,-283 -510,-490 -104,-225 -169,-532 -233,-774 -20,-78 -45,-186 -80,-251 -31,-58 -105,-146 -175,-159 -94,42 -122,180 -122,320 1,139 24,257 46,388z"/>
  <path fill="#4B4B4D" d="M3440 878c-26,40 -52,-3 -85,82 -22,58 -44,40 -105,62 -105,70 -44,122 -78,169 3,49 -31,74 -34,131 -3,53 13,90 32,133l75 10c7,-41 41,-70 48,-108 11,-55 -30,-74 -10,-138 48,-24 350,-17 426,-16 228,3 135,90 151,170 6,33 20,51 23,90l75 -7c67,-169 -23,-207 -4,-250 31,-34 82,-20 114,-81 29,-55 -3,-116 -41,-137 -56,-32 -88,12 -141,-54 -43,-53 -59,-60 -147,-52l-108 22 -76 -20 -24 -45 -91 39z"/>
  <path fill="#FFA901" d="M4835 3253c-16,36 -85,115 -115,154 -10,13 -50,63 -57,79 -19,47 5,70 31,98 32,16 223,162 245,189 35,23 75,34 110,1 16,-15 49,-62 66,-84 26,-32 116,-158 134,-171 11,-18 26,-33 33,-50 -19,-36 -67,-37 -59,-85 44,-11 67,1 108,2 -26,-16 -80,-56 -77,-92 41,-19 77,-1 120,5 -7,-7 -4,-6 -13,-13 -1,-1 -164,-108 -60,-114 26,-1 84,23 107,30 -19,-23 -37,-21 -35,-58 57,-32 108,7 162,0 12,-17 21,-28 34,-48 -50,-27 -135,-129 -175,-182 -23,-30 -118,-179 -117,-221 -27,12 -92,109 -116,140 -46,58 -300,400 -326,420z"/>
  <path fill="#6C6D6F" d="M3439 6067c-18,26 -34,49 -50,75 -12,19 -35,58 -47,71 -21,43 -56,95 -82,139 -23,39 -51,101 -76,133 -37,80 -88,163 -131,239l-132 227c-15,45 -55,103 -77,148 10,19 120,109 153,135 20,15 7,9 29,17 10,-17 -2,-2 11,-9l288 -300c33,-38 75,-70 104,-112l140 -140c56,-60 39,-37 5,-206 -32,-158 -60,-336 -76,-497l-59 80z"/>
  <path fill="#6C6D6F" d="M4134 4831l-39 33c-67,50 -116,28 -177,6l-164 16c-2,1 -6,1 -7,4l-22 9c23,89 232,896 239,955l21 372c1,1 1,4 3,6l233 -1417 -87 16z"/>
  <path fill="#299A65" d="M4268 3353c21,26 57,54 81,80 52,54 125,106 194,143l101 51c11,7 7,4 14,12 15,-19 27,-29 36,-55 -26,-28 -50,-51 -31,-98 7,-16 47,-66 57,-79 30,-39 99,-118 115,-154 -123,32 -135,37 -255,-67 -141,-122 -342,-515 -389,-702 -6,10 -4,1 -5,18 -1,9 0,15 1,24l25 158c9,73 17,142 24,216 15,151 16,304 32,453z"/>
  <path fill="#4B4B4D" d="M4032 7663c-66,98 -110,28 -218,31 -44,12 -41,44 -44,97l11 242c116,2 704,27 760,-16 45,-45 16,-103 -35,-120 -63,-22 -84,-28 -134,-58 -41,-5 -64,-20 -97,8 -30,25 -24,53 -64,59 0,-53 39,-76 74,-103 -87,-15 -77,69 -125,72 -20,-48 68,-93 86,-105 -25,-15 -57,1 -71,14 -37,34 -9,44 -53,57l2 -39c20,-37 62,-57 79,-69 -23,-18 -52,-34 -76,-50 -39,-25 -48,-32 -95,-20z"/>
  <path fill="#4B4B4D" d="M2800 7816c33,25 56,54 90,81 32,27 61,54 99,82 42,31 92,-3 94,-52 2,-33 -29,-65 -54,-123 -26,-76 -33,-158 -120,-142 -5,1 -34,10 -36,10 -24,2 -4,1 -18,-2l-12 -5c18,-37 77,-33 118,-33 -61,-63 -97,2 -139,-20 9,-44 98,-45 132,-26 -23,-70 -109,-14 -140,-27 3,-28 22,-31 54,-36 35,-5 51,0 81,8 -7,-36 -18,-91 -42,-108 -69,-22 -76,20 -124,-36 -23,-27 -51,-65 -69,-90 -56,-30 -108,50 -132,75 -30,32 -84,94 -103,129 53,47 100,108 155,156l166 159z"/>
  <path fill="#4B4B4D" d="M4658 3639c-33,46 -66,87 -101,131 -34,44 -68,95 -101,130 -9,16 -1,3 -13,20 -1,2 -7,9 -10,13 -7,9 -11,14 -20,22 -4,94 -54,63 -64,132 32,31 64,47 114,65 66,25 102,12 172,19 12,-29 110,-152 134,-175 11,-26 63,-87 82,-112 28,-37 61,-80 88,-111 -22,-27 -213,-173 -245,-189 -9,26 -21,36 -36,55z"/>
  <path fill="#6C6D6F" d="M3918 4870c61,22 110,44 177,-6l39 -33c0,-1 0,-5 0,-4l26 -41c24,-32 95,-133 122,-152 8,-24 54,-79 70,-99 26,-35 52,-70 75,-100 -168,-17 -177,-37 -307,-90l-4 -1 -186 243c-24,31 -74,85 -80,139 -9,93 40,101 68,144z"/>
  <path fill="#4B4B4D" d="M3769 1834c-52,39 -97,84 -196,85 -53,1 -190,-20 -192,-86 -4,-107 112,-70 186,-70 86,0 180,-25 202,71zm-567 -245c11,11 8,27 10,48 10,32 23,80 21,112 18,23 47,110 70,144 27,42 66,79 114,105l10 5c44,18 94,32 147,33 77,1 101,-26 154,-36 -4,26 -6,67 10,87 1,-94 -8,-88 23,-120 11,-12 15,-13 27,-25 12,-12 30,-38 42,-56 23,-39 47,-90 63,-138l30 -118 14 -59c-4,-28 -1,-70 8,-89l-55 5c4,80 -34,180 -52,251 -16,-9 -4,-2 -15,-11 -2,-1 -7,-6 -9,-7 -11,-9 -10,-10 -22,-15 -56,-24 -143,3 -190,8 -27,16 -43,13 -65,2 -90,-17 -153,-39 -234,5 -27,-37 -62,-170 -65,-231l-37 -10c-17,4 -4,-3 -14,8l15 102z"/>
  <path fill="#FAA691" d="M3332 1435c-1,-49 13,-47 69,-52 102,-9 77,24 74,45l-143 7zm479 -1c-26,3 -103,-6 -143,-5 -2,-19 -27,-53 71,-47 86,6 73,25 72,52zm-566 31l66 31c17,-32 49,-59 105,-58 64,2 76,35 105,63 49,-28 59,-22 105,0 26,-27 42,-58 98,-63 59,-4 87,29 113,51l46 -26c-3,-39 -17,-57 -23,-90 -16,-80 77,-167 -151,-170 -76,-1 -378,-8 -426,16 -20,64 21,83 10,138 -7,38 -41,67 -48,108z"/>
  <path fill="#FAA691" d="M4328 3992c-12,19 -32,35 -48,53 -11,56 -44,98 -105,102 -27,57 -67,117 -55,198 130,53 139,73 307,90l94 -24c3,-26 25,-67 39,-96 18,-35 32,-12 35,-76 41,-8 50,-11 53,-51l-13 -17c-70,-7 -106,6 -172,-19 -50,-18 -82,-34 -114,-65 10,-69 60,-38 64,-132 -35,-7 -60,19 -85,37z"/>
  <path fill="#F88800" d="M5277 2693c-1,42 94,191 117,221 40,53 125,155 175,182l17 -16c23,-33 36,-50 61,-83 17,-22 51,-62 60,-83 -47,-35 -119,-66 -204,-132l-178 -159c-23,19 -43,45 -48,70z"/>
  <path fill="#FBA691" d="M5282 3469c43,13 93,61 123,7l77 -134c12,-12 9,-4 23,-22 11,-15 19,-36 34,-55 44,-59 37,-69 -4,-121 -54,7 -105,-32 -162,0 -2,37 16,35 35,58 -23,-7 -81,-31 -107,-30 -104,6 59,113 60,114 9,7 6,6 13,13 -43,-6 -79,-24 -120,-5 -3,36 51,76 77,92 -41,-1 -64,-13 -108,-2 -8,48 40,49 59,85z"/>
  <path fill="#FAA691" d="M3537 1715l-3 -26 52 -1c4,-33 -3,-60 -8,-92 -6,-32 -18,-59 -4,-80 17,11 6,-7 16,22l20 137c-4,43 -20,9 -8,38 47,-5 134,-32 190,-8 12,5 11,6 22,15 2,1 7,6 9,7 11,9 -1,2 15,11 18,-71 56,-171 52,-251l-42 30c23,84 -31,156 -109,158 -92,4 -117,-60 -123,-127 -7,-71 -72,-42 -82,-26 -14,42 4,72 -32,112 -52,57 -210,92 -205,-124l-59 -21c3,61 38,194 65,231 81,-44 144,-22 234,-5z"/>
  <path fill="#4B4B4D" d="M3756 7417c-1,2 -4,1 -5,5 -13,44 -32,-52 -11,148l283 -5 32 -3c20,-36 20,-98 2,-141l-28 -3c-24,8 -107,7 -138,8 -32,2 -94,10 -124,-2 -1,-1 -4,-1 -5,-3 -1,-3 -4,-3 -6,-4z"/>
  <path fill="#6C6D6F" d="M2755 7191l23 20c26,17 58,52 86,73 19,15 72,56 82,75 32,7 48,-18 68,-36 10,-10 19,-17 23,-30 11,-35 4,-15 -11,-42 -22,-8 -9,-2 -29,-17 -33,-26 -143,-116 -153,-135 -34,-8 -36,3 -54,30 -14,20 -27,37 -35,62z"/>
  <path fill="#FAA691" d="M3407 2079c27,12 -17,17 71,74 70,46 161,71 229,8 32,-30 21,-88 21,-143 -22,10 -4,1 -18,10 -10,6 -3,2 -14,10 -34,22 -57,29 -100,35 -53,7 -113,4 -166,-5l-3 -65 -10 -5 2 81 -12 0z"/>
  <path fill="#FAA691" d="M3814 7694c108,-3 152,67 218,-31l-9 -98 -283 5 66 4 8 120z"/>
  <path fill="#FAA691" d="M3693 1771c-14,73 -43,117 -127,117 -74,-1 -110,-50 -124,-117l251 0zm76 63c-22,-96 -116,-71 -202,-71 -74,0 -190,-37 -186,70 2,66 139,87 192,86 99,-1 144,-46 196,-85z"/>
  <path fill="#FAA691" d="M3722 1577c-16,-30 -28,-69 17,-80 16,11 23,13 22,42 0,35 -12,37 -39,38zm-11 -114c-133,36 -71,228 56,187 43,-13 78,-66 61,-123 -13,-42 -59,-79 -117,-64z"/>
  <path fill="#FAA691" d="M3438 1578c-37,-17 -35,-73 -5,-81 30,-8 51,52 5,81zm-46 -117c-126,28 -89,214 38,193 121,-20 91,-221 -38,-193z"/>
  <path fill="#FAA691" d="M2714 7297c18,25 46,63 69,90 48,56 55,14 124,36 0,-29 20,-46 39,-64 -10,-19 -63,-60 -82,-75 -28,-21 -60,-56 -86,-73 -13,33 -38,66 -64,86z"/>
  <path fill="#FEFEFE" d="M3693 1771l-251 0c14,67 50,116 124,117 84,0 113,-44 127,-117z"/>
  <path fill="#FA876B" d="M3937 1571l5 11c12,-13 39,-29 61,-20 -8,28 -21,28 -45,38 11,15 23,20 16,41 -51,7 -4,-23 -51,-11l-30 118c72,-1 108,-44 127,-115 19,-69 18,-151 -75,-151 -9,19 -12,61 -8,89z"/>
  <path fill="#FA876B" d="M3233 1749c2,-32 -11,-80 -21,-112l-22 -13c-15,15 -7,13 -29,19 -3,-18 -1,-14 9,-34l7 -13c-22,-8 -35,-9 -46,-36 26,-9 62,21 71,29l-15 -102c10,-11 -3,-4 14,-8 -23,-10 -65,10 -79,30 -18,27 -18,73 -10,110 14,73 48,122 121,130z"/>
  <path fill="#299A65" d="M3304 2502c73,37 329,-127 406,-187 21,-16 33,-30 53,-45 27,-21 43,-22 46,-63 -33,3 -66,42 -116,83 -40,33 -73,55 -119,84 -44,27 -80,49 -128,67 -71,28 -65,21 -115,36 -39,11 -23,1 -27,25z"/>
  <path fill="#2BC97F" d="M4134 4831l87 -16 60 -14 1 -167c-27,19 -98,120 -122,152l-26 41c0,-1 0,3 0,4z"/>
  <path fill="#FA876B" d="M3427 2003l3 65c53,9 113,12 166,5 43,-6 66,-13 100,-35 11,-8 4,-4 14,-10 14,-9 -4,0 18,-10l0 -18c-53,10 -77,37 -154,36 -53,-1 -103,-15 -147,-33z"/>
  <path fill="#2BC97F" d="M2858 3447c17,-23 63,-163 57,-189 -5,-29 -20,-68 -28,-100 -9,-34 -7,-86 -27,-111 16,102 -4,287 -2,400z"/>
  <path fill="#4B4B4D" d="M3475 1428c3,-21 28,-54 -74,-45 -56,5 -70,3 -69,52l143 -7z"/>
  <path fill="#4B4B4D" d="M3739 1382c-98,-6 -73,28 -71,47 40,-1 117,8 143,5 1,-27 14,-46 -72,-52z"/>
  <path fill="#FB886B" d="M3537 1715c22,11 38,14 65,-2 -12,-29 4,5 8,-38l-20 -137c-10,-29 1,-11 -16,-22 -14,21 -2,48 4,80 5,32 12,59 8,92l-52 1 3 26z"/>
  <path fill="#4B4B4D" d="M3722 1577c27,-1 39,-3 39,-38 1,-29 -6,-31 -22,-42 -45,11 -33,50 -17,80z"/>
  <path fill="#DA6651" d="M3937 1571l-14 59c47,-12 0,18 51,11 7,-21 -5,-26 -16,-41 24,-10 37,-10 45,-38 -22,-9 -49,7 -61,20l-5 -11z"/>
  <path fill="#4B4B4D" d="M3438 1578c46,-29 25,-89 -5,-81 -30,8 -32,64 5,81z"/>
  <path fill="#DA6651" d="M3212 1637c-2,-21 1,-37 -10,-48 -9,-8 -45,-38 -71,-29 11,27 24,28 46,36l-7 13c-10,20 -12,16 -9,34 22,-6 14,-4 29,-19l22 13z"/>
 </g>
</svg>
