<svg width="9480" height="8060" xmlns="http://www.w3.org/2000/svg" clip-rule="evenodd">

 <g>
  <title>background</title>
  <rect fill="none" id="canvas_background" height="8062" width="9482" y="-1" x="-1"/>
 </g>
 <g>
  <title>Layer 1</title>
  <g id="Capa_x0020_1">
   <metadata transform="translate(-340.0123596191406,-100.00363159179688) translate(0,33.33338928222656) " id="CorelCorpID_0Corel-Layer"/>
   <path d="m710.98764,4279.329758c357,610 290,1428 133,2071c-53,215 -113,442 -68,686c54,297 254,534 457,672c368,250 790,253 1096,7c265,-213 440,-590 710,-791c453,-337 1073,-112 1612,224c381,238 801,538 1153,381c248,-110 403,-432 475,-786c35,-170 56,-357 136,-486c48,-76 113,-127 181,-168c618,-374 1455,-30 2051,-457c403,-287 632,-896 708,-1550c75,-654 14,-1357 -64,-2050c-54,-493 -129,-1020 -376,-1425c-262,-429 -674,-627 -1033,-596c-359,31 -671,262 -939,545c-336,354 -638,810 -1073,916c-295,73 -619,-26 -933,-86c-525,-99 -1043,-85 -1557,-65c-492,20 -988,48 -1446,219c-325,120 -574,380 -877,547c-197,108 -420,117 -604,263c-227,180 -423,518 -332,952c86,413 401,654 590,977l0,0z" fill="#ebf5fd" id="svg_1"/>
  </g>
 </g>
</svg>