<?xml version="1.0" encoding="UTF-8"?>
<!DOCTYPE svg PUBLIC "-//W3C//DTD SVG 1.1//EN" "http://www.w3.org/Graphics/SVG/1.1/DTD/svg11.dtd">
<!-- Creator: CorelDRAW X8 -->
<svg xmlns="http://www.w3.org/2000/svg" xml:space="preserve" width="11in" height="8.5in" version="1.1" shape-rendering="geometricPrecision" text-rendering="geometricPrecision" image-rendering="optimizeQuality" fill-rule="evenodd" clip-rule="evenodd"
viewBox="0 0 11000 8500"
 xmlns:xlink="http://www.w3.org/1999/xlink"
 data-name="Layer 1">
 <g id="Capa_x0020_1">
  <metadata id="CorelCorpID_0Corel-Layer"/>
  <path fill="#FEFEFE" d="M1964 2683l-46 140c-11,163 48,302 107,442l156 -66 168 -83 45 40 522 194 336 -228 -25 -159 -49 -101c25,-25 50,-50 74,-75l67 -135 -319 -83 -1036 114z"/>
  <path fill="#2BC97F" d="M2370 3673c-13,14 -19,20 -31,34 -10,12 -18,19 -28,31 -17,22 -34,46 -53,64l-22 30 -73 119c-45,75 -174,343 -171,395 0,79 288,422 337,477 263,301 739,492 1167,448 123,-12 223,-31 337,-65 57,-17 164,-56 218,-83l54 -26c10,-8 7,-2 11,-15 -17,-62 -51,-147 -76,-208 -166,-401 -366,-847 -678,-1153 -14,-13 -63,-52 -70,-64 -39,-3 -191,37 -240,47 -76,16 -159,31 -238,43 -80,12 -180,22 -263,13 -106,-11 -158,-91 -181,-87z"/>
  <path fill="#606062" d="M6363 4827l1 142c26,-34 3,-149 6,-191 5,-62 -4,-133 3,-192 126,47 248,102 381,143l120 33c1,1 3,1 4,2 1,0 3,1 4,1 8,4 6,3 11,7l-5 46 11 -48 86 8 40 5c48,8 37,15 55,60 36,97 231,579 240,616l181 455 17 47 155 387 8 27 174 437 72 186c11,16 48,113 49,131l8 5c2,1 4,1 5,4 0,2 3,3 3,4 1,1 2,4 2,5 56,-23 267,-67 279,-87 1,-31 -16,-59 -17,-91l-66 -234 -36 -126c-23,-102 -57,-215 -86,-319 -30,-106 -58,-212 -87,-321 -58,-214 -118,-425 -173,-641l-17 -65c-18,-47 -177,-657 -203,-758 -11,-43 -62,-227 -64,-256 -202,-2 -391,-9 -590,-35 -93,-12 -177,-26 -269,-45 -89,-19 -161,-42 -246,-63 -23,109 -38,225 -48,337 -11,127 0,257 -8,384z"/>
  <path fill="#2BC97F" d="M6832 2233c-46,14 -134,23 -186,34 -60,12 -119,27 -175,42l2 21 63 456c0,6 1,15 2,21l7 20 145 -10 -46 201c-24,104 -140,562 -139,599 0,35 -3,8 8,22 8,-8 326,-61 363,-70 265,-59 591,-125 824,-269l121 -86c1,-1 2,-3 3,-3 1,-1 2,-3 3,-3 1,-1 2,-3 3,-4l46 -149c33,18 68,76 103,88 11,-12 11,-14 25,-21 18,-21 58,-54 82,-73 29,-23 55,-47 83,-70 22,-19 143,-129 167,-140l14 -20c-18,-38 -86,-113 -114,-146 -71,-82 -64,-65 -130,-130 -73,-70 -292,-164 -357,-150 -39,56 -204,84 -291,59 -53,-16 -85,-42 -111,-73 -23,-26 -60,-78 -73,-115l-175 -32c-111,-19 -162,-5 -267,1z"/>
  <path fill="#299A65" d="M1920 4620c-56,298 -71,567 -75,879l1 59 13 253c51,24 252,39 322,50 72,2 151,11 225,14 81,4 161,5 242,3l135 -4 101 -6 121 -13c161,-20 287,-50 438,-82 24,-11 77,-23 107,-32 37,-11 71,-24 107,-37 62,-22 146,-54 204,-85 108,-44 277,-150 356,-215 -4,-42 -82,-282 -101,-322 -4,13 -1,7 -11,15l-54 26c-54,27 -161,66 -218,83 -114,34 -214,53 -337,65 -428,44 -904,-147 -1167,-448 -49,-55 -337,-398 -337,-477 -27,43 -61,211 -72,274z"/>
  <path fill="#4B4B4D" d="M6364 4969l0 41 -15 1009 -15 953 -4 136 295 19c1,-20 1,-25 11,-41 2,-18 -1,-29 8,-40 -6,-57 23,-242 32,-312 12,-102 29,-216 35,-317l146 -1297c8,-64 36,-246 31,-302l5 -46c-5,-4 -3,-3 -11,-7 -1,0 -3,-1 -4,-1 -1,-1 -3,-1 -4,-2l-120 -33c-133,-41 -255,-96 -381,-143 -7,59 2,130 -3,192 -3,42 20,157 -6,191z"/>
  <path fill="#606062" d="M2076 1681c-51,127 -69,172 -53,334 29,297 -268,285 -237,544 10,83 90,247 132,264 27,-39 69,-75 112,-104 29,-20 110,-61 153,-64 34,-21 100,-23 142,-49 46,-29 50,-60 75,-115l25 -145c-1,-129 -10,-217 -28,-340 -10,-72 18,-40 49,-134 22,-66 13,-101 5,-170 42,21 71,59 159,85 78,24 134,22 218,15 -4,-17 -50,-34 -77,-58 28,6 66,25 93,38 30,15 65,22 70,64 -65,-33 -137,-15 -153,55 43,-17 57,-42 127,-30l25 7c59,29 31,410 -91,524 -44,42 -86,52 -164,58l9 73c6,17 4,13 25,16l308 20 3 -39c51,-8 100,5 145,13 15,-5 16,-1 27,-48 40,-181 -113,-248 -147,-394 -38,-167 67,-371 -94,-526 -101,-97 -259,-194 -459,-125 -88,30 -138,70 -194,119 -28,24 -23,11 -66,14 -72,6 -105,59 -139,98z"/>
  <path fill="#299A65" d="M6505 3617c-11,14 -96,368 -107,415l-11 40 -4 22 36 12c85,21 157,44 246,63 92,19 176,33 269,45 199,26 388,33 590,35 19,0 18,-24 24,-45 5,-18 10,-35 15,-54 7,-23 23,-91 31,-107l4 -18c-26,-3 -35,-2 -50,-17 -19,-49 27,-147 37,-191 -45,4 -104,33 -152,26 13,-36 116,-60 141,-88 -39,0 -117,0 -146,-13 24,-28 115,-20 156,-34 -31,-13 -95,-21 -111,-52 56,-4 99,12 148,12 -19,-22 -57,-37 -70,-62 27,-1 120,54 147,67l124 -432 8 -37c-1,1 -2,3 -3,4 -1,0 -2,2 -3,3 -1,0 -2,2 -3,3l-121 86c-233,144 -559,210 -824,269 -37,9 -355,62 -363,70 -11,-14 -8,13 -8,-22z"/>
  <path fill="#606062" d="M7623 1891c-38,33 -110,39 -169,25 -40,-10 -76,-29 -108,-51l-27 -23 304 49zm-232 -743c88,87 389,155 532,157 -10,97 -42,139 -11,244 16,55 -116,340 -147,399 -15,29 -33,63 -52,86 -26,31 -44,44 -79,22 -16,-80 140,-212 -142,-284 -281,-72 -193,186 -293,176 -19,-53 16,-143 19,-200 -30,66 -84,233 -66,321 17,83 150,122 231,155 98,26 208,47 305,2 45,-21 73,-49 97,-83 15,-21 59,-97 73,-108l73 -154c7,-44 49,-143 66,-189 12,-33 19,-66 39,-88 20,-21 47,-47 81,-24 37,-76 84,-127 137,-247 17,-37 41,-106 40,-154 -1,-74 -41,-82 -108,-85 -9,-188 -287,-149 -481,-194 -58,-14 -125,-41 -174,-50 11,22 39,41 64,57 -73,-4 -156,-70 -190,-83 3,36 14,46 21,73 -68,-17 -120,-90 -148,-101 -7,56 -15,80 0,139 13,49 31,71 43,108l-41 -4c18,35 78,88 111,109z"/>
  <path fill="#FCA397" d="M8067 3198c13,18 33,38 48,58l89 112c15,19 33,37 44,56 -13,16 -82,58 -104,75 -41,27 -409,287 -440,296 4,-44 16,-84 -6,-122 -27,-13 -120,-68 -147,-67 13,25 51,40 70,62 -49,0 -92,-16 -148,-12 16,31 80,39 111,52 -41,14 -132,6 -156,34 29,13 107,13 146,13 -25,28 -128,52 -141,88 48,7 107,-22 152,-26 -10,44 -56,142 -37,191 15,15 24,14 50,17 91,-11 149,-36 231,-56 27,-11 246,-93 259,-94l37 -18c86,-37 169,-71 250,-110 42,-20 84,-40 121,-59 40,-21 80,-46 118,-63l60 -38c29,-26 61,-33 55,-86l-20 -58c-24,-81 -102,-182 -136,-254 -12,-12 -134,-199 -139,-211 -11,-11 -15,-13 -19,-30 -9,-7 -3,-1 -12,-12 -6,-6 -3,-3 -7,-9 -6,-8 -9,-14 -13,-19 -8,23 -23,28 -38,45l-118 105c-26,25 -136,134 -160,140z"/>
  <path fill="#FCA397" d="M5684 1494c1,25 -9,116 -12,150 -7,-16 -12,-47 -17,-67l-13 -51c-8,-14 -2,-6 -10,-13 -1,73 17,171 29,244 13,78 25,154 39,231 31,172 137,736 227,855 26,34 54,24 104,18l236 -33c31,-5 95,-25 118,-13 5,-7 10,-8 29,-11l122 -18 -63 -456c-9,18 7,5 -20,16l-163 49 -163 50 -78 -196c-24,-66 -51,-132 -76,-195 -25,-65 -51,-130 -74,-195 -14,-38 -35,-60 -20,-99 15,-38 31,-64 33,-111 -38,10 -37,39 -60,49 -2,-43 1,-116 -23,-143 -6,4 -9,-7 -19,34 -4,17 -8,33 -11,49 -3,-5 -3,-4 -6,-13 0,-1 -3,-14 -4,-17 -4,-29 -5,-78 -24,-94 -17,20 -19,64 -23,92l-7 32c0,1 -1,3 -1,4 -7,-44 -14,-114 -35,-152l-15 4z"/>
  <path fill="#FFC2B8" d="M2025 3265c7,11 18,22 26,32 8,11 15,22 25,33 20,26 28,48 48,69 10,12 21,26 31,38l89 101c23,27 40,44 64,69 26,28 58,48 62,66 23,-4 75,76 181,87 83,9 183,-1 263,-13 79,-12 162,-27 238,-43 49,-10 201,-50 240,-47 -2,-12 4,-5 51,-17l164 -43c72,-18 152,-32 223,-54 0,-17 10,-3 -13,-17 19,-1 26,0 37,-11 -16,-11 -50,-17 -67,-19 21,-2 67,3 84,-8 -25,-17 -69,-17 -97,-25l53 -12c9,-3 8,-3 12,-8l-143 -10c0,-20 10,-30 14,-53 -21,7 -27,23 -47,51l-207 -4c-43,0 -85,0 -127,1 -38,0 -98,7 -130,5 -68,-3 -175,9 -246,15 -171,15 -140,28 -207,-25 -39,-31 -101,-96 -130,-130 -33,-39 -97,-101 -120,-145 -14,-5 -36,-40 -48,-54l-6 -6c-9,23 -53,41 -75,54 -27,15 -51,29 -79,43 -50,26 -109,59 -163,80z"/>
  <path fill="#FFC2B8" d="M3574 6019c14,41 124,231 153,282 50,92 103,183 158,272 153,247 187,294 347,512 19,18 47,41 75,58 27,17 64,36 100,23 8,-26 3,-44 -5,-69 -56,-18 -52,-113 -56,-150 -20,-181 -49,-355 -93,-530 -26,-105 -60,-221 -99,-315 -25,-61 -104,-243 -141,-274 2,23 13,7 -18,24 -145,79 -201,102 -357,158 -45,16 -42,19 -64,9z"/>
  <path fill="#FFC2B7" d="M3227 2963c29,3 79,7 100,18 53,2 140,23 194,33 256,50 333,61 598,5 67,-14 709,-170 720,-179l30 -26 -26 -12c-12,-3 -22,-4 -32,-8l74 -4c-5,-17 -72,-25 -89,-27 20,-16 36,-7 55,-18 -25,-16 -107,-14 -143,-15l18 -52c-20,7 -36,31 -48,50 -126,4 -252,-8 -380,0 -120,7 -235,17 -351,34 -71,11 -99,21 -174,12 -139,-17 -261,-51 -392,-97 -27,-10 -48,-23 -76,-29 -26,54 -54,113 -90,164 -14,21 -25,29 -37,50 4,15 38,87 49,101z"/>
  <path fill="#FCA397" d="M7766 1550c-5,47 -42,93 -102,65 -35,-16 -67,-83 -26,-117 -1,47 7,80 41,92 49,18 64,-24 87,-40zm-292 -94c0,49 -44,86 -95,68 -44,-17 -56,-67 -38,-118 15,23 3,2 6,18 4,19 2,56 40,71 50,20 67,-19 87,-39zm154 -55c72,-46 191,-26 196,70 -30,-9 -56,-26 -94,-37 -32,-9 -87,-16 -102,-33zm-279 -105c41,-14 79,-32 126,-6 29,17 57,47 53,95 -25,-8 -55,-33 -87,-45l-77 -24c-30,-11 -11,3 -19,-15 -24,72 -44,146 -65,219 -21,72 -49,155 -62,228 -3,57 -38,147 -19,200 100,10 12,-248 293,-176 282,72 126,204 142,284 35,22 53,9 79,-22 19,-23 37,-57 52,-86 31,-59 163,-344 147,-399 -31,-105 1,-147 11,-244 -143,-2 -444,-70 -532,-157 -8,46 -38,100 -42,148z"/>
  <path fill="#FFC2B9" d="M2784 2060c-38,-130 133,-152 126,-8l-6 -6c0,-1 -2,-2 -2,-3 -1,-1 -2,-3 -3,-4 0,0 -5,-10 -5,-11 -3,-7 -6,-13 -11,-20 -8,-10 -22,-24 -42,-23 -43,0 -42,48 -57,75zm-282 -10c-13,-56 12,-107 73,-104 47,1 97,57 75,101 -11,-18 -23,-69 -74,-71 -61,-3 -61,57 -74,74zm-77 296c-1,35 12,38 36,52 15,10 36,21 55,30 52,22 84,24 142,32 78,-6 120,-16 164,-58 122,-114 150,-495 91,-524l-25 -7c-70,-12 -84,13 -127,30 16,-70 88,-88 153,-55 -5,-42 -40,-49 -70,-64 -27,-13 -65,-32 -93,-38 27,24 73,41 77,58 -84,7 -140,9 -218,-15 -88,-26 -117,-64 -159,-85 8,69 17,104 -5,170 -31,94 -59,62 -49,134 18,123 27,211 28,340z"/>
  <path fill="#FFC2B8" d="M2183 2655c29,22 68,90 182,158 221,132 578,108 635,-244l-308 -20c-21,-3 -19,1 -25,-16 -48,-2 -95,-6 -142,-14 -41,-6 -92,-25 -125,-28 -25,55 -29,86 -75,115 -42,26 -108,28 -142,49z"/>
  <path fill="#EFF0F5" d="M2396 3148c23,44 87,106 120,145 29,34 91,99 130,130 67,53 36,40 207,25 71,-6 178,-18 246,-15 -11,-30 -6,-30 -8,-62 38,-17 83,-64 108,-98 28,-39 50,-90 53,-151 -51,14 -88,43 -186,66 -166,40 -522,16 -670,-40z"/>
  <path fill="#F5B4B3" d="M2210 6110c5,-17 -8,-14 49,-2 107,23 357,79 441,81 -6,-56 -12,-107 -21,-160 -6,-37 -31,-122 -31,-151 -81,2 -161,1 -242,-3 -74,-3 -153,-12 -225,-14 8,55 13,210 29,249z"/>
  <path fill="#F5B4B3" d="M3443 5773l21 43c4,8 10,21 17,33 19,38 55,95 65,129l28 41c22,10 19,7 64,-9 156,-56 212,-79 357,-158 31,-17 20,-1 18,-24 -13,-42 -125,-166 -153,-185l1 -24c-58,31 -142,63 -204,85 -36,13 -70,26 -107,37 -30,9 -83,21 -107,32z"/>
  <path fill="#FCA397" d="M7383 2224l-15 61 -94 -21c13,37 50,89 73,115 26,31 58,57 111,73 87,25 252,-3 291,-59 -13,-7 -5,-2 -10,-9l119 -349c-14,11 -58,87 -73,108 -24,34 -52,62 -97,83 -97,45 -207,24 -305,-2z"/>
  <path fill="#4B4B4D" d="M8042 7252l8 98c92,32 452,56 560,48 -18,-30 -104,-75 -142,-96 -23,-13 -144,-78 -161,-78 -35,-12 -221,18 -265,28z"/>
  <path fill="#4B4B4D" d="M6291 7263c-45,11 -237,121 -254,151 71,10 512,-20 555,-48 14,-23 13,-88 12,-120 -8,-7 -2,-8 -36,-5l-277 22z"/>
  <path fill="#299A65" d="M8273 7060c-12,20 -223,64 -279,87 0,-1 -1,-4 -2,-5 0,-1 -3,-2 -3,-4 -1,-3 -3,-3 -5,-4 -7,44 -26,-7 -12,58 4,21 9,44 11,65l59 -5c44,-10 230,-40 265,-28 7,-19 -9,-6 17,-14 1,0 22,-3 25,-3l2 -20 -13 -137c-25,5 -43,16 -65,10z"/>
  <path fill="#299A65" d="M6330 7108l-55 -4c4,46 20,117 16,159l277 -22c34,-3 28,-2 36,5 13,-13 33,-10 54,-11l-2 -101c-31,-16 -24,3 -20,-48 -10,16 -10,21 -11,41l-295 -19z"/>
  <path fill="#EA8C84" d="M8004 3122c24,22 41,50 63,76 24,-6 134,-115 160,-140l118 -105c15,-17 30,-22 38,-45 -12,-20 -34,-54 -47,-69 -24,11 -145,121 -167,140 -28,23 -54,47 -83,70 -24,19 -64,52 -82,73z"/>
  <path fill="#FCA397" d="M7931 1881c52,31 124,-65 148,-97 41,-58 74,-124 38,-204 -34,-23 -61,3 -81,24 -20,22 -27,55 -39,88 -17,46 -59,145 -66,189z"/>
  <path fill="#FDA599" d="M2400 2491c33,3 84,22 125,28 47,8 94,12 142,14l-9 -73c-58,-8 -90,-10 -142,-32 -19,-9 -40,-20 -55,-30 -24,-14 -37,-17 -36,-52l-25 145z"/>
  <path fill="#FDFEFE" d="M7623 1891l-304 -49 27 23c32,22 68,41 108,51 59,14 131,8 169,-25z"/>
  <path fill="#253B5B" d="M7349 1296l-4 5c8,18 -11,4 19,15l77 24c32,12 62,37 87,45 4,-48 -24,-78 -53,-95 -47,-26 -85,-8 -126,6z"/>
  <path fill="#253B5B" d="M7628 1401c15,17 70,24 102,33 38,11 64,28 94,37 -5,-96 -124,-116 -196,-70z"/>
  <path fill="#253B5B" d="M2502 2050c13,-17 13,-77 74,-74 51,2 63,53 74,71 22,-44 -28,-100 -75,-101 -61,-3 -86,48 -73,104z"/>
  <path fill="#263C5C" d="M7766 1550c-23,16 -38,58 -87,40 -34,-12 -42,-45 -41,-92 -41,34 -9,101 26,117 60,28 97,-18 102,-65z"/>
  <path fill="#263C5C" d="M2784 2060c15,-27 14,-75 57,-75 20,-1 34,13 42,23 5,7 8,13 11,20 0,1 5,11 5,11 1,1 2,3 3,4 0,1 2,2 2,3l6 6c7,-144 -164,-122 -126,8z"/>
  <path fill="#FFC2B9" d="M2700 6176l-501 -91c50,433 89,900 350,1264 161,-337 153,-756 151,-1173z"/>
  <path fill="#263C5C" d="M7474 1456c-20,20 -37,59 -87,39 -38,-15 -36,-52 -40,-71 -3,-16 9,5 -6,-18 -18,51 -6,101 38,118 51,18 95,-19 95,-68z"/>
  <path fill="#4B4B4D" d="M2344 7380c-36,30 -157,216 -159,250 68,-23 448,-250 473,-295 3,-27 -28,-84 -43,-113 -11,-2 -6,-5 -35,13l-236 145z"/>
  <path fill="#4B4B4D" d="M4228 7091l7 98c92,32 453,56 560,48 -17,-30 -103,-75 -141,-96 -24,-13 -145,-78 -162,-78 -35,-12 -220,18 -264,28z"/>
 </g>
</svg>
