<svg width="4270" height="3820" xmlns="http://www.w3.org/2000/svg" clip-rule="evenodd">

 <g>
  <title>background</title>
  <rect fill="none" id="canvas_background" height="3822" width="4272" y="-1" x="-1"/>
 </g>
 <g>
  <title>Layer 1</title>
  <g opacity="0.9" id="Capa_x0020_1">
   <metadata transform="translate(0,11.11094856262207) translate(11.11094856262207,0) translate(11.11094856262207,0) translate(11.11094856262207,0) translate(11.11094856262207,0) translate(11.11094856262207,0) translate(11.11094856262207,0) translate(11.11094856262207,0) translate(11.11094856262207,0) translate(11.11094856262207,0) translate(-1444.42333984375,-577.7693481445312) translate(-1688.8642578125,-744.43359375) " id="CorelCorpID_0Corel-Layer"/>
   <path d="m333.710939,2132.908007c160,273 130,641 59,930c-23,96 -51,198 -30,308c24,133 114,240 205,301c166,113 355,114 492,4c120,-96 198,-265 319,-355c204,-152 482,-51 724,100c172,107 360,242 518,171c112,-49 181,-194 214,-353c15,-76 25,-160 61,-218c21,-34 51,-57 81,-75c278,-169 653,-14 921,-206c181,-129 284,-402 318,-696c34,-294 6,-610 -28,-921c-25,-221 -58,-458 -169,-640c-118,-193 -303,-282 -464,-268c-162,14 -302,118 -422,245c-151,159 -287,364 -482,412c-133,32 -278,-12 -419,-39c-236,-44 -469,-38 -700,-29c-221,9 -443,22 -649,98c-146,54 -258,171 -394,246c-89,48 -189,52 -271,118c-102,81 -190,233 -150,428c39,185 181,293 266,439l0,0z" fill="#E6E7E8" id="svg_1"/>
   <path id="svg_2" d="m1907.710939,2616.908007l714,-251l508,-182l-70,-185l-643,-1c-42,70 -88,133 -135,201c-28,39 -118,161 -148,189c-56,-50 -247,-330 -284,-392l-425,3c35,56 376,481 449,584c5,7 7,10 14,18c12,15 2,12 20,16z" stroke-width="29.5276" stroke="#AFAFAF" fill="#DDE9FE"/>
   <path id="svg_3" d="m1412.710939,2796.908007l495,-180c-18,-4 -8,-1 -20,-16c-7,-8 -9,-11 -14,-18c-73,-103 -414,-528 -449,-584l-216,1c-52,133 -101,264 -152,397c-22,55 -145,367 -150,399l506,1z" fill="#AFAFAF"/>
   <path id="svg_4" d="m1907.710939,2616.908007l-495,180l1543,0c-56,-72 -112,-145 -167,-218c-21,-28 -159,-208 -167,-213l-714,251z" fill="#DDE9FE"/>
   <path id="svg_5" d="m1857.710939,1022.908007c-17,-162 103,-291 246,-307c162,-17 289,103 305,244c19,163 -102,293 -244,308c-163,17 -291,-103 -307,-245zm-8,973c37,62 228,342 284,392c30,-28 120,-150 148,-189c47,-68 93,-131 135,-201c99,-169 152,-245 234,-436c127,-293 217,-638 29,-930c-115,-179 -326,-294 -546,-294c-100,0 -200,23 -278,61c-43,22 -70,37 -106,64c-44,33 -97,81 -129,122c-99,133 -146,267 -141,444c6,182 70,388 136,534c32,70 183,376 234,433z" stroke-width="59.0551" stroke="#AFAFAF" fill="#FEFEFE"/>
   <path id="svg_6" d="m2621.710939,2365.908007c8,5 146,185 167,213c55,73 111,146 167,218l407,-2l-233,-611l-508,182z" fill="#AFAFAF"/>
   <path id="svg_7" d="m1857.710939,1022.908007c16,142 144,262 307,245c142,-15 263,-145 244,-308c-16,-141 -143,-261 -305,-244c-143,16 -263,145 -246,307z" fill="#E6E7E8"/>
   <line id="svg_8" y2="1801.908007" x2="2965.710939" y1="391.908007" x1="1238.710939" stroke-linejoin="round" stroke-linecap="round" stroke-width="157.48" stroke="#FEFEFE" fill="none"/>
   <line id="svg_9" y2="1791.908007" x2="2961.710939" y1="381.908007" x1="1234.710939" stroke-linejoin="round" stroke-linecap="round" stroke-width="98.4252" stroke="#AFAFAF" fill="none"/>
  </g>
 </g>
</svg>