<svg width="4500" height="4000.0000000000005" xmlns="http://www.w3.org/2000/svg" clip-rule="evenodd">

 <g>
  <title>background</title>
  <rect fill="none" id="canvas_background" height="4002" width="4502" y="-1" x="-1"/>
 </g>
 <g>
  <title>Layer 1</title>
  <g id="Capa_x0020_1">
   <metadata transform="translate(-2999.906494140625,-1424.95556640625) " id="CorelCorpID_0Corel-Layer"/>
   <path d="m417.093506,1977.044434c160,274 130,642 59,930c-23,97 -51,199 -30,308c24,134 114,240 205,302c165,113 355,114 492,3c119,-95 198,-265 319,-355c204,-151 482,-50 724,101c172,107 360,241 518,171c112,-49 181,-194 214,-353c15,-77 25,-160 61,-218c21,-35 51,-57 81,-76c278,-168 653,-13 921,-205c181,-129 284,-403 318,-696c34,-294 6,-610 -28,-921c-25,-222 -58,-459 -169,-641c-118,-192 -303,-281 -464,-267c-162,14 -302,118 -422,245c-151,159 -287,363 -482,411c-133,33 -278,-12 -419,-38c-236,-45 -469,-39 -700,-29c-221,9 -443,21 -649,98c-146,54 -258,171 -394,245c-89,49 -189,53 -271,119c-102,81 -190,232 -150,427c39,186 181,294 266,439l0,0z" fill="#E6E7E8" id="svg_1"/>
   <path id="svg_2" d="m2635.093506,2536.044434c33,-149 222,-182 340,-109c69,43 64,56 70,109c-117,-21 -89,-87 -204,-88c-109,-1 -101,64 -206,88zm465,-478c29,-42 15,-11 44,-60c-60,-102 -115,-101 -51,-120c32,-9 72,45 113,70c71,-57 16,-46 116,-75c-29,104 -19,56 -76,125c55,69 46,21 76,124c-102,-28 -45,-17 -117,-74c-38,24 -199,152 -105,10zm-583,-60c104,175 70,78 49,114c-39,11 -53,-33 -111,-65c-42,39 -38,55 -115,72c30,-94 27,-54 76,-121c-51,-68 -47,-27 -75,-122c81,19 68,31 113,72c58,-30 75,-75 111,-64c40,30 -3,40 -48,114zm161,-607c-1081,231 -741,1837 322,1621c395,-79 748,-478 644,-982c-82,-396 -481,-743 -966,-639z" fill="#FEFEFF"/>
   <path id="svg_3" d="m4360.093506,3690.044434c-133,63 -230,117 -361,-7c-86,-83 -139,-182 -239,-242c-49,32 16,16 -57,0l-299,-46c-133,-15 -289,-19 -428,-24c-295,-10 -581,11 -870,43c-475,52 -1379,293 -531,550c842,256 2926,139 2847,-241c-14,-66 -19,-30 -38,-33l-24,0z" fill="#EFF4F9"/>
   <path id="svg_4" d="m3253.093506,1219.044434l0,0l10,-160l-2327,-4c-14,194 -23,1213 12,1326c144,36 657,14 854,15c5,-269 -30,-347 72,-599c131,-324 415,-555 752,-625c315,-65 399,36 627,47z" fill="#FEFEFF"/>
   <path id="svg_5" d="m2406.093506,1318.044434c230,-191 695,-100 927,28c215,119 433,385 477,720c123,943 -934,1283 -1218,1077c-129,1 -323,-120 -405,-197l-90,-89c-107,-112 -219,-330 -240,-550c-44,-442 240,-899 549,-989zm-1316,-971l673,1l188,327l1003,2c191,-1 258,-35 286,50c37,39 26,189 17,266l-2325,-2l13,-629l145,-15zm2291,2767c74,-115 554,-348 490,-1021c-57,-608 -553,-798 -618,-874c-228,-11 -312,-112 -627,-47c-337,70 -621,301 -752,625c-102,252 -67,330 -72,599c-197,-1 -710,21 -854,-15c-35,-113 -26,-1132 -12,-1326l2327,4l-10,160l69,-12c4,-843 131,-526 -1321,-587l-199,-329l-673,-2l-236,26c-47,181 -47,1968 7,2114c168,62 693,23 920,30c147,360 252,528 556,682c499,253 838,-12 1005,-27z" fill="#AFAFAF"/>
   <path id="svg_6" d="m3240.093506,727.044434c-28,-85 -95,-51 -286,-50l-1003,-2l-188,-327l-673,-1c60,153 -22,377 37,517c49,65 968,32 1038,32c356,0 712,0 1068,0l7,-169z" fill="#DBE7FF"/>
   <path id="svg_7" d="m1129.093506,289.044434l673,2l199,329c1452,61 1325,-256 1321,587l-69,12l0,0c65,76 561,266 618,874c64,673 -416,906 -490,1021c78,-15 -15,6 71,-31c76,-33 2,-12 94,-32l12,-37c71,32 68,29 107,13l2,-30c-2,-10 -13,-47 -17,-57l54,-18c24,-102 151,-126 236,-412c79,-265 59,-568 -76,-813c-145,-263 -267,-312 -506,-454l-8,-344l161,-15c38,-98 34,-253 0,-344c-66,-89 -1150,-44 -1322,-51l-175,-323c-166,-14 -336,-6 -503,-6c-172,0 -403,-54 -382,129z" fill="#DCE8FF"/>
   <path id="svg_8" d="m2406.093506,1318.044434l-14,18c-16,28 -68,75 -100,111c-36,41 -58,63 -105,122c141,-91 227,-179 443,-234c190,-48 380,-25 553,50c254,110 502,367 531,730c54,660 -618,1279 -1412,801c61,104 183,197 335,215l-45,12c284,206 1341,-134 1218,-1077c-44,-335 -262,-601 -477,-720c-232,-128 -697,-219 -927,-28z" fill="#E1EAFE"/>
   <path id="svg_9" d="m3240.093506,727.044434l-7,169c-356,0 -712,0 -1068,0c-70,0 -989,33 -1038,-32c-59,-140 23,-364 -37,-517l-145,15l-13,629l2325,2c9,-77 20,-227 -17,-266z" fill="#FDFDFE"/>
   <path id="svg_10" d="m2678.093506,1391.044434c485,-104 884,243 966,639c104,504 -249,903 -644,982c-1063,216 -1403,-1390 -322,-1621zm-491,178c-11,47 -128,180 -172,301c-46,125 -76,273 -59,422c36,314 191,495 346,624c794,478 1466,-141 1412,-801c-29,-363 -277,-620 -531,-730c-173,-75 -363,-98 -553,-50c-216,55 -302,143 -443,234z" fill="#AFAFAF"/>
   <path id="svg_11" d="m3963.093506,3561.044434c34,31 61,50 97,83c158,149 294,0 268,-128c-5,-24 -353,-506 -517,-496c-89,5 -156,80 -147,175c7,71 247,317 299,366z" fill="#FEFEFF"/>
   <path id="svg_12" d="m2592.093506,3143.044434l45,-12c-152,-18 -274,-111 -335,-215c-155,-129 -310,-310 -346,-624c-17,-149 13,-297 59,-422c44,-121 161,-254 172,-301c47,-59 69,-81 105,-122c32,-36 84,-83 100,-111l14,-18c-309,90 -593,547 -549,989c21,220 133,438 240,550l90,89c82,77 276,198 405,197z" fill="#FDFDFE"/>
   <path id="svg_13" d="m3664.093506,3195.044434c-9,-95 58,-170 147,-175c164,-10 512,472 517,496c26,128 -110,277 -268,128c-36,-33 -63,-52 -97,-83c-52,-49 -292,-295 -299,-366zm-118,-144c114,122 17,102 87,232c20,37 51,56 75,82c45,48 30,24 52,76c100,60 153,159 239,242c131,124 228,70 361,7c9,-68 -1,8 17,-64c47,-190 -42,-215 -201,-391c-189,-210 -210,-283 -449,-271l-23,-42l-54,18c4,10 15,47 17,57l-2,30c-39,16 -36,19 -107,-13l-12,37z" stroke-width="3" stroke="#AFAFAF" fill="#AFAFAF"/>
   <rect id="svg_14" height="872" width="1208" y="1741.044434" x="2199.093506" fill="#FEFEFE"/>
   <path id="svg_15" d="m4173.093506,298.044434c-13,46 49,18 -89,30c-79,6 -39,-5 -119,20l91,19c36,1 82,-2 120,-2c-1,80 -12,129 17,190c19,-73 8,-61 16,-120c9,-66 -16,-55 34,-66c37,-2 75,1 109,-1c115,-5 64,17 110,-42c-45,3 -91,4 -136,3c-122,-2 -73,16 -86,-28c-49,-13 -27,35 -31,-85c-2,-58 -1,-83 -9,-144c-41,71 -24,132 -27,226z" fill="#AFAFAF"/>
   <path id="svg_16" d="m2635.093506,2390.044434c105,24 97,89 206,88c115,-1 87,-67 204,-88c-6,53 -1,66 -70,109c-118,73 -307,40 -340,-109z" fill="#AFAFAF"/>
   <path id="svg_17" d="m-72.906494,436.044434l-2,30l121,-7l41,105c3,5 8,12 12,17l-8,-115l137,-5l-1,-21l-132,-5l-5,-130l-23,-6l-1,137l-139,0z" fill="#AFAFAF"/>
   <path id="svg_18" d="m4240.093506,301.044434l212,1c-72,-33 -105,-20 -199,-18c8,-84 23,-140 -18,-206l5,223z" fill="#CACCD7"/>
   <path id="svg_19" d="m4240.093506,301.044434l-5,-223l-35,-6c8,61 7,86 9,144c4,120 -18,72 31,85z" fill="#AFAFAF"/>
   <path id="svg_20" d="m4193.093506,555.044434l45,11l5,-197c-50,11 -25,0 -34,66c-8,59 3,47 -16,120z" fill="#AFAFAF"/>
   <path id="svg_21" d="m3965.093506,348.044434c80,-25 40,-14 119,-20c138,-12 76,16 89,-30l-220,4l12,46z" fill="#AFAFAF"/>
   <path id="svg_22" d="m4462.093506,326.044434l-10,-24l-212,-1c13,44 -36,26 86,28c45,1 91,0 136,-3z" stroke-width="3" stroke="#AFAFAF" fill="#AFAFAF"/>
   <path id="svg_23" d="m99.093506,581.044434c-4,-5 -9,-12 -12,-17l-41,-105l-121,7l120,13l12,107c91,39 18,11 42,-5z" fill="#AEB2C2"/>
   <path id="svg_24" d="m227.093506,440.044434c-26,-18 -2,-16 -48,-23c-24,-4 -53,-3 -78,-3c11,-79 21,-48 -11,-109l5,130l132,5z" fill="#CACDD8"/>
   <path id="svg_25" d="m-72.906494,436.044434l139,0l1,-137c-10,19 -15,11 -20,51c-3,27 0,46 1,73l-121,13z" stroke-width="3" stroke="#AFAFAF" fill="#AEB2C2"/>
   <path id="svg_26" d="m99.093506,581.044434l2,-96c28,1 51,3 78,-1c46,-7 25,-7 49,-23l-137,5l8,115z" fill="#C6C8D4"/>
   <polygon id="svg_27" points="4989.093505859375,5417.04443359375 5025.093505859375,5417.04443359375 5025.093505859375,5387.04443359375 5000.093505859375,5387.04443359375 4989.093505859375,5391.04443359375 " fill="#1E2429"/>
   <path id="svg_28" d="m5502.093506,5417.044434l47,0c-10,-24 -9,-23 -39,-22l-8,22z" fill="#1E2429"/>
   <ellipse id="svg_29" ry="124" rx="129" cy="1998.044434" cx="2517.093506" stroke-width="7.87402" stroke="#AFAFAF" fill="#AFAFAF"/>
   <ellipse id="svg_30" ry="124" rx="130" cy="1991.044434" cx="3156.093506" stroke-width="7.87402" stroke="#AFAFAF" fill="#AFAFAF"/>
  </g>
 </g>
</svg>