<svg width="4350" height="3910.0000000000005" xmlns="http://www.w3.org/2000/svg" clip-rule="evenodd">

 <g>
  <title>background</title>
  <rect fill="none" id="canvas_background" height="3912" width="4352" y="-1" x="-1"/>
 </g>
 <g>
  <title>Layer 1</title>
  <g id="Capa_x0020_1">
   <metadata transform="translate(-179.9998779296875,59.99995803833008) translate(-3159.7080078125,-579.9464111328125) " id="CorelCorpID_0Corel-Layer"/>
   <path d="m348.292114,2026.053547c160,274 130,642 60,930c-24,97 -51,199 -31,308c25,134 114,240 205,302c166,113 355,114 493,3c119,-95 197,-265 319,-355c203,-151 481,-50 724,101c171,107 359,241 518,171c111,-49 181,-194 213,-353c16,-77 25,-160 61,-218c22,-35 51,-57 81,-76c278,-168 654,-13 922,-205c181,-129 284,-402 317,-696c34,-294 7,-610 -28,-921c-25,-222 -58,-459 -169,-640c-118,-193 -303,-282 -464,-268c-161,14 -301,118 -422,245c-151,159 -287,363 -482,411c-133,33 -278,-12 -419,-38c-236,-45 -468,-39 -699,-29c-221,9 -444,21 -650,98c-146,54 -258,171 -394,245c-88,49 -188,53 -271,119c-102,81 -190,232 -149,427c38,186 180,294 265,439l0,0z" fill="#E6E7E8" id="svg_1"/>
   <path id="svg_2" d="m720.292114,1323.053547c-1,52 -2,123 8,175c14,16 75,48 97,63c0,9 -4,79 -9,91l-60,-12l7,32c36,170 175,364 265,484c188,251 467,502 706,682c67,50 128,95 192,144l195,143c17,7 129,94 148,101l108,-91c11,-14 262,-238 307,-282c11,-10 34,-33 45,-40l184,-181c14,-15 47,-52 61,-61l306,-377c32,-43 110,-164 131,-202c9,-17 21,-35 30,-53c8,-17 18,-34 29,-53c55,-100 107,-235 124,-351c14,-92 17,-181 6,-281c-25,-222 -105,-389 -222,-544c-12,10 -17,49 -28,65c-10,-5 -35,-28 -45,-37c-8,-7 -12,-11 -21,-18c-26,-20 -16,-39 -16,-96c1,-29 -18,-33 -32,-54c-5,-5 -16,-13 -23,-18c-12,-9 -15,-7 -24,-19l-95,-53c-165,-84 -340,-101 -529,-57c-154,50 -259,112 -345,213l38,113l20,55c-12,9 -24,27 -33,38c-10,15 -21,28 -31,41c-20,28 -41,53 -60,80c-20,27 -41,52 -61,80c-10,14 -54,68 -59,79c25,25 221,165 238,184c-9,11 -148,159 -163,168c12,22 195,218 223,256c26,26 19,20 -4,95l-220,708c-1,0 -1,1 -1,2c-1,0 -1,1 -1,2l116,-711c-18,-20 -47,-35 -62,-56c-16,-8 -113,-95 -135,-114c-24,-21 -45,-38 -67,-58l-68,-59l-24,-20l23,-19l221,-180l-170,-186l78,-133c10,-17 16,-25 27,-43c19,-28 32,-61 51,-88c13,-18 18,-27 27,-44c21,-35 22,-27 10,-48c-22,-41 -35,-61 -63,-93c-12,-14 -24,-24 -38,-36c-108,-92 -208,-114 -225,-127l-106,-30c-117,-26 -242,-37 -364,-6c-209,45 -349,159 -462,322c-97,141 -148,335 -155,515z" stroke-width="59.0551" stroke="#AFAFAF" fill="#FEFEFF"/>
   <g id="_3012533488288">
    <path id="svg_3" d="m1801.292114,2165.053547c342,59 383,7 680,-25c-5,306 -373,492 -576,318c-111,-57 -194,-171 -202,-348l98,55zm601,338c118,-114 181,-223 158,-437c-192,-15 -418,81 -681,15c-25,-6 -106,-34 -122,-36c-4,0 -78,-25 -123,26c-166,326 371,728 768,432z" fill="#AFAFAF"/>
    <path id="svg_4" d="m1801.292114,2165.053547c26,92 18,108 72,178c98,128 130,57 32,115c203,174 571,-12 576,-318c-297,32 -338,84 -680,25z" fill="#DDE9FE"/>
    <path id="svg_5" d="m2418.292114,1498.053547c61,-115 34,-110 123,-233c282,-30 211,112 313,252c89,-147 -29,-305 -178,-330c-149,-24 -271,84 -291,176c-47,226 15,110 33,135z" fill="#AFAFAF"/>
    <path id="svg_6" d="m1368.292114,1467.053547c6,-8 14,-29 16,-24c2,5 12,-18 14,-24c1,-3 72,-313 294,-172c58,36 55,148 122,234c85,-179 -55,-325 -213,-331c-130,-5 -239,107 -256,184c-37,164 16,120 23,133z" fill="#AFAFAF"/>
    <path id="svg_7" d="m2402.292114,2503.053547c185,10 282,-165 313,-368c-67,-38 -46,-56 -101,17c1,-18 -16,-63 -22,-50c-4,12 -22,-23 -32,-36c23,214 -40,323 -158,437z" fill="#DDE9FE"/>
    <path id="svg_8" d="m1905.292114,2458.053547c98,-58 66,13 -32,-115c-54,-70 -46,-86 -72,-178l-98,-55c8,177 91,291 202,348z" fill="#FBFDFE"/>
   </g>
  </g>
 </g>
</svg>