<svg width="4260" height="4660" xmlns="http://www.w3.org/2000/svg" clip-rule="evenodd">

 <g>
  <title>background</title>
  <rect fill="none" id="canvas_background" height="4662" width="4262" y="-1" x="-1"/>
 </g>
 <g>
  <title>Layer 1</title>
  <g id="Capa_x0020_1">
   <metadata transform="translate(-1118.4080810546875,-9.092748641967773) " id="CorelCorpID_0Corel-Layer"/>
   <path d="m323.591919,2909.907251c160,274 130,641 59,930c-23,96 -50,198 -30,308c24,133 114,240 205,302c166,112 355,113 493,3c119,-96 197,-265 318,-355c204,-152 482,-51 724,100c172,107 360,242 519,171c111,-49 180,-194 213,-353c16,-76 25,-160 61,-218c21,-34 51,-57 81,-75c278,-168 654,-14 922,-206c180,-129 283,-402 317,-696c34,-294 7,-610 -28,-921c-25,-221 -58,-458 -169,-640c-118,-193 -303,-282 -464,-268c-161,15 -301,118 -422,245c-151,159 -287,364 -482,412c-133,32 -278,-12 -419,-39c-236,-44 -468,-38 -699,-29c-221,9 -444,22 -650,98c-146,54 -258,171 -394,246c-88,48 -189,53 -271,118c-102,81 -190,233 -149,428c38,185 180,293 265,439l0,0z" fill="#E6E7E8" id="svg_1"/>
   <g id="_3012534552096">
    <path id="svg_2" d="m2300.591919,4020.907251c298,-59 778,-206 1105,-292c83,-22 295,-41 336,-111l0,-1587c-334,73 -758,200 -1105,293c-70,18 -324,69 -336,111l0,1586z" fill="#FEFEFF"/>
    <polygon id="svg_3" points="839.5919189453125,1993.9072513580322 2267.5919189453125,2377.907251358032 2268.5919189453125,1615.9072513580322 " fill="#DDE9FE"/>
    <path id="svg_4" d="m2764.591919,2061.907251c-22,-20 -42,-9 -39,-82c79,19 40,80 39,82zm-37,-114c-48,-30 -65,-39 -43,-88c14,12 13,-1 30,37c14,31 6,21 13,51zm-69,-213c20,32 29,54 10,88c-5,-4 -27,-4 -30,-46c-5,-75 2,-23 20,-42zm20,-21c-54,-10 -52,-4 -93,-30l-284,-69l-1,761l1428,-377l-1050,-285z" fill="#DDE9FE"/>
    <path id="svg_5" d="m2300.591919,4020.907251l0,-1586c12,-42 266,-93 336,-111c347,-93 771,-220 1105,-293l0,1587c-41,70 -253,89 -336,111c-327,86 -807,233 -1105,292zm-1472,-403l0,-1587c315,69 759,199 1092,289c73,20 336,72 348,115l0,1586c-283,-56 -776,-204 -1092,-289l-315,-85c-58,-31 2,1 -33,-29zm1440,-2002l-1,762l-1428,-384l1429,-378zm-1472,1736l-1,316c227,40 516,137 746,195c1008,256 478,256 1486,0c231,-58 520,-156 746,-195l0,-316l0,-1383c-163,-28 -376,-97 -544,-141c-125,-33 -456,-139 -561,-139l-24,9c39,0 34,-12 34,16l1050,285l-1428,377l1,-761l284,69l40,0c-100,-13 -20,2 -53,-29c-56,-22 -138,-39 -203,-57c-113,-31 -108,-16 -221,14c-153,42 -302,79 -455,121l-898,236l1,1383z" stroke-width="29.5276" stroke="#AFAFAF" fill="#AFAFAF"/>
    <path id="svg_6" d="m2322.591919,498.907251c2,4 35,-40 -1,29c-43,-14 -6,-6 -26,-25c-25,-42 -45,-60 -56,-119c49,29 61,62 83,115zm74,35c-78,-38 -197,-333 -2,-290c96,21 30,92 66,161c0,0 115,118 -64,129zm-152,-216c-16,-74 -16,-126 69,-111l-69,111zm-38,4c-48,-8 -54,-20 -93,4l92,31c19,310 408,256 295,41c-59,-113 47,-126 -124,-197c-125,-51 -174,-44 -170,121z" fill="#AFAFAF"/>
    <path id="svg_7" d="m2396.591919,533.907251c179,-11 64,-129 64,-129c-36,-69 30,-140 -66,-161c-195,-43 -76,252 2,290z" fill="#DDE9FE"/>
    <path id="svg_8" d="m2572.591919,1654.907251c33,31 -47,16 53,29l-40,0c41,26 39,20 93,30c0,-28 5,-16 -34,-16l24,-9c-17,-30 -22,-47 -33,-81c-21,18 -9,12 -22,21c-3,2 -8,6 -11,8l-30,18z" fill="#AFAFAF"/>
    <path id="svg_9" d="m2720.591919,1205.907251c45,-9 11,1 44,-17c4,-3 15,-11 19,-13l21,-13c2,-2 7,-4 11,-6c-27,-39 -11,-30 -67,-51l-28,100z" fill="#AFAFAF"/>
    <path id="svg_10" d="m2244.591919,317.907251l69,-111c-85,-15 -85,37 -69,111z" fill="#DDE9FE"/>
    <path id="svg_11" d="m2295.591919,502.907251l27,-4c-22,-53 -34,-86 -83,-115c11,59 31,77 56,119z" fill="#F7F6FB"/>
    <path id="svg_12" d="m2764.591919,2061.907251c1,-2 40,-63 -39,-82c-3,73 17,62 39,82z" fill="#AFAFAF"/>
    <path id="svg_13" d="m3305.591919,1074.907251c4,-5 37,20 17,-41c-11,-35 -26,-31 -54,-45c15,54 13,45 37,86z" fill="#AFAFAF"/>
    <path id="svg_14" d="m2668.591919,1822.907251c19,-34 10,-56 -10,-88c-18,19 -25,-33 -20,42c3,42 25,42 30,46z" fill="#AFAFAF"/>
    <path id="svg_15" d="m2620.591919,1571.907251c9,-11 24,33 21,-48c-2,-60 -17,-37 -21,-40c-27,44 -19,54 0,88z" stroke-width="3" stroke="#AFAFAF" fill="#AFAFAF"/>
    <path id="svg_16" d="m3155.591919,948.907251c8,8 -23,10 36,26c70,18 49,-9 52,-10c-30,-26 -46,-39 -88,-16z" fill="#AFAFAF"/>
    <path id="svg_17" d="m2960.591919,1251.907251c11,17 -26,14 31,31c47,14 24,4 56,-1c-24,-27 -42,-50 -87,-30z" fill="#AFAFAF"/>
    <path id="svg_18" d="m2926.591919,1241.907251c-21,-51 -1,-39 -84,-60c22,50 0,39 84,60z" fill="#AFAFAF"/>
    <path id="svg_19" d="m3299.591919,1204.907251c40,-26 18,30 38,-38c14,-46 -8,-45 -12,-51c-29,35 -22,39 -26,89z" fill="#AFAFAF"/>
    <path id="svg_20" d="m2914.591919,1039.907251c23,-1 16,9 47,-7c35,-18 15,-7 34,-36c-11,-4 -5,-25 -50,2c-19,12 -23,22 -31,41z" fill="#AFAFAF"/>
    <path id="svg_21" d="m2477.591919,787.907251c-9,-57 -13,-63 -64,-79c14,50 10,58 64,79z" fill="#AFAFAF"/>
    <path id="svg_22" d="m2636.591919,1441.907251c29,-48 24,-37 13,-88c-10,10 -20,13 -25,32c-26,94 7,49 12,56z" stroke-width="3" stroke="#AFAFAF" fill="#AFAFAF"/>
    <path id="svg_23" d="m2555.591919,886.907251c-15,-49 -20,-55 -59,-76c-1,65 9,66 59,76z" fill="#AFAFAF"/>
    <path id="svg_24" d="m2634.591919,985.907251c-16,-54 -5,-46 -69,-74c17,55 9,56 69,74z" fill="#AFAFAF"/>
    <path id="svg_25" d="m2652.591919,1320.907251c35,-15 20,1 42,-29c13,-17 13,-31 16,-50c-31,6 -16,-8 -36,17c-15,19 -16,39 -22,62z" fill="#AFAFAF"/>
    <path id="svg_26" d="m2727.591919,1947.907251c-7,-30 1,-20 -13,-51c-17,-38 -16,-25 -30,-37c-22,49 -5,58 43,88z" fill="#AFAFAF"/>
    <path id="svg_27" d="m3081.591919,1283.907251c35,30 -53,20 37,23c105,3 20,4 47,-23c-47,-18 -41,-16 -84,0z" fill="#AFAFAF"/>
    <path id="svg_28" d="m3218.591919,1292.907251c59,-20 54,-10 73,-57c-49,7 -74,7 -73,57z" fill="#AFAFAF"/>
    <path id="svg_29" d="m2814.591919,1122.907251c54,-16 58,-17 76,-64c-56,10 -65,18 -76,64z" fill="#AFAFAF"/>
    <path id="svg_30" d="m3027.591919,968.907251c41,28 41,13 92,2c-37,-37 44,-31 -48,-24c-8,1 -44,22 -44,22z" fill="#AFAFAF"/>
    <path id="svg_31" d="m2711.591919,1085.907251c-1,-49 -20,-57 -63,-76c16,55 13,56 63,76z" fill="#AFAFAF"/>
    <path id="svg_32" d="m2322.591919,498.907251l-27,4c20,19 -17,11 26,25c36,-69 3,-25 1,-29z" fill="#AFAFAF"/>
    <g id="svg_33">
     <path id="svg_34" d="m1283.591919,3223.907251c232,79 267,47 477,57c-37,213 -313,302 -436,159c-71,-52 -116,-141 -102,-265l61,49zm383,301c94,-66 150,-135 158,-287c-133,-32 -300,11 -477,-64c-17,-7 -70,-35 -81,-38c-3,-1 -52,-26 -89,4c-151,209 180,548 489,385z" fill="#AFAFAF"/>
     <path id="svg_35" d="m1283.591919,3223.907251c8,67 1,77 31,132c55,100 85,54 10,84c123,143 399,54 436,-159c-210,-10 -245,22 -477,-57z" fill="#DDE9FE"/>
     <path id="svg_36" d="m1786.591919,2825.907251c55,-73 36,-73 112,-148c199,9 134,100 190,209c78,-93 13,-216 -88,-249c-101,-34 -198,29 -222,90c-58,153 -1,79 8,98z" fill="#AFAFAF"/>
     <path id="svg_37" d="m1058.591919,2690.907251c5,-5 13,-19 14,-15c0,3 9,-12 12,-16c1,-1 84,-210 223,-88c37,32 23,109 60,176c79,-115 -3,-232 -113,-253c-90,-17 -178,48 -198,100c-44,110 -2,85 2,96z" fill="#AFAFAF"/>
     <path id="svg_38" d="m1666.591919,3524.907251c128,27 215,-84 258,-223c-43,-33 -26,-44 -72,2c2,-13 -5,-46 -10,-38c-4,8 -13,-18 -18,-28c-8,152 -64,221 -158,287z" fill="#DDE9FE"/>
     <path id="svg_39" d="m1324.591919,3439.907251c75,-30 45,16 -10,-84c-30,-55 -23,-65 -31,-132l-61,-49c-14,124 31,213 102,265z" fill="#FBFDFE"/>
    </g>
   </g>
  </g>
 </g>
</svg>