<svg width="799.70314" height="437.18766" xmlns="http://www.w3.org/2000/svg">

 <g>
  <title>background</title>
  <rect fill="none" id="canvas_background" height="439.18766" width="801.70314" y="-1" x="-1"/>
 </g>
 <g>
  <title>Layer 1</title>
  <rect id="svg_1" fill="#e6e6e6" height="412.35762" width="643.86161" y="0.36501" x="0.27492"/>
  <rect id="svg_2" fill="#fff" height="336.24258" width="607.03946" y="52.08494" x="18.68599"/>
  <rect id="svg_3" fill="#ffffff" height="27.3536" width="643.86161"/>
  <circle id="svg_4" fill="#fff" r="5.06978" cy="13.98461" cx="20.327"/>
  <circle id="svg_5" fill="#fff" r="5.06978" cy="13.98461" cx="39.57061"/>
  <circle id="svg_6" fill="#fff" r="5.06978" cy="13.98461" cx="58.81422"/>
  <rect id="svg_7" fill="#e6e6e6" height="266.46676" width="155.98054" y="86.97284" x="73.84385"/>
  <rect id="svg_8" fill="#ffffff" height="73.34799" width="129.98379" y="86.97284" x="256.74961"/>
  <rect id="svg_9" fill="#e6e6e6" height="78.91873" width="129.98379" y="180.74686" x="256.74961"/>
  <rect id="svg_10" fill="#e6e6e6" height="73.34799" width="129.98379" y="280.09161" x="256.74961"/>
  <rect id="svg_11" fill="#e6e6e6" height="116.12476" width="155.98054" y="86.97284" x="414.58706"/>
  <rect id="svg_12" fill="#ffffff" height="116.12476" width="155.98054" y="237.31485" x="414.58706"/>
  <path id="svg_22" fill="#ffffff" d="m663.068342,267.305716l-4.3679,-3.52126s-3.6321,-1.47874 -6.6321,3.52126s-18,36 -18,36l18,9l11,-45z"/>
  <path id="svg_27" fill="#3f3d56" d="m597.579993,83.546366a135.01972,135.01972 0 1 0 7.65506,199.40281l165.61814,139.74775a12.44209,12.44209 0 1 0 16.04759,-19.01834l-165.61814,-139.74776a135.02731,135.02731 0 0 0 -23.70265,-180.38446zm-10.67672,166.92767a101.15766,101.15766 0 1 1 -12.07656,-142.54785a101.15764,101.15764 0 0 1 12.07656,142.54785z"/>
  <path id="svg_28" opacity="0.3" d="m444.355343,262.550686a101.16313,101.16313 0 0 1 -17.16557,-135.98894q-2.90123,2.92175 -5.60938,6.1199a101.15766,101.15766 0 1 0 154.62445,130.47133q2.702,-3.20223 5.089,-6.559a101.163,101.163 0 0 1 -136.9385,5.95671z"/>
 </g>
</svg>