<svg width="5000" height="4000" xmlns="http://www.w3.org/2000/svg" clip-rule="evenodd">

 <g>
  <title>background</title>
  <rect fill="none" id="canvas_background" height="4002" width="5002" y="-1" x="-1"/>
 </g>
 <g>
  <title>Layer 1</title>
  <g id="Capa_x0020_1">
   <metadata transform="translate(-2783.420654296875,-1216.704833984375) " id="CorelCorpID_0Corel-Layer"/>
   <g id="_2871100933760">
    <path d="m583.579346,2227.295166c160,273 130,641 59,930c-23,96 -51,198 -30,308c24,133 114,240 205,301c166,113 355,114 492,4c120,-96 198,-265 319,-355c204,-152 482,-51 724,100c172,107 360,242 518,171c112,-49 181,-194 214,-353c15,-76 25,-160 61,-218c21,-34 51,-57 81,-75c278,-169 653,-14 921,-206c181,-129 284,-402 318,-696c34,-294 6,-610 -28,-921c-25,-221 -58,-458 -169,-640c-118,-193 -303,-282 -464,-268c-162,14 -302,118 -422,245c-151,159 -287,364 -482,412c-133,32 -278,-12 -419,-39c-236,-44 -469,-38 -700,-29c-221,9 -443,22 -649,98c-146,54 -258,171 -394,246c-89,48 -189,52 -271,118c-102,81 -190,233 -150,428c39,185 181,293 266,439l0,0z" fill="#E6E7E8" id="svg_1"/>
    <g id="svg_2">
     <path id="svg_3" d="m2539.579346,2197.295166c7,8 21,33 24,24c3,-9 16,22 16,35c37,-53 22,-40 71,-14c-17,143 -82,269 -213,266c-274,218 -661,-54 -551,-288c31,-37 84,-21 86,-21c11,1 69,20 87,23c187,41 344,-32 480,-25zm-113,-398c-13,-17 -55,66 -26,-95c12,-65 96,-144 201,-130c106,14 193,123 133,229c-75,-97 -28,-198 -226,-171c-60,89 -41,84 -82,167zm-741,1c-5,-9 -42,23 -19,-93c10,-55 84,-136 176,-135c112,0 214,100 158,228c-49,-59 -50,-138 -91,-162c-160,-94 -203,126 -204,128c-1,4 -8,21 -9,17c-1,-3 -7,12 -11,17zm966,-995c-336,-127 -567,-166 -903,13c-678,364 -546,1039 -553,1626c-6,454 -155,510 -260,842l2546,-1c-92,-298 -256,-399 -260,-818l-2,-812c-24,-398 -214,-104 -444,-395c-115,-145 -100,-245 -124,-455z" fill="#FEFEFE"/>
     <path id="svg_4" d="m640.579346,3863.295166l3146,0c52,-139 -8,-178 -136,-238c-258,-121 -642,-169 -933,-191c-259,-20 -97,56 -172,-2c-109,114 -145,203 -365,198c-237,-5 -217,-115 -321,-244l-17,45c-191,-12 -568,48 -763,91c-168,38 -525,112 -439,341z" fill="#F0F4FA"/>
     <path id="svg_5" d="m1932.579346,3344.295166l550,-1c-28,132 -125,233 -280,228c-164,-5 -230,-97 -270,-227zm719,-2539c24,210 9,310 124,455c230,291 420,-3 444,395l2,812c4,419 168,520 260,818l-2546,1c105,-332 254,-388 260,-842c7,-587 -125,-1262 553,-1626c336,-179 567,-140 903,-13zm438,-331c100,-84 320,26 388,82c81,66 166,194 168,357c4,402 -405,529 -572,451c-511,-83 -444,-873 16,-890zm-854,-108c147,52 138,90 137,277l-282,0l-48,2c-3,-166 10,-287 193,-279zm-376,3020c104,129 84,239 321,244c220,5 256,-84 365,-198l2,-81l777,-7c348,4 254,-42 79,-393c-73,-146 -115,-255 -122,-439c-7,-184 -1,-378 -1,-563c0,-185 -19,-341 -24,-510l183,-45c57,-86 100,-70 168,-175c247,-381 -43,-639 -85,-719c-146,-56 -292,-159 -512,-84c-206,69 -263,213 -338,326l-127,-52l-111,-31c-7,-295 -7,-202 -145,-362c-295,36 -301,64 -306,372c-273,45 -495,218 -607,362c-512,656 3,1196 -389,1974c-36,71 -162,269 -110,319c111,59 371,19 517,19c89,0 180,1 269,0c253,-4 213,-16 196,43z" fill="#AFAFAF"/>
     <path id="svg_6" d="m3073.579346,1364.295166c87,-39 -33,11 -159,-176c-137,-203 -109,-597 259,-717l-84,3c-460,17 -527,807 -16,890z" fill="#FEFEFE"/>
     <path id="svg_7" d="m2006.579346,2283.295166c242,34 270,-4 479,-32c3,215 -252,355 -399,237c-80,-38 -141,-117 -150,-242l70,37zm431,225c81,-83 123,-161 102,-311c-136,-7 -293,66 -480,25c-18,-3 -76,-22 -87,-23c-2,0 -55,-16 -86,21c-110,234 277,506 551,288z" fill="#AFAFAF"/>
     <path id="svg_8" d="m1932.579346,3344.295166c40,130 106,222 270,227c155,5 252,-96 280,-228l-550,1z" fill="#FEFEFE"/>
     <path id="svg_9" d="m3118.579346,702.295166c212,-150 266,336 130,428c-163,110 -234,-139 -200,-307c15,-74 28,-91 70,-121zm-13,-63c-130,52 -144,201 -125,355c17,139 125,269 286,200c213,-90 173,-689 -161,-555z" fill="#AFAFAF"/>
     <path id="svg_10" d="m2006.579346,2283.295166c20,64 15,76 54,124c73,88 94,37 26,81c147,118 402,-22 399,-237c-209,28 -237,66 -479,32z" fill="#DDE9FE"/>
     <path id="svg_11" d="m135.579346,2174.295166c67,30 140,-34 224,-66c-18,142 -72,288 -69,436c79,-17 120,-40 187,-74c82,-40 124,-34 119,-99c-12,-4 11,-38 -124,27c-43,20 -61,31 -107,44c24,-143 74,-288 67,-435c-74,19 -103,38 -171,67c-119,52 -110,36 -126,100z" fill="#AFAFAF"/>
     <path id="svg_12" d="m2090.579346,643.295166l282,0c1,-187 10,-225 -137,-277c-14,11 -176,56 -98,225l-47,52z" fill="#DDE9FE"/>
     <path id="svg_13" d="m604.579346,324.295166c-92,5 -154,-13 -226,26c46,74 -13,32 227,46c2,86 -15,134 25,202c70,-41 41,-107 44,-205c36,0 109,5 139,3c121,-10 58,13 86,-57l-224,-15c-5,-100 26,-181 -45,-226c-41,72 -23,133 -26,226z" fill="#AFAFAF"/>
     <path id="svg_14" d="m2545.579346,690.295166c30,-280 17,-363 -256,-393c138,160 138,67 145,362l111,31z" fill="#DDE9FE"/>
     <path id="svg_15" d="m2426.579346,1799.295166c41,-83 22,-78 82,-167c198,-27 151,74 226,171c60,-106 -27,-215 -133,-229c-105,-14 -189,65 -201,130c-29,161 13,78 26,95z" fill="#AFAFAF"/>
     <path id="svg_16" d="m4312.579346,3160.295166c-205,-70 13,-291 85,-85c-26,68 -17,59 -85,85zm-99,14c79,25 118,25 196,-1c27,-80 27,-117 1,-197c-77,-27 -120,-27 -198,-2c-25,80 -25,121 1,200z" fill="#AFAFAF"/>
     <path id="svg_17" d="m1685.579346,1800.295166c4,-5 10,-20 11,-17c1,4 8,-13 9,-17c1,-2 44,-222 204,-128c41,24 42,103 91,162c56,-128 -46,-228 -158,-228c-92,-1 -166,80 -176,135c-23,116 14,84 19,93z" fill="#AFAFAF"/>
     <path id="svg_18" d="m2437.579346,2508.295166c131,3 196,-123 213,-266c-49,-26 -34,-39 -71,14c0,-13 -13,-44 -16,-35c-3,9 -17,-16 -24,-24c21,150 -21,228 -102,311z" fill="#DDE9FE"/>
     <path id="svg_19" d="m4312.579346,3160.295166c68,-26 59,-17 85,-85c-72,-206 -290,15 -85,85z" fill="#AFAFAF"/>
     <path id="svg_20" d="m4212.579346,1235.295166c21,-3 62,-6 76,-9c38,-9 32,-11 49,-31l-126,-16c0,-85 18,-69 -36,-124l-8,127l-128,24l69,23c1,0 46,4 58,5l1,115c44,-42 44,59 45,-114z" fill="#AFAFAF"/>
     <path id="svg_21" d="m2090.579346,643.295166l47,-52c-78,-169 84,-214 98,-225c-183,-8 -196,113 -193,279l48,-2z" fill="#FDFDFE"/>
     <path id="svg_22" d="m2086.579346,2488.295166c68,-44 47,7 -26,-81c-39,-48 -34,-60 -54,-124l-70,-37c9,125 70,204 150,242z" fill="#FBFDFE"/>
    </g>
   </g>
  </g>
 </g>
</svg>