<svg width="4290" height="4660" xmlns="http://www.w3.org/2000/svg" clip-rule="evenodd">

 <g>
  <title>background</title>
  <rect fill="none" id="canvas_background" height="4662" width="4292" y="-1" x="-1"/>
 </g>
 <g>
  <title>Layer 1</title>
  <g id="Capa_x0020_1">
   <metadata transform="translate(-2814.30224609375,-842.862060546875) " id="CorelCorpID_0Corel-Layer"/>
   <g id="_2871100271392">
    <path d="m324.697754,2983.137939c160,274 130,642 59,931c-24,96 -51,198 -30,307c24,134 114,241 205,302c165,113 355,114 492,4c119,-96 198,-265 319,-356c204,-151 482,-50 724,101c171,107 360,241 518,171c112,-49 181,-194 214,-353c15,-76 25,-160 61,-218c21,-35 50,-57 81,-76c278,-168 653,-13 921,-205c181,-129 284,-402 318,-696c34,-294 6,-610 -28,-921c-25,-221 -58,-458 -170,-640c-117,-193 -302,-282 -464,-268c-161,14 -301,118 -421,245c-151,159 -287,364 -482,412c-133,32 -278,-12 -419,-39c-236,-45 -469,-39 -700,-29c-221,9 -443,21 -649,98c-146,54 -258,171 -394,245c-89,49 -189,53 -272,119c-101,81 -189,232 -149,428c39,185 180,293 266,438l0,0z" fill="#E6E7E8" id="svg_1"/>
    <g id="svg_2">
     <path id="svg_3" d="m771.697754,4028.137939l0,-1992c0,-45 14,-59 59,-59l2262,0c45,0 59,14 59,59l0,1992c0,45 -14,59 -59,59l-2262,0c-45,0 -59,-14 -59,-59zm2144,-2386c78,-21 79,-58 157,-79l0,177c-52,-13 -130,-60 -157,-98zm-2065,98l0,-177c84,20 104,59 177,79c-37,51 -107,82 -177,98zm157,-256l1927,0c-16,14 -21,19 -43,35c-233,172 -206,140 17,287l-1920,33c16,-14 32,-29 54,-44c29,-19 42,-24 77,-41c76,-36 84,-25 105,-112c-67,-100 -87,-44 -217,-158zm-373,414l0,2189c0,92 45,138 137,138l2419,0c63,0 98,-72 98,-138l0,-2189c0,-85 -6,-10 -29,-49c-92,-153 58,-503 -108,-503l-2380,0c-162,0 -23,352 -100,491c-13,25 -37,-9 -37,61z" fill="#BDBFC1"/>
     <path id="svg_4" d="m1341.697754,2352.137939c0,83 3,69 37,121c100,159 131,490 573,490c189,0 310,-85 397,-194l193,-398c0,-147 -275,-221 -275,40c0,44 117,98 -63,292c-135,145 -445,154 -571,-51c-135,-218 -15,-139 -15,-261c0,-225 -276,-171 -276,-39z" fill="#AFAFAF"/>
     <path id="svg_5" d="m2718.697754,893.137939c0,111 68,101 136,60l350,-204c107,-59 87,-26 143,-133l-27,-33c-20,-19 -7,-14 -31,-26c-53,-26 -165,57 -260,115c-58,35 -102,58 -162,94c-50,29 -149,68 -149,127z" fill="#AFAFAF"/>
     <path id="svg_6" d="m2462.697754,695.137939c0,128 95,92 130,53c37,-41 72,-124 103,-175c34,-58 56,-102 93,-162c198,-326 -6,-265 -41,-222l-285,506z" fill="#AFAFAF"/>
     <path id="svg_7" d="m2167.697754,104.137939l0,572c0,84 138,84 138,0l0,-572c0,-84 -138,-84 -138,0z" fill="#AFAFAF"/>
    </g>
   </g>
  </g>
 </g>
</svg>