<svg width="137.26" height="200.26" xmlns="http://www.w3.org/2000/svg">

 <title>wishes</title>
 <g>
  <title>background</title>
  <rect fill="none" id="canvas_background" height="202.26" width="139.26" y="-1" x="-1"/>
 </g>
 <g>
  <title>Layer 1</title>
  <path id="svg_18" stroke-width="2" stroke-miterlimit="10" stroke="#535461" fill="none" d="m31.762298,193.346932s13.36,-45.35 -2.5,-78.72a71.62,71.62 0 0 1 -5.79,-44.93a120.46,120.46 0 0 1 6.36,-21.09"/>
  <path id="svg_19" fill="#2bc97f" d="m19.962298,27.506932c0,5.56 10.06,21.67 10.06,21.67s10.06,-16.12 10.06,-21.67a10.06,10.06 0 0 0 -20.13,0l0.01,0z"/>
  <path id="svg_20" fill="#2bc97f" d="m3.322298,58.286932c3,4.66 20.23,12.72 20.23,12.72s-0.31,-19 -3.33,-23.66a10.06,10.06 0 0 0 -16.9,10.94z"/>
  <path id="svg_21" fill="#2bc97f" d="m4.052298,110.896932c5,2.5 23.88,0.77 23.88,0.77s-9.86,-16.24 -14.82,-18.74a10.06,10.06 0 1 0 -9.06,18l0,-0.03z"/>
  <path id="svg_22" fill="#2bc97f" d="m13.562298,150.576932c4.47,3.3 23.41,4.8 23.41,4.8s-7,-17.67 -11.44,-21a10.06,10.06 0 1 0 -12,16.18l0.03,0.02z"/>
  <path id="svg_23" fill="#2bc97f" d="m44.682298,72.086932c-4,3.87 -22.56,7.88 -22.56,7.88s4.55,-18.45 8.53,-22.32a10.06,10.06 0 1 1 14,14.44l0.03,0z"/>
  <path opacity="0.5" id="svg_24" fill="#2bc97f" d="m55.212298,116.329239c-5,2.5 -23.88,0.77 -23.88,0.77s9.86,-16.24 14.82,-18.74a10.06,10.06 0 1 1 9.06,18l0,-0.03z"/>
  <path id="svg_25" fill="#2bc97f" d="m59.252298,165.276932c-4.47,3.3 -23.41,4.8 -23.41,4.8s7,-17.67 11.44,-21a10.06,10.06 0 0 1 12,16.18l-0.03,0.02z"/>
  <path id="svg_26" opacity="0.5" fill="#fff" d="m19.962298,27.506932c0,5.56 10.06,21.67 10.06,21.67s10.06,-16.12 10.06,-21.67a10.06,10.06 0 0 0 -20.13,0l0.01,0z"/>
  <path id="svg_27" opacity="0.5" fill="#fff" d="m3.322298,58.286932c3,4.66 20.23,12.72 20.23,12.72s-0.31,-19 -3.33,-23.66a10.06,10.06 0 0 0 -16.9,10.94z"/>
  <path id="svg_28" opacity="0.5" fill="#fff" d="m4.052298,110.896932c5,2.5 23.88,0.77 23.88,0.77s-9.86,-16.24 -14.82,-18.74a10.06,10.06 0 1 0 -9.06,18l0,-0.03z"/>
  <path id="svg_29" opacity="0.5" fill="#fff" d="m13.562298,150.576932c4.47,3.3 23.41,4.8 23.41,4.8s-7,-17.67 -11.44,-21a10.06,10.06 0 1 0 -12,16.18l0.03,0.02z"/>
  <path id="svg_30" opacity="0.5" fill="#fff" d="m44.682298,72.086932c-4,3.87 -22.56,7.88 -22.56,7.88s4.55,-18.45 8.53,-22.32a10.06,10.06 0 1 1 14,14.44l0.03,0z"/>
  <path id="svg_32" opacity="0.5" fill="#fff" d="m59.252298,165.276932c-4.47,3.3 -23.41,4.8 -23.41,4.8s7,-17.67 11.44,-21a10.06,10.06 0 0 1 12,16.18l-0.03,0.02z"/>
  <path opacity="0.6" id="svg_114" fill="#2bc97f" d="m77.519232,191.923848c-2.33,-2.17 -4.52,-4.73 -5.2,-7.84s0.65,-6.85 3.63,-8c3.33,-1.28 6.9,1 9.6,3.37s5.8,5 9.33,4.5a14.21,14.21 0 0 1 -4.39,-13.3a5.56,5.56 0 0 1 1.22,-2.7c1.85,-2 5.21,-1.13 7.42,0.43c7,5 9,14.53 9.05,23.15c0.71,-3.11 0.11,-6.35 0.13,-9.54s0.89,-6.72 3.58,-8.44a10.79,10.79 0 0 1 5.51,-1.27c3.17,-0.12 6.7,0.2 8.86,2.52c2.69,2.88 2,7.71 -0.35,10.88s-5.9,5.16 -9.17,7.35a20.34,20.34 0 0 0 -6.55,6.25a6.19,6.19 0 0 0 -0.49,1.12l-19.9,0a55.36,55.36 0 0 1 -12.28,-8.48z"/>
  <path id="svg_141" stroke-width="2" stroke-miterlimit="10" stroke="#535461" fill="none" d="m82.531529,174.885397s13.36,-45.35 -2.5,-78.72a71.62,71.62 0 0 1 -5.79,-44.93a120.46,120.46 0 0 1 6.36,-21.09"/>
  <path id="svg_142" fill="#2bc97f" d="m70.731529,9.045397c0,5.56 10.06,21.67 10.06,21.67s10.06,-16.12 10.06,-21.67a10.06,10.06 0 0 0 -20.13,0l0.01,0z"/>
  <path id="svg_143" fill="#2bc97f" d="m54.091529,39.825397c3,4.66 20.23,12.72 20.23,12.72s-0.31,-19 -3.33,-23.66a10.06,10.06 0 0 0 -16.9,10.94z"/>
  <path id="svg_144" fill="#2bc97f" d="m54.821529,92.435397c5,2.5 23.88,0.77 23.88,0.77s-9.86,-16.24 -14.82,-18.74a10.06,10.06 0 1 0 -9.06,18l0,-0.03z"/>
  <path id="svg_145" fill="#2bc97f" d="m64.331529,132.115397c4.47,3.3 23.41,4.8 23.41,4.8s-7,-17.67 -11.44,-21a10.06,10.06 0 1 0 -12,16.18l0.03,0.02z"/>
  <path id="svg_146" fill="#2bc97f" d="m95.451529,53.625397c-4,3.87 -22.56,7.88 -22.56,7.88s4.55,-18.45 8.53,-22.32a10.06,10.06 0 1 1 14,14.44l0.03,0z"/>
  <path opacity="0.5" id="svg_147" fill="#2bc97f" d="m105.981529,97.867704c-5,2.5 -23.88,0.77 -23.88,0.77s9.86,-16.24 14.82,-18.74a10.06,10.06 0 1 1 9.06,18l0,-0.03z"/>
  <path id="svg_148" fill="#2bc97f" d="m110.021529,146.815397c-4.47,3.3 -23.41,4.8 -23.41,4.8s7,-17.67 11.44,-21a10.06,10.06 0 0 1 12,16.18l-0.03,0.02z"/>
  <path id="svg_149" opacity="0.5" fill="#fff" d="m70.731529,9.045397c0,5.56 10.06,21.67 10.06,21.67s10.06,-16.12 10.06,-21.67a10.06,10.06 0 0 0 -20.13,0l0.01,0z"/>
  <path id="svg_150" opacity="0.5" fill="#fff" d="m54.091529,39.825397c3,4.66 20.23,12.72 20.23,12.72s-0.31,-19 -3.33,-23.66a10.06,10.06 0 0 0 -16.9,10.94z"/>
  <path id="svg_151" opacity="0.5" fill="#fff" d="m54.821529,92.435397c5,2.5 23.88,0.77 23.88,0.77s-9.86,-16.24 -14.82,-18.74a10.06,10.06 0 1 0 -9.06,18l0,-0.03z"/>
  <path id="svg_152" opacity="0.5" fill="#fff" d="m64.331529,132.115397c4.47,3.3 23.41,4.8 23.41,4.8s-7,-17.67 -11.44,-21a10.06,10.06 0 1 0 -12,16.18l0.03,0.02z"/>
  <path id="svg_153" opacity="0.5" fill="#fff" d="m95.451529,53.625397c-4,3.87 -22.56,7.88 -22.56,7.88s4.55,-18.45 8.53,-22.32a10.06,10.06 0 1 1 14,14.44l0.03,0z"/>
  <path id="svg_154" opacity="0.5" fill="#fff" d="m110.021529,146.815397c-4.47,3.3 -23.41,4.8 -23.41,4.8s7,-17.67 11.44,-21a10.06,10.06 0 0 1 12,16.18l-0.03,0.02z"/>
 </g>
</svg>