<svg width="199.99999999999997" height="410" xmlns="http://www.w3.org/2000/svg">

 <title>wishes</title>
 <g>
  <title>background</title>
  <rect fill="none" id="canvas_background" height="412" width="202" y="-1" x="-1"/>
 </g>
 <g>
  <title>Layer 1</title>
  <path stroke="#535461" id="svg_3" stroke-width="2" stroke-miterlimit="10" fill="none" d="m66.780005,355.780001s24.67,-83.76 -4.63,-145.41c-12.3,-25.87 -16.38,-54.92 -10.7,-83a222.5,222.5 0 0 1 11.75,-39"/>
  <path id="svg_4" fill="#2bc97f" d="m44.980005,49.460001c0,10.27 18.59,40 18.59,40s18.59,-29.77 18.59,-40a18.59,18.59 0 0 0 -37.17,0l-0.01,0z"/>
  <path id="svg_5" fill="#2bc97f" d="m14.250005,106.320001c5.58,8.62 37.36,23.5 37.36,23.5s-0.58,-35.09 -6.16,-43.71a18.59,18.59 0 1 0 -31.2,20.2l0,0.01z"/>
  <path id="svg_6" fill="#2bc97f" d="m15.630005,203.490001c9.17,4.62 44.11,1.43 44.11,1.43s-18.21,-30 -27.38,-34.62a18.59,18.59 0 1 0 -16.73,33.19z"/>
  <path id="svg_7" fill="#2bc97f" d="m33.170005,276.780001c8.25,6.1 43.24,8.86 43.24,8.86s-12.88,-32.64 -21.13,-38.75a18.59,18.59 0 0 0 -22.11,29.89z"/>
  <path id="svg_8" fill="#2bc97f" d="m90.630005,131.810001c-7.36,7.15 -41.67,14.56 -41.67,14.56s8.4,-34.07 15.76,-41.23a18.59,18.59 0 0 1 25.91,26.67z"/>
  <path id="svg_9" fill="#2bc97f" d="m110.100005,217.790001c-9.17,4.62 -44.11,1.43 -44.11,1.43s18.21,-30 27.38,-34.62a18.59,18.59 0 0 1 16.74,33.19l-0.01,0z"/>
  <path id="svg_10" fill="#2bc97f" d="m117.550005,303.940001c-8.25,6.1 -43.24,8.86 -43.24,8.86s12.88,-32.64 21.13,-38.75a18.59,18.59 0 0 1 22.11,29.89z"/>
  <path id="svg_18" stroke-width="2" stroke-miterlimit="10" stroke="#535461" fill="none" d="m167.916158,393.346924s13.36,-45.35 -2.5,-78.72a71.62,71.62 0 0 1 -5.79,-44.93a120.46,120.46 0 0 1 6.36,-21.09"/>
  <path id="svg_19" fill="#2bc97f" d="m156.116158,227.506924c0,5.56 10.06,21.67 10.06,21.67s10.06,-16.12 10.06,-21.67a10.06,10.06 0 0 0 -20.13,0l0.01,0z"/>
  <path id="svg_20" fill="#2bc97f" d="m139.476158,258.286924c3,4.66 20.23,12.72 20.23,12.72s-0.31,-19 -3.33,-23.66a10.06,10.06 0 0 0 -16.9,10.94z"/>
  <path id="svg_21" fill="#2bc97f" d="m140.206158,310.896924c5,2.5 23.88,0.77 23.88,0.77s-9.86,-16.24 -14.82,-18.74a10.06,10.06 0 1 0 -9.06,18l0,-0.03z"/>
  <path id="svg_22" fill="#2bc97f" d="m149.716158,350.576924c4.47,3.3 23.41,4.8 23.41,4.8s-7,-17.67 -11.44,-21a10.06,10.06 0 1 0 -12,16.18l0.03,0.02z"/>
  <path id="svg_23" fill="#2bc97f" d="m180.836158,272.086924c-4,3.87 -22.56,7.88 -22.56,7.88s4.55,-18.45 8.53,-22.32a10.06,10.06 0 1 1 14,14.44l0.03,0z"/>
  <path id="svg_24" fill="#2bc97f" d="m191.366158,318.636924c-5,2.5 -23.88,0.77 -23.88,0.77s9.86,-16.24 14.82,-18.74a10.06,10.06 0 1 1 9.06,18l0,-0.03z"/>
  <path id="svg_25" fill="#2bc97f" d="m195.406158,365.276924c-4.47,3.3 -23.41,4.8 -23.41,4.8s7,-17.67 11.44,-21a10.06,10.06 0 0 1 12,16.18l-0.03,0.02z"/>
  <path id="svg_26" opacity="0.5" fill="#fff" d="m156.116158,227.506924c0,5.56 10.06,21.67 10.06,21.67s10.06,-16.12 10.06,-21.67a10.06,10.06 0 0 0 -20.13,0l0.01,0z"/>
  <path id="svg_27" opacity="0.5" fill="#fff" d="m139.476158,258.286924c3,4.66 20.23,12.72 20.23,12.72s-0.31,-19 -3.33,-23.66a10.06,10.06 0 0 0 -16.9,10.94z"/>
  <path id="svg_28" opacity="0.5" fill="#fff" d="m140.206158,310.896924c5,2.5 23.88,0.77 23.88,0.77s-9.86,-16.24 -14.82,-18.74a10.06,10.06 0 1 0 -9.06,18l0,-0.03z"/>
  <path id="svg_29" opacity="0.5" fill="#fff" d="m149.716158,350.576924c4.47,3.3 23.41,4.8 23.41,4.8s-7,-17.67 -11.44,-21a10.06,10.06 0 1 0 -12,16.18l0.03,0.02z"/>
  <path id="svg_30" opacity="0.5" fill="#fff" d="m180.836158,272.086924c-4,3.87 -22.56,7.88 -22.56,7.88s4.55,-18.45 8.53,-22.32a10.06,10.06 0 1 1 14,14.44l0.03,0z"/>
  <path id="svg_31" opacity="0.5" fill="#fff" d="m191.366158,318.636924c-5,2.5 -23.88,0.77 -23.88,0.77s9.86,-16.24 14.82,-18.74a10.06,10.06 0 1 1 9.06,18l0,-0.03z"/>
  <path id="svg_32" opacity="0.5" fill="#fff" d="m195.406158,365.276924c-4.47,3.3 -23.41,4.8 -23.41,4.8s7,-17.67 11.44,-21a10.06,10.06 0 0 1 12,16.18l-0.03,0.02z"/>
  <path id="svg_114" fill="#2bc97f" d="m16.750005,384.231538c-2.33,-2.17 -4.52,-4.73 -5.2,-7.84s0.65,-6.85 3.63,-8c3.33,-1.28 6.9,1 9.6,3.37s5.8,5 9.33,4.5a14.21,14.21 0 0 1 -4.39,-13.3a5.56,5.56 0 0 1 1.22,-2.7c1.85,-2 5.21,-1.13 7.42,0.43c7,5 9,14.53 9.05,23.15c0.71,-3.11 0.11,-6.35 0.13,-9.54s0.89,-6.72 3.58,-8.44a10.79,10.79 0 0 1 5.51,-1.27c3.17,-0.12 6.7,0.2 8.86,2.52c2.69,2.88 2,7.71 -0.35,10.88s-5.9,5.16 -9.17,7.35a20.34,20.34 0 0 0 -6.55,6.25a6.19,6.19 0 0 0 -0.49,1.12l-19.9,0a55.36,55.36 0 0 1 -12.28,-8.48z"/>
 </g>
</svg>