<?xml version="1.0" encoding="UTF-8"?>
<!DOCTYPE svg PUBLIC "-//W3C//DTD SVG 1.1//EN" "http://www.w3.org/Graphics/SVG/1.1/DTD/svg11.dtd">
<!-- Creator: CorelDRAW X8 -->
<svg xmlns="http://www.w3.org/2000/svg" xml:space="preserve" width="11in" height="8.5in" version="1.1" shape-rendering="geometricPrecision" text-rendering="geometricPrecision" image-rendering="optimizeQuality" fill-rule="evenodd" clip-rule="evenodd"
viewBox="0 0 11000 8500"
 xmlns:xlink="http://www.w3.org/1999/xlink">
 <g id="Capa_x0020_1">
  <metadata id="CorelCorpID_0Corel-Layer"/>
  <path fill="#272B46" d="M2331 6887l151 65 32 13c12,-17 45,-94 59,-120 21,-39 42,-76 64,-115 125,-226 280,-453 411,-675 138,-235 154,-209 212,-506 21,-104 19,-224 29,-333 11,-107 23,-217 43,-321 21,29 135,412 154,477 29,95 50,154 52,264 2,221 -49,375 -21,602 21,173 61,373 94,545 16,82 46,192 54,268 13,29 17,74 25,109 3,17 6,34 9,52 7,33 10,28 45,29 62,-1 132,-26 183,-26 10,-10 30,-12 48,-16l-11 -81c-28,-184 -64,-968 -59,-1183 3,-148 50,-270 16,-462 -13,-75 -2,-167 4,-243 25,-215 38,-454 3,-667l-12 -113 -17 -135 -20 -138 -26 -135c-37,-6 -113,-1 -159,-4 -263,-21 -764,-88 -982,-162 -26,309 -47,543 25,859 44,194 175,605 114,801 -13,42 -58,111 -82,154 -115,205 -234,604 -332,847 -24,59 -128,300 -136,336l30 14z"/>
  <path fill="#538641" d="M5311 4242c-3,101 -26,234 -38,337 -25,229 -51,465 -57,695 -3,121 1,242 -3,362 -2,64 -12,116 -15,172 -3,62 -6,123 -7,185 -2,126 -23,1048 -14,1087l-3 187 37 12c39,24 45,30 122,31 65,1 83,-10 133,-20 -3,-27 -7,-8 21,-26l24 -317c1,-114 42,-532 54,-676 9,-109 19,-223 33,-330 14,-102 40,-200 60,-303 27,-149 207,-1159 257,-1196 62,57 267,924 298,1080 23,113 18,204 13,321 -8,184 -42,855 -36,990 -4,82 -4,165 -4,247 0,40 0,80 2,120 4,70 -4,55 43,83 38,-2 81,6 121,5 42,0 82,-5 123,-11l9 0c49,-37 37,-13 44,-90 3,-43 8,-85 12,-128 4,-45 14,-220 23,-248 1,-93 19,-217 28,-312 25,-287 70,-694 58,-961l-68 -1294c-98,48 -311,40 -322,-77l-591 2c-1,65 -84,93 -146,102 -80,10 -148,0 -202,-45l-9 16z"/>
  <path fill="#FEBE54" d="M2712 3876c218,74 719,141 982,162 46,3 122,-2 159,4 -35,-131 -75,-271 -109,-406 -21,-85 -103,-353 -90,-423l-7 -57 -26 24c7,8 5,4 7,14 -30,14 -48,11 -65,31 19,13 25,2 44,18 -22,19 -72,13 -102,15 21,10 50,6 67,20 -32,24 -112,14 -155,16 -87,30 -192,37 -287,24 -67,-9 -204,-46 -236,-88l116 10 27 0 3 -118c-2,-17 11,-20 -10,-21 -57,-8 -149,-38 -199,-59 -29,-12 -60,-28 -84,-42 -31,-19 -44,-40 -44,-85l14 -68c6,-30 16,-70 33,-93l36 -98c27,-85 35,-86 96,-126 43,-29 98,-53 145,-68 114,-36 256,-40 376,-4 64,16 132,52 176,83 24,17 55,42 72,61 12,12 47,55 53,74l13 10c25,-78 62,-165 37,-256 -25,-91 -87,-145 -97,-220 -19,-136 -193,-273 -316,-319l3 16c18,38 147,225 110,268 -12,10 -19,11 -42,12 -87,2 -209,-44 -280,-85 -64,-37 -191,-144 -204,-211 -145,42 -243,47 -292,255 -17,76 -16,114 -45,231 -41,163 -150,557 -132,687 26,177 199,137 388,164l-72 317c-22,108 -51,219 -63,331z"/>
  <polygon fill="#6A4528" points="5084,3607 5086,4170 5224,4169 5668,4169 6259,4167 6700,4167 6731,4168 6832,4168 6831,3381 6772,3382 5178,3386 5084,3383 "/>
  <path fill="#FEBE54" d="M5084 3607l0 -224 94 3c1,-42 8,-71 26,-105 20,-39 37,-43 60,-71 -11,-9 -11,-19 -15,-38 -20,-117 3,-215 20,-340 11,-84 34,-295 70,-354 15,85 57,397 79,454 50,-45 109,-142 138,-225 52,-152 -12,-462 -56,-619 -48,-172 -89,-209 -107,-259 -293,108 -357,489 -390,769 -18,156 -41,388 -31,542 4,68 33,169 51,237 17,64 38,174 61,230z"/>
  <path fill="#538641" d="M5393 1829c18,50 59,87 107,259 44,157 108,467 56,619 -29,83 -88,180 -138,225l-2 235c82,18 71,30 98,16 36,-19 56,-25 101,-27 8,-49 28,-93 61,-122 12,-11 19,-21 32,-31 53,-38 134,-47 203,-25 24,-7 109,-1 142,-1 17,0 58,-3 73,0 16,2 31,17 32,25 109,48 51,-7 149,97 37,39 55,-5 145,103 24,-2 30,-7 41,-18l-3 -250c-44,-56 -99,-147 -127,-231 -37,-112 -18,-201 -1,-319 29,-197 85,-400 172,-552 -26,-24 -59,-32 -105,-36 -5,38 -48,142 -62,186 -41,123 -73,264 -95,394 -12,74 -12,149 -23,219 -84,8 -200,-3 -288,-2 -99,1 -196,7 -295,7 -1,-191 -104,-665 -188,-803 -38,-2 -67,12 -85,32z"/>
  <path fill="#FEBE54" d="M6490 2934c21,-53 53,-457 81,-503 15,56 37,117 48,178l56 392c15,159 4,87 -9,208 28,26 47,36 70,70 22,33 28,61 36,103l59 -1 1 787 -101 0 100 -1c18,-110 -8,-411 3,-533 2,-23 89,-343 105,-430 21,-114 9,-228 2,-344 -18,-281 -49,-630 -203,-865 -38,-57 -118,-140 -204,-163 -87,152 -143,355 -172,552 -17,118 -36,207 1,319 28,84 83,175 127,231z"/>
  <path fill="#FBD395" d="M4587 4561c-33,2 -85,9 -108,-7 -11,8 -7,9 -43,8l-127 2c-24,10 -60,3 -96,7 11,208 -1,209 44,404 17,77 52,129 79,190 -25,3 -15,33 -14,103 7,-15 4,-36 4,-58l7 85c15,0 31,1 46,1 13,0 29,1 40,8 -34,-11 -239,1 -299,-2 29,14 352,5 414,5 157,-1 232,-7 333,-91 144,-118 210,-409 179,-655l-38 -1 -12 -113c-26,27 -30,81 -54,116l-355 -2z"/>
  <path fill="#FEBE54" d="M5478 1797c84,138 187,612 188,803 99,0 196,-6 295,-7 88,-1 204,10 288,2 11,-70 11,-145 23,-219 22,-130 54,-271 95,-394 14,-44 57,-148 62,-186l-269 -55c-2,84 8,116 -44,174 -72,79 -333,113 -362,-174 -93,14 -186,35 -276,56z"/>
  <path fill="#272B46" d="M2926 1548c-5,-25 -15,-19 -18,-48 -7,-65 42,-113 38,-144 -13,-119 93,-105 119,-34 69,-21 152,-68 211,-101 140,-77 112,-99 169,-75 24,11 11,11 20,1 -10,-100 -50,-163 -95,-226 -33,-46 -118,-120 -186,-142 -87,-29 -189,-8 -264,29 -19,10 -34,15 -53,27 -11,6 -17,10 -25,15 -16,10 -11,9 -23,18 -20,16 -35,6 -69,8 -26,2 -48,10 -69,20 -249,121 126,524 28,742 -14,32 -50,68 -75,86 -43,32 -80,30 -131,14 16,24 75,60 116,72 160,47 286,-122 307,-262z"/>
  <path fill="#C44A4A" d="M5416 3167c-65,-2 -108,12 -152,43 -23,28 -40,32 -60,71 -18,34 -25,63 -26,105l1594 -4c-8,-42 -14,-70 -36,-103 -23,-34 -42,-44 -70,-70 -28,-7 -44,-21 -81,-26 -31,-4 -65,7 -92,1 -11,11 -17,16 -41,18 -90,-108 -108,-64 -145,-103 -98,-104 -40,-49 -149,-97 -19,0 -144,5 -151,37 -31,-14 -42,-38 -96,-61 -69,-22 -150,-13 -203,25 -13,10 -20,20 -32,31 -33,29 -53,73 -61,122 -45,2 -65,8 -101,27 -27,14 -16,2 -98,-16z"/>
  <path fill="#EEA886" d="M2926 1548c18,12 32,34 43,51 18,29 35,222 37,258l-78 34c13,67 140,174 204,211 71,41 193,87 280,85 23,-1 30,-2 42,-12 37,-43 -92,-230 -110,-268l-3 -16c-16,-13 -16,-23 -17,-51 -2,-24 2,-48 2,-74l-5 44c-58,-13 -187,-48 -207,-106 96,26 104,32 213,31 94,-27 128,-114 142,-228 14,-109 20,-260 -4,-360 -9,10 4,10 -20,-1 -57,-24 -29,-2 -169,75 -59,33 -142,80 -211,101 -26,-71 -132,-85 -119,34 4,31 -45,79 -38,144 3,29 13,23 18,48z"/>
  <path fill="#EEA886" d="M5601 1093c10,134 -57,304 62,452 32,40 56,43 112,71l2 67 2 -71c59,10 121,-1 169,-26 48,-24 72,-50 103,-85 -27,86 -147,211 -275,190 -5,26 -10,37 -22,50 29,287 290,253 362,174 52,-58 42,-90 44,-174 -27,-51 -37,-128 -44,-189 -10,-90 -24,-133 28,-204 -29,-7 -9,3 -25,-17l-37 -68c15,-17 31,-23 39,-57 7,-31 -2,-60 -20,-75 -37,-32 -81,-15 -86,76 -19,0 -46,-13 -62,-23 14,-46 29,-54 30,-114l-382 23z"/>
  <path fill="#C44A4A" d="M5601 1093l382 -23c60,-9 73,4 123,26 25,11 88,40 99,56 20,3 19,-11 30,-62 43,-189 -3,-357 -217,-411 -113,-29 -225,-14 -299,50 -83,72 -90,124 -130,250 -63,28 -241,22 -274,79 47,44 214,35 286,35z"/>
  <path fill="#E6BE81" d="M3928 4563c35,213 22,452 -3,667 17,4 55,33 84,46 30,13 74,27 111,26 60,3 265,-9 299,2 -11,-7 -27,-8 -40,-8 -15,0 -31,-1 -46,-1l-7 -85c0,22 3,43 -4,58 -1,-70 -11,-100 14,-103 -27,-61 -62,-113 -79,-190 -45,-195 -33,-196 -44,-404 36,-4 72,3 96,-7 -17,0 -35,0 -52,0 -6,0 -17,0 -23,-2 -13,-2 -9,-2 -16,-6 -3,8 2,3 -12,6l-127 1c-50,0 -100,-1 -151,0z"/>
  <path fill="#304564" d="M3952 7291c-37,45 -169,-9 -210,-20 -30,24 -14,196 -10,238 7,62 6,46 57,68 132,57 533,183 632,109 24,-18 37,-66 18,-97 -36,-57 -133,-37 -195,-70l-232 -158c-12,-14 -39,-59 -50,-85l-10 15z"/>
  <path fill="#304564" d="M2279 7023c-89,181 -66,138 58,344 68,112 174,187 308,215 212,45 134,-89 24,-186 -37,-32 -64,-62 -87,-108 -30,-60 -104,-231 -113,-285l-2 -15c-32,15 -50,26 -91,1 -37,-23 -30,-29 -48,-75l-49 109z"/>
  <path fill="#272B46" d="M5466 7290c-50,10 -68,21 -133,20 -77,-1 -83,-7 -122,-31 -13,69 -70,131 -124,170 -87,64 -195,246 45,256 37,1 153,-4 185,-15 72,-24 66,-113 121,-172 17,-19 36,-22 45,-53 13,-45 -9,-129 -17,-175z"/>
  <path fill="#272B46" d="M6232 7285c-11,42 -29,130 -20,171 8,32 26,38 43,54 33,33 50,96 70,131 12,19 29,39 52,47 29,10 287,44 326,-44 45,-101 -99,-197 -145,-241 -20,-18 -62,-87 -74,-126l-9 0c-2,20 14,18 -48,28 -58,10 -150,14 -195,-20z"/>
  <path fill="#FEBE54" d="M3724 3048l-23 50 21 192 46 57c14,15 14,13 25,28 11,15 16,16 27,29 10,12 12,18 23,29 45,45 72,83 128,137 18,18 33,39 52,58l101 112c24,-48 75,-62 96,-73 20,-11 8,2 17,-16 -85,-105 -27,-21 -126,-169 -73,-109 -218,-356 -289,-442 -27,-33 -42,-42 -60,-92 -12,32 -21,71 -38,100z"/>
  <path fill="#EEA886" d="M3264 3032c-28,8 -62,39 -80,59 -7,8 -12,18 -19,28l-135 -18c21,1 8,4 10,21l-3 118 -27 0 407 54c43,-2 123,8 155,-16 -17,-14 -46,-10 -67,-20 30,-2 80,4 102,-15 -19,-16 -25,-5 -44,-18 17,-20 35,-17 65,-31 -2,-10 0,-6 -7,-14l-123 -6c18,-7 46,-7 69,-11 60,-9 47,-13 53,-23 -43,-42 -211,13 -276,-34 -13,-7 -6,3 -15,-12 14,-40 88,-41 71,-94l-136 32z"/>
  <path fill="#5F9840" d="M2717 2847l-14 68c69,31 165,15 249,15 90,0 185,-5 273,-3 95,-1 179,25 261,23 42,-1 86,-13 128,-17 44,-3 110,4 148,-6l-2 -9c0,-36 8,-35 -2,-79 -32,7 -69,9 -103,16 -167,33 -129,30 -294,-21 -104,-25 -209,0 -317,0l-253 1c-74,-2 -60,-13 -74,12z"/>
  <path fill="#5F9840" d="M2786 2656c53,0 66,-26 134,-14 52,10 88,-2 136,-13 74,-16 214,-26 287,-10 8,-15 -5,-5 17,-7l79 3c-5,-11 -3,-15 -46,-14 1,-1 4,-4 4,-3 0,0 10,2 10,-17 2,-92 -4,-75 -25,-108l21 -15c-120,-36 -262,-32 -376,4 -47,15 -102,39 -145,68 -61,40 -69,41 -96,126z"/>
  <path fill="#5F9840" d="M2786 2656l-36 98c1,0 3,0 3,1l24 -1c37,-9 70,-23 111,-25 54,-3 90,14 167,9 111,-8 196,-55 304,-33 66,6 131,-1 197,9 60,10 109,25 182,22l-21 -50 -13 -10c-26,-9 -60,-14 -89,-22 -24,-7 -50,-19 -80,-22 -66,-8 -127,0 -192,-13 -73,-16 -213,-6 -287,10 -48,11 -84,23 -136,13 -68,-12 -81,14 -134,14z"/>
  <path fill="#5F9840" d="M3030 3101l135 18c7,-10 12,-20 19,-28 18,-20 52,-51 80,-59 -8,-9 -1,-3 -10,-10 -7,-5 -6,-4 -12,-7 23,-19 2,-10 16,-78l-46 -1c25,-3 2,2 13,-9 -88,-2 -183,3 -273,3 -84,0 -180,16 -249,-15 0,45 13,66 44,85 24,14 55,30 84,42 50,21 142,51 199,59z"/>
  <path fill="#5F9840" d="M2750 2754c-17,23 -27,63 -33,93 14,-25 0,-14 74,-12l253 -1c108,0 213,-25 317,0 -7,-12 -2,0 -1,-8 9,-46 9,-76 -1,-121 -108,-22 -193,25 -304,33 -77,5 -113,-12 -167,-9 -41,2 -74,16 -111,25l-24 1c0,-1 -2,-1 -3,-1z"/>
  <path fill="#629A3C" d="M3264 3032l136 -32c17,53 -57,54 -71,94 9,15 2,5 15,12l16 -4c52,-6 127,-6 168,-36 64,-46 101,-8 196,-18 17,-29 26,-68 38,-100l0 -21c-38,10 -104,3 -148,6 -42,4 -86,16 -128,17 -82,2 -166,-24 -261,-23 -11,11 12,6 -13,9l46 1c-14,68 7,59 -16,78 6,3 5,2 12,7 9,7 2,1 10,10z"/>
  <path fill="#9B6FA0" d="M4723 4366c-39,96 -88,137 -136,195l355 2c24,-35 28,-89 54,-116l5 -29c-17,-10 -32,-19 -46,-31 -15,-11 -21,-21 -35,-32 -17,43 -26,102 -34,150l-9 -22c-12,-39 -21,-96 -38,-141 -35,-6 -90,6 -116,24z"/>
  <path fill="#629A3C" d="M3361 2834c165,51 127,54 294,21 34,-7 71,-9 103,-16 10,44 2,43 2,79 25,-30 -9,-156 -22,-182 -73,3 -122,-12 -182,-22 -66,-10 -131,-3 -197,-9 10,45 10,75 1,121 -1,8 -6,-4 1,8z"/>
  <path fill="#DB9C7B" d="M4232 3884l6 12 -33 6 0 39c72,120 87,81 128,76 53,-7 26,-8 53,-30 10,-8 22,-10 29,-17 16,-16 7,-18 15,-32 14,-23 12,4 24,-28 3,-28 -15,-51 -29,-61l-7 -7c0,0 -2,-2 -3,-3l-23 -23c-51,-53 -64,-21 -72,-19 -13,4 -21,-4 -49,4l3 40c-23,-3 -27,1 -42,10l0 33z"/>
  <path fill="#FBD395" d="M4454 3910c13,-16 15,-11 75,2 28,6 53,13 78,24 44,18 103,53 125,76l48 49c7,8 13,17 22,30 34,45 73,113 88,175 46,4 39,17 75,29 -62,-175 -110,-268 -237,-361 -21,-16 -48,-33 -75,-45 -66,-29 -119,-37 -192,-48 -2,0 -24,1 -24,1 -19,5 -4,-13 -12,7 14,10 32,33 29,61z"/>
  <path fill="#EEA886" d="M4124 3740c14,45 35,101 47,142l52 -18 9 20 0 -33c15,-9 19,-13 42,-10l-3 -40c28,-8 36,0 49,-4 8,-2 21,-34 72,19l23 23c1,1 3,3 3,3l7 7c8,-20 -7,-2 12,-7 0,0 22,-1 24,-1 -15,-22 -22,-44 -35,-70 -13,-23 -23,-19 -69,-34 -37,-12 -42,-24 -61,-43 -20,-19 -40,-22 -59,-43 -9,18 3,5 -17,16 -21,11 -72,25 -96,73z"/>
  <path fill="#9ACB9A" d="M3916 4450l12 113c51,-1 101,0 151,0l127 -1c14,-3 9,2 12,-6l19 -10c-11,-58 -65,-98 -122,-113 -94,-23 -125,2 -199,17z"/>
  <path fill="#EEA886" d="M6581 4244c20,-16 38,-21 65,-34 27,-12 47,-19 54,-43l-441 0c11,117 224,125 322,77z"/>
  <path fill="#EEA886" d="M5311 4242l9 -16c54,45 122,55 202,45 62,-9 145,-37 146,-102l-444 0c23,22 44,40 86,55l1 18z"/>
  <path fill="#82C17E" d="M4723 4366c26,-18 81,-30 116,-24 17,45 26,102 38,141l9 22c8,-48 17,-107 34,-150 14,11 20,21 35,32 14,12 29,21 46,31l25 13c5,-29 -3,-58 -16,-81 -20,-35 -40,-35 -45,-55 -36,-12 -29,-25 -75,-29 -60,-4 -115,-3 -160,25 -30,19 -71,64 -87,102l80 -27z"/>
  <path fill="#5F9840" d="M3343 2619c65,13 126,5 192,13 30,3 56,15 80,22 29,8 63,13 89,22 -6,-19 -41,-62 -53,-74 -17,-19 -48,-44 -72,-61 -44,-31 -112,-67 -176,-83l-21 15c21,33 27,16 25,108 0,19 -10,17 -10,17 0,-1 -3,2 -4,3 43,-1 41,3 46,14l-79 -3c-22,2 -9,-8 -17,7z"/>
  <path fill="#FBD395" d="M4171 3882c-33,9 -72,36 -97,52 -31,20 -74,62 -99,91l-96 152 20 138c17,-114 101,-247 194,-316 17,-13 84,-60 112,-58l0 -39 33 -6 -6 -12 -9 -20 -52 18z"/>
  <path fill="#66534A" d="M5983 1070c-1,60 -16,68 -30,114 16,10 43,23 62,23 5,-91 49,-108 86,-76 18,15 27,44 20,75 -8,34 -24,40 -39,57l37 68c16,20 -4,10 25,17 5,-24 25,-64 34,-90 11,-32 24,-72 27,-106 -11,-16 -74,-45 -99,-56 -50,-22 -63,-35 -123,-26z"/>
  <path fill="#5F9840" d="M3417 3294l-407 -54 -116 -10c32,42 169,79 236,88 95,13 200,6 287,-24z"/>
  <path fill="#5F9840" d="M3344 3106c65,47 233,-8 276,34 -6,10 7,14 -53,23 -23,4 -51,4 -69,11l123 6 26 -24c1,-1 2,-4 3,-3 0,0 30,-43 51,-55l23 -50c-95,10 -132,-28 -196,18 -41,30 -116,30 -168,36l-16 4z"/>
  <path fill="#A77862" d="M5777 1683l-1 8c128,21 248,-104 275,-190 -31,35 -55,61 -103,85 -48,25 -110,36 -169,26l-2 71z"/>
  <path fill="#EEA886" d="M3744 7241c-7,12 -8,15 -2,30 41,11 173,65 210,20 9,-30 -5,-45 -9,-73 -5,-2 5,-5 -16,-3 -51,0 -121,25 -183,26z"/>
  <path fill="#A77862" d="M3326 1766l1 -31c-109,1 -117,-5 -213,-31 20,58 149,93 207,106l5 -44z"/>
  <path fill="#EEA886" d="M2328 6914c18,46 11,52 48,75 41,25 59,14 91,-1 0,-14 -3,-7 3,-21 8,-23 0,-6 12,-15l-151 -65 -3 27z"/>
  <path fill="#3C6B49" d="M6158 3002c-1,-8 -16,-23 -32,-25 -15,-3 -56,0 -73,0 -33,0 -118,-6 -142,1 54,23 65,47 96,61 7,-32 132,-37 151,-37z"/>
  <path fill="#985936" d="M3647 3156l7 57c25,23 45,53 68,77l-21 -192c-21,12 -51,55 -51,55 -1,-1 -2,2 -3,3z"/>
  <path fill="#DE6060" d="M4237 4546l-19 10c7,4 3,4 16,6 6,2 17,2 23,2 17,0 35,0 52,0l127 -2c36,1 32,0 43,-8 -67,-20 -47,-22 -121,-8 -35,7 -55,-23 -121,0z"/>
  <path fill="#2F6B8F" d="M6231 7283l1 2c45,34 137,30 195,20 62,-10 46,-8 48,-28 -41,6 -81,11 -123,11 -40,1 -83,-7 -121,-5z"/>
 </g>
</svg>
