<svg width="696" height="747.97143" xmlns="http://www.w3.org/2000/svg">
 <title>empty_cart</title>

 <g>
  <title>background</title>
  <rect x="-1" y="-1" width="698" height="749.97143" id="canvas_background" fill="none"/>
 </g>
 <g>
  <title>Layer 1</title>
  <rect x="351.708922" y="35.90779" width="140" height="2" fill="#f2f2f2" id="svg_3"/>
  <rect x="451.708922" y="37.40779" width="2" height="18.5" fill="#f2f2f2" id="svg_4"/>
  <rect x="390.708922" y="37.40779" width="2" height="18.5" fill="#f2f2f2" id="svg_5"/>
  <rect x="422.708922" y="131.90779" width="140" height="2" fill="#f2f2f2" id="svg_6"/>
  <rect x="460.708922" y="113.90779" width="2" height="18.5" fill="#f2f2f2" id="svg_7"/>
  <rect x="521.708922" y="113.90779" width="2" height="18.5" fill="#f2f2f2" id="svg_8"/>
  <rect x="608.708922" y="176.90779" width="140" height="2" fill="#f2f2f2" id="svg_9"/>
  <rect x="646.708922" y="158.90779" width="2" height="18.5" fill="#f2f2f2" id="svg_10"/>
  <rect x="707.708922" y="158.90779" width="2" height="18.5" fill="#f2f2f2" id="svg_11"/>
  <rect x="594.708922" y="640.90779" width="140" height="2" fill="#c0c0c0" id="svg_12"/>
  <rect x="632.708922" y="622.90779" width="2" height="18.5" fill="#c0c0c0" id="svg_13"/>
  <rect x="693.708922" y="622.90779" width="2" height="18.5" fill="#c0c0c0" id="svg_14"/>
  <rect x="355.708922" y="319.90779" width="140" height="2" fill="#f2f2f2" id="svg_15"/>
  <rect x="393.708922" y="301.90779" width="2" height="18.5" fill="#f2f2f2" id="svg_16"/>
  <rect x="454.708922" y="301.90779" width="2" height="18.5" fill="#f2f2f2" id="svg_17"/>
  <rect x="399.708922" y="560.90779" width="140" height="2" fill="#c0c0c0" id="svg_18"/>
  <rect x="437.708922" y="542.90779" width="2" height="18.5" fill="#f2f2f2" id="svg_19"/>
  <rect x="498.708922" y="542.90779" width="2" height="18.5" fill="#c0c0c0" id="svg_20"/>
  <rect x="623.708922" y="487.90779" width="140" height="2" fill="#c0c0c0" id="svg_21"/>
  <rect x="661.708922" y="469.90779" width="2" height="18.5" fill="#c0c0c0" id="svg_22"/>
  <rect x="722.708922" y="469.90779" width="2" height="18.5" fill="#f2f2f2" id="svg_23"/>
  <polygon points="300.52068412303925,702.1840209960938 63.73439109325409,702.1840209960938 63.73439109325409,700.4810180664062 298.8166741132736,700.4810180664062 298.8166741132736,617.8610229492188 83.64046561717987,617.8610229492188 73.18742454051971,596.083984375 74.72342765331268,595.3469848632812 84.71247184276581,616.156982421875 300.52068412303925,616.156982421875 300.52068412303925,702.1840209960938 " fill="#2f2e41" id="svg_24"/>
  <circle cx="156.78851" cy="726.03301" r="17.88673" fill="#3f3d56" id="svg_25"/>
  <circle cx="333.10053" cy="726.03301" r="17.88673" fill="#3f3d56" id="svg_26"/>
  <circle cx="479.387682" cy="346.153" r="11.072741" fill="#3f3d56" id="svg_27"/>
  <path d="m325.8458,589.75318l-266.14865,0l-57.58829,-188.23647l383.04412,0l-0.34852,1.10753l-58.95866,187.12894zm-205.92984,-188.83244l204.68046,0l58.23417,-184.82951l-378.41935,0l115.50472,184.82951z" fill="#c0c0c0" id="svg_28"/>
  <polygon points="305.070671916008,579.9580078125 71.30240714550018,579.9580078125 20.720391154289246,413.0150146484375 357.16167533397675,413.0150146484375 356.85567557811737,413.99798583984375 305.070671916008,579.9580078125 " fill="#f2f2f2" id="svg_29"/>
  <polygon points="389.9256829023361,384.70001220703125 388.278679728508,384.26300048828125 399.5196770429611,341.8940124511719 464.90840995311737,341.8940124511719 464.90840995311737,343.5979919433594 400.830681681633,343.5979919433594 389.9256829023361,384.70001220703125 " fill="#2f2e41" id="svg_30"/>
  <rect x="20.718822" y="458.58385" width="345.2931" height="1.7035" fill="#2f2e41" id="svg_31"/>
  <rect x="39.919362" y="521.34377" width="306.31852" height="1.7035" fill="#2f2e41" id="svg_32"/>
  <rect x="192.774182" y="402.36843" width="1.7035" height="186.53301" fill="#2f2e41" id="svg_33"/>
  <rect x="49.278644" y="1507.032244" width="186.92877" height="1.70379" transform="rotate(-86.24919128417969 -336.2785339355469,936.2349243164062) " fill="#2f2e41" id="svg_34"/>
  <rect x="84.449043" y="425.18845" width="1.70379" height="186.92877" transform="rotate(-3.7290000915527344 -250.0079650878907,-52.99637985229492) " fill="#2f2e41" id="svg_35"/>
  <rect y="745" width="896" height="2" fill="#2f2e41" id="svg_36"/>
  <path d="m533.8711,61.87599s14.61842,41.60627 5.62246,48.00724s30.36134,58.67548 30.36134,58.67548l47.22874,-12.80193l-25.86336,-43.73993s-3.37348,-43.73992 -3.37348,-50.14089s-53.9757,0.00003 -53.9757,0.00003z" fill="#a0616a" id="svg_37"/>
  <path fill="#ffffff" d="m533.8711,61.87599s14.61842,41.60627 5.62246,48.00724s30.36134,58.67548 30.36134,58.67548l47.22874,-12.80193l-25.86336,-43.73993s-3.37348,-43.73992 -3.37348,-50.14089s-53.9757,0.00003 -53.9757,0.00003z" id="svg_38"/>
  <path d="m509.33406,358.45403s-4.26731,53.34138 0,81.07889s10.66828,104.5491 10.66828,104.5491s0,145.08854 23.4702,147.22219s40.53945,4.26731 42.6731,-4.26731s-10.66827,-12.80193 -4.26731,-17.06924s8.53462,-19.20289 0,-36.27213s0,-189.8953 0,-189.8953l40.53945,108.81641s4.26731,89.61351 8.53462,102.41544s-4.26731,36.27213 10.66827,38.40579s32.00483,-10.66828 40.53945,-14.93559s-12.80193,-4.26731 -8.53462,-6.401s17.06924,-8.53462 12.80193,-10.66828s-8.53462,-104.54909 -8.53462,-104.54909s-11.73511,-218.6996 -26.67069,-227.2342s-24.537,6.16576 -24.537,6.16576l-117.35106,22.63856z" fill="#8c8c8c" id="svg_39"/>
  <path d="m547.73985,682.76959l0,17.06924s-19.20289,46.39942 0,46.39942s34.13848,4.8083 34.13848,-1.59266l0,-57.60869l-34.13848,-4.26731z" fill="#c0c0c0" id="svg_40"/>
  <path d="m673.6255,682.73929l0,17.06924s19.20289,46.39941 0,46.39941s-34.13848,4.80831 -34.13848,-1.59266l0,-57.60868l34.13848,-4.26731z" fill="#c0c0c0" id="svg_41"/>
  <circle cx="563.742272" cy="54.4082" r="38.405788" fill="#ffffff" id="svg_42"/>
  <path d="m552.00716,125.88564s10.66828,32.00482 27.73752,25.60386l17.06924,-6.401l29.87117,204.83091s-23.47021,34.13848 -57.60869,12.80193s-17.06924,-236.8357 -17.06924,-236.8357z" fill="#2f2e41" id="svg_43"/>
  <path d="m581.87833,119.48471l9.60145,-20.26972s56.54186,26.67069 65.07648,35.20531s8.53462,21.33655 8.53462,21.33655l-14.93559,53.34137s4.26731,117.351 4.26731,121.61834s14.93559,27.73751 4.26731,19.20289s-12.80193,-17.06924 -21.33655,-4.26731s-27.73751,27.73752 -27.73751,27.73752l-27.73752,-253.90495z" fill="#c0c0c0" id="svg_44"/>
  <path d="m656.55626,273.10783l-6.401,59.74234s-38.40579,34.13848 -29.87117,36.27214s12.80193,-6.401 12.80193,-6.401s14.93559,14.93559 23.47021,6.401s29.87119,-89.61351 29.87119,-89.61351l-29.87116,-6.40097z" fill="#f2f2f2" id="svg_45"/>
  <path d="m564.56042,0.12987c-8.51412,-0.30437 -17.62549,-0.45493 -24.80406,4.13321a36.31263,36.31263 0 0 0 -8.5723,8.39153c-6.99153,8.83846 -13.03253,19.95926 -10.43553,30.92537l3.01633,-1.1764a19.75086,19.75086 0 0 1 -1.90515,8.46261c0.42475,-1.2351 1.84722,0.76151 1.4664,2.01085l-3.32269,10.90067c5.46207,-2.00239 12.25661,2.05189 13.08819,7.80969c0.37974,-12.66123 1.6932,-27.17965 11.964,-34.59331c5.17951,-3.73868 11.73465,-4.88 18.04162,-5.8935c5.81832,-0.935 11.91781,-1.82659 17.49077,0.08886s10.31871,7.615 9.0553,13.37093c2.56964,-0.88518 5.44356,0.90566 6.71347,3.30856s1.33662,5.2375 1.37484,7.95506c2.73911,1.93583 5.85632,-1.9082 6.97263,-5.07112c2.62033,-7.42434 4.94941,-15.32739 3.53783,-23.073s-7.72325,-15.14773 -15.59638,-15.174a5.46676,5.46676 0 0 0 1.42176,-3.84874l-6.48928,-0.5483a7.1723,7.1723 0 0 0 4.28575,-2.25954c-2.6054,2.86693 -23.09027,-5.56882 -27.3035,-5.71943z" fill="#2f2e41" id="svg_46"/>
  <path d="m562.67542,113.08371s-17.36929,-17.02085 -23.62023,-15.97822s-14.78554,15.97822 -14.78554,15.97822s-51.20772,17.06924 -49.07407,34.13848s25.60384,100.28178 25.60384,100.28178s19.2029,100.28179 2.13366,110.95006s81.07889,38.40579 83.21254,25.60386s6.401,-140.82123 0,-160.02412s-23.4702,-110.95006 -23.4702,-110.95006z" fill="#c0c0c0" id="svg_47"/>
  <path d="m637.35336,147.22219l26.38265,0s18.42411,81.07889 20.55776,89.61352s6.401,49.07406 4.26731,49.07406s-44.80675,-8.53462 -44.80675,-2.13365l-6.40097,-136.55393z" fill="#c0c0c0" id="svg_48"/>
  <path d="m636.46042,348l-101,0c-9.85608,-45.34 -10.67957,-89.14649 0,-131l101,0c-16.29919,41.10071 -17.31775,84.60708 0,131z" fill="#f2f2f2" id="svg_49"/>
  <path d="m494.39848,292.31071l29.87117,12.802s57.60868,8.53462 57.60868,-14.93559s-57.60868,-10.66827 -57.60868,-10.66827l-19.20418,-6.14014l-10.66699,18.942z" fill="#ffffff" id="svg_50"/>
  <path d="m500.79942,134.42026l-25.60386,6.401l-19.20287,113.08368s-6.401,29.87117 4.26731,32.00482s40.53942,19.20295 40.53942,19.20295s4.26731,-32.00483 12.80193,-32.00483l-21.33653,-17.06929l12.80193,-74.67788l-4.26733,-46.94045z" fill="#c0c0c0" id="svg_51"/>
  <rect x="-1.291078" y="352.90779" width="140" height="2" fill="#f2f2f2" id="svg_52"/>
  <rect x="36.708922" y="334.90779" width="2" height="18.5" fill="#f2f2f2" id="svg_53"/>
  <rect x="97.708922" y="334.90779" width="2" height="18.5" fill="#f2f2f2" id="svg_54"/>
  <rect x="47.708922" y="56.90779" width="140" height="2" fill="#f2f2f2" id="svg_55"/>
  <rect x="147.708922" y="58.40779" width="2" height="18.5" fill="#f2f2f2" id="svg_56"/>
  <rect x="86.708922" y="58.40779" width="2" height="18.5" fill="#f2f2f2" id="svg_57"/>
  <rect x="188.708922" y="253.90779" width="140" height="2" fill="#f2f2f2" id="svg_58"/>
  <rect x="288.708922" y="255.40779" width="2" height="18.5" fill="#f2f2f2" id="svg_59"/>
  <rect x="227.708922" y="255.40779" width="2" height="18.5" fill="#f2f2f2" id="svg_60"/>
  <rect x="-49.291078" y="252.90779" width="140" height="2" fill="#f2f2f2" id="svg_61"/>
  <rect x="50.708922" y="254.40779" width="2" height="18.5" fill="#f2f2f2" id="svg_62"/>
  <rect x="-10.291078" y="254.40779" width="2" height="18.5" fill="#f2f2f2" id="svg_63"/>
  <rect x="118.708922" y="152.90779" width="140" height="2" fill="#f2f2f2" id="svg_64"/>
  <rect x="156.708922" y="134.90779" width="2" height="18.5" fill="#f2f2f2" id="svg_65"/>
  <rect x="217.708922" y="134.90779" width="2" height="18.5" fill="#f2f2f2" id="svg_66"/>
 </g>
</svg>