<?xml version="1.0" encoding="UTF-8"?>
<!DOCTYPE svg PUBLIC "-//W3C//DTD SVG 1.1//EN" "http://www.w3.org/Graphics/SVG/1.1/DTD/svg11.dtd">
<!-- Creator: CorelDRAW X8 -->
<svg xmlns="http://www.w3.org/2000/svg" xml:space="preserve" width="11in" height="8.5in" version="1.1" shape-rendering="geometricPrecision" text-rendering="geometricPrecision" image-rendering="optimizeQuality" fill-rule="evenodd" clip-rule="evenodd"
viewBox="0 0 11000 8500"
 xmlns:xlink="http://www.w3.org/1999/xlink">
 <g id="Capa_x0020_1">
  <metadata id="CorelCorpID_0Corel-Layer"/>
  <path fill="#623561" d="M2731 2025c39,169 186,419 115,628 -67,196 -130,392 -208,582 -81,198 -100,181 -142,262 -40,78 41,207 18,303 -47,201 -146,424 -184,617 52,91 172,257 151,385 91,88 233,125 358,46 49,-32 53,-52 82,-79 -49,119 -163,162 -328,134 31,57 71,86 124,138 47,46 79,80 125,126 46,46 79,81 124,129 42,46 73,68 120,115l240 265c144,182 121,168 324,142l-102 -552c-5,-86 -23,-40 27,-62 135,-18 214,-8 234,-59 1,-3 5,-21 6,-27 46,71 56,45 158,35 -66,-99 -137,-144 -202,-225 -56,-69 -233,-818 -268,-943 -70,-251 -18,-353 31,-679 18,-117 36,-235 53,-350 29,-201 25,-184 -16,-375 -38,-143 -67,-575 -242,-533 -24,21 -25,-28 -2,49 52,15 40,18 51,96 17,117 46,274 -8,362 -392,75 -356,-108 -454,-536l-13 -47c-66,8 -128,14 -172,53z"/>
  <path fill="#30551D" d="M5116 2220c-25,188 40,435 -181,455 -326,31 -225,-165 -197,-360l-35 -29c-23,48 -4,45 -120,43l-52 474c-4,1 -10,1 -13,2 -2,0 -8,1 -11,1 -43,12 -49,46 -59,101 24,32 62,45 62,44 2,-4 9,4 14,7l1 50c26,-40 89,-48 175,-36l-8 -172 414 2c-4,49 -10,102 -19,152 -13,77 -33,52 -35,138 -76,2 -102,34 -185,34 -29,-35 -22,-20 -21,-86 0,0 -98,9 -29,69 -3,-2 -27,-20 -31,-23l-56 -69c-85,100 -56,99 -189,115l-2 44c20,100 16,40 -42,65l-30 -123c-2,-62 -1,-85 6,-149 -46,-16 -38,-26 -73,-56 -31,103 30,77 50,163l8 159 -229 -1 -17 -2c8,31 0,14 16,31 88,0 344,25 413,-28 16,-12 -3,-8 24,-24 96,45 -44,39 100,53l300 -4c78,-30 -11,-39 78,-70 1,80 1,160 0,239 0,80 20,133 19,177 -73,6 -153,-7 -224,10 -73,17 -66,44 -166,40 -177,-7 -217,17 -340,91l-439 1388 198 -20c25,-21 -35,-7 54,-38l36 18c6,7 10,10 15,16 5,6 11,10 16,16 -54,5 -44,-18 -42,34 75,0 157,-5 194,33 16,-50 1,-53 13,-100 22,-83 27,-26 37,-85 -31,15 -19,-10 0,38 120,-14 99,-5 202,17l17 11 335 106c37,-51 267,-235 326,-256 -2,93 -35,160 3,226l155 214c2,3 5,7 7,10 2,3 5,7 7,9 2,3 6,7 8,9l122 148c45,66 7,29 79,81 41,-48 42,-139 51,-212 -69,-3 -186,-20 -221,-81 -5,-405 -10,-1071 -130,-1422l-77 -298c2,34 19,41 49,62 -15,-111 -72,-108 -96,-203 51,23 72,51 137,75l21 -71 -187 -94c13,-37 35,-50 93,-74 46,-20 66,-27 111,-11l14 95c11,-12 14,-13 27,-34 16,-29 8,-21 16,-44l-20 -91c-83,-10 -179,75 -254,102 15,-55 278,-303 34,-291 1,36 2,21 30,61 1,2 6,11 7,9 1,-3 6,5 8,9 -26,53 -48,103 -89,134 -30,-137 -54,-510 -58,-672 -2,-100 17,-125 22,-197l-7 -202 -36 70 -104 -22z"/>
  <path fill="#AC6E96" d="M3650 5818c66,223 -128,117 85,407l34 35c75,11 478,225 517,269 82,15 177,82 243,117 130,39 96,44 63,173 153,-30 195,52 342,55 10,25 66,40 89,52 68,36 84,67 160,25 54,-29 -30,11 90,-105l930 -813c-167,1 -523,-138 -691,-192 -214,-68 -1882,-590 -1937,-637 -50,22 -32,-24 -27,62l102 552z"/>
  <path fill="#3E5731" d="M4685 6938c90,9 160,40 231,74l214 104c-52,70 -98,127 -201,162 -110,19 -181,21 -285,-20 -86,-81 -101,-85 -95,-252l64 -59 72 -9zm-2204 -2136l-37 134 437 445c60,64 387,400 416,459l-7 145c22,-32 12,6 27,-66 4,-18 3,-46 3,-65 10,53 240,264 278,385 136,83 106,279 62,440 -22,82 -106,419 -138,462 -6,36 25,38 -127,44l62 -639 -111 679 168 1 0 88 -387 8 -14 16 400 7c36,194 109,301 328,327 233,28 368,-121 455,-229 68,-65 104,-179 167,-251 24,30 44,72 72,101 25,26 60,45 90,72 135,33 139,52 295,27 94,-42 155,-68 231,-147l77 -72 332 153c23,12 35,17 56,28 45,24 32,13 61,41 115,29 240,100 353,148 79,34 291,136 333,170l390 158c93,-1 87,12 171,-24 48,-60 98,-130 95,-248 -3,-107 -70,-145 -168,-172 -7,138 -25,193 -52,317 -58,-15 -263,-91 -310,-119 -97,-59 -22,-170 -97,-307 -72,-134 -39,20 -155,-282 -26,-69 -93,-272 -128,-319 -42,-55 -59,-114 -72,-174 -12,-56 -27,-123 -60,-164 -79,90 -54,103 0,211l28 97c42,116 144,328 153,436 35,52 141,333 168,420 -104,-42 -195,-81 -299,-127 -84,-37 -225,-107 -280,-146l-398 -188 -54 -24 102 -202c-112,17 -150,55 -194,146l-269 -128c-147,-3 -189,-85 -342,-55 33,-129 67,-134 -63,-173 -20,77 -37,145 -55,224 -14,66 -8,45 -37,96l-52 74c-2,2 -6,7 -10,10 -10,76 -97,217 -141,257 -15,31 -32,64 -48,83l-67 65c-178,164 -452,115 -476,-109 60,-3 124,8 163,-21 -33,-80 -81,-121 -148,-158 52,-325 248,-581 111,-907l-34 -35c-213,-290 -19,-184 -85,-407 -203,26 -180,40 -324,-142l-240 -265c-47,-47 -78,-69 -120,-115 -45,-48 -78,-83 -124,-129 -46,-46 -78,-80 -125,-126 -53,-52 -93,-81 -124,-138 165,28 279,-15 328,-134 -29,27 -33,47 -82,79 -125,79 -267,42 -358,-46z"/>
  <path fill="#006523" d="M5997 5213c23,-112 133,-271 220,-282 103,-13 184,166 192,286l-412 -4zm-171 197c-9,73 -10,164 -51,212 -72,-52 -34,-15 -79,-81l-122 -148c-2,-2 -6,-6 -8,-9 -2,-2 -5,-6 -7,-9 -2,-3 -5,-7 -7,-10l-155 -214c-38,-66 -5,-133 -3,-226 -59,21 -289,205 -326,256 55,8 184,41 233,64 64,29 93,118 124,181 60,119 141,283 192,409 98,47 318,104 436,141 170,54 375,2 557,-2l-42 -310c-2,-102 -59,-258 -26,-341 138,-165 514,-33 263,405 -36,102 -120,164 -152,243l96 -8c11,-32 106,-203 123,-223 36,-117 117,-301 28,-426 -92,-130 -242,-113 -385,-46 -3,-4 -6,-16 -6,-14 -2,3 -66,-451 -401,-349 -158,48 -193,285 -201,303 -30,68 5,0 -48,53 -34,33 -52,90 -33,149z"/>
  <path fill="#F4F451" d="M2191 3161l263 48 -123 851 -50 261c0,55 4,65 49,96 38,-193 137,-416 184,-617 23,-96 -58,-225 -18,-303 42,-81 61,-64 142,-262 78,-190 141,-386 208,-582 71,-209 -76,-459 -115,-628 -122,96 -331,-29 -495,370 -80,196 -133,514 -141,746l96 20z"/>
  <path fill="#4B3B3F" d="M5251 7472c2,168 36,225 64,360 40,47 79,121 121,174 360,462 1120,327 1317,-135l-390 -158c-156,286 -754,218 -686,-318 -29,-28 -16,-17 -61,-41 -21,-11 -33,-16 -56,-28l-332 -153c-2,45 30,2 -10,56 9,38 -1,5 42,35l-9 208z"/>
  <path fill="#623561" d="M2610 5867l389 -14 2 102 17 -103 279 -12c-29,-59 -356,-395 -416,-459l-437 -445c-18,16 -28,24 -49,40 -99,-29 -26,-52 -124,-62l-27 955 366 -2z"/>
  <path fill="#FC8202" d="M4432 3747c123,-74 163,-98 340,-91 100,4 93,-23 166,-40 71,-17 151,-4 224,-10 1,-44 -19,-97 -19,-177 1,-79 1,-159 0,-239 -89,31 0,40 -78,70l-300 4c-144,-14 -4,-8 -100,-53 -27,16 -8,12 -24,24 -69,53 -325,28 -413,28 -16,-17 -8,0 -16,-31l-13 -40c-17,5 -110,72 -257,39 -51,-23 -41,5 -34,-90 -2,4 -3,6 -4,12 -1,8 -7,21 -8,26 -2,3 -3,9 -5,13l-16 39c-39,0 -61,6 -97,-8 -4,-2 -8,-4 -11,-6 -52,-26 19,-25 -60,-38 -36,63 -5,242 -17,333 -13,97 -24,12 -24,91 169,22 517,-16 602,20 74,31 64,61 71,149l93 -25z"/>
  <path fill="#6A5174" d="M6749 5963l412 -24c-302,17 -654,93 -958,94l-930 813c-120,116 -36,76 -90,105 -76,42 -92,11 -160,-25 -23,-12 -79,-27 -89,-52l269 128c44,-91 82,-129 194,-146 46,-48 464,-251 580,-266 -54,-108 -79,-121 0,-211 33,41 48,108 60,164 13,60 30,119 72,174l86 8c-7,-94 -10,-81 -43,-155 -2,-4 -5,-8 -7,-13 -29,-71 -68,-54 1,-79 45,-16 39,33 48,17 3,-4 10,7 14,11 2,-68 -22,-34 124,-100 178,-80 980,-448 1023,-489 -93,-61 -437,-123 -483,-177 -17,20 -112,191 -123,223z"/>
  <path fill="#16311B" d="M2533 6523l-38 959c-5,94 -5,24 18,51l725 0 -82 -122c-3,-3 -7,-6 -9,-9l-39 -40c-83,-46 -157,-37 -257,-60l177 -880c-98,-1 -113,-27 -229,-33 -186,-8 -171,14 -236,13l-30 121z"/>
  <path fill="#16311B" d="M3290 5985l-6 301 -115 -1 -42 1037 387 -8 0 -88 -168 -1 111 -679 -62 639c152,-6 121,-8 127,-44l-58 -8c-2,-146 151,-730 149,-798 -1,-39 -11,-27 -15,-96 -38,-121 -268,-332 -278,-385 0,19 1,47 -3,65 -15,72 -5,34 -27,66z"/>
  <path fill="#4B3B3F" d="M6109 6717c35,47 102,250 128,319 116,302 83,148 155,282 75,137 0,248 97,307 47,28 252,104 310,119 27,-124 45,-179 52,-317l-39 -178c-39,-119 -91,-199 -154,-281 -40,-52 -60,-66 -114,-104 -33,-24 -106,-66 -130,-91 -196,-58 -109,-120 -206,-267 -4,-4 -11,-15 -14,-11 -9,16 -3,-33 -48,-17 -69,25 -30,8 -1,79 2,5 5,9 7,13 33,74 36,61 43,155l-86 -8z"/>
  <path fill="#FF8700" d="M4514 1829l41 21c43,-138 63,-278 115,-418 61,-166 115,-261 321,-211 257,-12 278,179 347,379 14,-16 96,-187 103,-241 12,-100 -33,-221 -79,-256 61,16 73,38 146,55 -50,-62 -103,-79 -195,-106 -591,-171 -1260,215 -945,639 37,50 131,109 146,138z"/>
  <path fill="#FF7474" d="M2988 1713c6,2 29,11 30,11 38,22 -2,-10 31,23l-50 267c-11,123 -42,236 104,253 169,19 151,-79 224,-170 -23,-77 -22,-28 2,-49l-4 -113c21,-76 61,-35 114,-136 40,-75 88,-219 83,-304 -21,-44 6,73 25,-168 -114,-45 -106,-135 -227,-131 -51,46 -19,48 -72,92 -55,47 -41,-6 -74,77 -55,-27 -89,-54 -123,-21 -86,81 109,114 11,366l-74 3z"/>
  <path fill="#57472A" d="M4191 5115c-124,48 -395,47 -500,113l1294 402c68,-10 254,-95 309,-125 -47,-4 -143,-42 -202,-61 -36,-13 -68,-21 -104,-32 -82,-25 -80,-15 -79,-69 34,-168 -24,-151 -40,-166l-12 135c-74,-49 -58,35 -76,-88l-27 56c-5,-81 5,-133 -21,-205l-17 -11c-24,56 -20,127 -21,195 -35,-26 -24,-10 -80,-26 -53,-15 -23,-18 -84,-22l-17 -164c-19,-48 -31,-23 0,-38 -10,59 -15,2 -37,85 -12,47 3,50 -13,100 -37,-38 -119,-33 -194,-33 -2,-52 -12,-29 42,-34 -5,-6 -11,-10 -16,-16 -5,-6 -9,-9 -15,-16l-36 -18c-89,31 -29,17 -54,38z"/>
  <path fill="#1944AA" d="M4555 1850l-9 315 37 164c116,2 97,5 120,-43l35 29 90 2 -68 -167c37,35 65,85 90,116l102 -13c7,-25 16,8 -7,-34 -181,-121 12,-128 -102,-464 -53,-156 -36,-394 159,-481 64,55 93,121 178,151 -51,-206 -146,-94 -189,-204 -206,-50 -260,45 -321,211 -52,140 -72,280 -115,418z"/>
  <path fill="#0D225D" d="M2988 1713l74 -3c98,-252 -97,-285 -11,-366 34,-33 68,-6 123,21 33,-83 19,-30 74,-77 53,-44 21,-46 72,-92 121,-4 113,86 227,131 67,7 200,-11 196,-99l-2 -15c0,-1 -1,-6 0,-8l105 -39c18,-113 -38,-154 -93,-204 -40,44 -41,111 -148,48 -22,-14 -45,-69 -195,-45 -158,24 -141,-1 -202,13 -84,20 -75,85 -133,120 -15,9 -265,56 -124,311 46,83 138,142 76,248 -43,72 -63,20 -39,56z"/>
  <path fill="#F14E78" d="M4229 3234l229 1 -8 -159c-20,-86 -81,-60 -50,-163 35,30 27,40 73,56 -7,64 -8,87 -6,149l30 123c58,-25 62,35 42,-65 -32,-105 -43,-44 -14,-168l-1 -50c-5,-3 -12,-11 -14,-7 0,1 -38,-12 -62,-44 10,-55 16,-89 59,-101 3,0 9,-1 11,-1 3,-1 9,-1 13,-2l52 -474 -37 -164c-210,111 -406,638 -363,734l24 30c3,3 7,6 9,10 34,51 13,193 13,295z"/>
  <path fill="#4B3B3F" d="M5349 7082l398 188c84,-117 204,-177 411,-147 -9,-108 -111,-320 -153,-436 -181,58 -237,35 -396,140 -180,119 -204,231 -260,255z"/>
  <path fill="#F5C82E" d="M2271 4914c98,10 25,33 124,62 21,-16 31,-24 49,-40l37 -134c21,-128 -99,-294 -151,-385 -45,-31 -49,-41 -49,-96l50 -261 -229 -31c-92,-9 -19,-5 -48,22l0 4 0 257c0,9 1,17 2,25 6,46 23,75 27,109 7,77 -10,12 -29,92l0 24c36,63 28,13 42,94 23,125 -15,48 79,186 33,49 34,48 96,72z"/>
  <path fill="#FD7A79" d="M4945 2219l151 -23 8 -92c-40,-415 151,-317 76,-679 -85,-30 -114,-96 -178,-151 -195,87 -212,325 -159,481 114,336 -79,343 102,464z"/>
  <path fill="#F04A75" d="M5256 2172l7 202c41,53 65,225 85,301 30,119 70,160 125,260 75,-31 52,-63 123,-28 31,-4 135,-65 154,-99l62 -86 -298 -412c-51,-58 -78,-63 -114,-128l-96 22c-15,-21 -1,2 -20,-36 -6,-11 -3,-10 -18,-33l-10 37z"/>
  <path fill="#FF7474" d="M2102 4029l229 31 123 -851 -263 -48c5,175 -26,258 -45,424 -16,143 -21,304 -44,444z"/>
  <path fill="#0F2280" d="M5180 1425c75,362 -116,264 -76,679 23,31 10,-11 15,48 2,19 -2,47 -3,68l104 22 36 -70 10 -37c15,23 12,22 18,33 19,38 5,15 20,36l96 -22 27 -74c31,41 19,32 76,40l34 -48c-28,-55 -46,-25 -92,-91 -28,-41 -38,-86 -55,-135l-52 -274c-69,-200 -90,-391 -347,-379 43,110 138,-2 189,204z"/>
  <path fill="#39395F" d="M2610 5867l8 488c-55,46 -54,2 -77,42 -12,24 -8,98 -8,126l30 -121c65,1 50,-21 236,-13 116,6 131,32 229,33 -62,-63 49,26 -71,-43 -4,-2 -10,-4 -14,-8l58 -416 -2 -102 -389 14z"/>
  <path fill="#B1A598" d="M6363 7713c-42,-34 -254,-136 -333,-170 -113,-48 -238,-119 -353,-148 -68,536 530,604 686,318z"/>
  <path fill="#4E354F" d="M4909 5343l494 154 -132 234 346 104c-51,-126 -132,-290 -192,-409 -31,-63 -60,-152 -124,-181 -49,-23 -178,-56 -233,-64l-335 -106c26,72 16,124 21,205l27 -56c18,123 2,39 76,88l12 -135c16,15 74,-2 40,166z"/>
  <path fill="#FA5E00" d="M5338 1600l52 274c211,-81 398,-239 310,-528 -36,-62 -125,-192 -192,-188 -73,-17 -85,-39 -146,-55 46,35 91,156 79,256 -7,54 -89,225 -103,241z"/>
  <path fill="#FF9BB5" d="M4945 2219c23,42 14,9 7,34l-102 13c-25,-31 -53,-81 -90,-116l68 167 -90 -2c-28,195 -129,391 197,360 221,-20 156,-267 181,-455 1,-21 5,-49 3,-68 -5,-59 8,-17 -15,-48l-8 92 -151 23z"/>
  <path fill="#DAE347" d="M3327 2097c-73,91 -55,189 -224,170 -146,-17 -115,-130 -104,-253l-83 5c98,428 62,611 454,536 54,-88 25,-245 8,-362 -11,-78 1,-81 -51,-96z"/>
  <path fill="#498E2F" d="M4525 3008c-29,124 -18,63 14,168l2 -44c133,-16 104,-15 189,-115l56 69c4,3 28,21 31,23 -69,-60 29,-69 29,-69 -1,66 -8,51 21,86 83,0 109,-32 185,-34 2,-86 22,-61 35,-138 9,-50 15,-103 19,-152l-414 -2 8 172c-86,-12 -149,-4 -175,36z"/>
  <path fill="#FECA01" d="M5583 3310c-8,23 0,15 -16,44 -13,21 -16,22 -27,34l-31 84 -21 71c-65,-24 -86,-52 -137,-75 24,95 81,92 96,203 -30,-21 -47,-28 -49,-62l77 298 64 -9 54 -6 117 -37c-30,-30 10,-12 -37,-26 -13,-4 -32,-4 -46,-5 50,-21 25,-7 47,-47l-105 -12c27,-217 127,-160 251,-361 -36,-32 -73,-74 -107,-111l-72 -51 -58 68z"/>
  <path fill="#CCAC95" d="M5747 7270c55,39 196,109 280,146 104,46 195,85 299,127 -27,-87 -133,-368 -168,-420 -207,-30 -327,30 -411,147z"/>
  <path fill="#FF7474" d="M5596 2907c32,73 77,142 119,213 60,99 84,107 -2,173 34,37 71,79 107,111 57,-28 146,-147 177,-211 -30,-61 -190,-342 -247,-385 -19,34 -123,95 -154,99z"/>
  <path fill="#FF8700" d="M4375 7050c4,-3 8,-8 10,-10l52 -74c29,-51 23,-30 37,-96 18,-79 35,-147 55,-224 -66,-35 -161,-102 -243,-117l89 521z"/>
  <path fill="#D66505" d="M4985 5630c69,51 199,73 286,101l132 -234 -494 -154c-1,54 -3,44 79,69 36,11 68,19 104,32 59,19 155,57 202,61 -55,30 -241,115 -309,125z"/>
  <path fill="#FFA103" d="M4920 7392l-7 78 338 2 9 -208c-43,-30 -33,3 -42,-35 40,-54 8,-11 10,-56l-77 72c-76,79 -137,105 -231,147z"/>
  <path fill="#16311B" d="M5593 3892l-54 6c71,234 160,404 196,680l96 2c15,-186 -187,-527 -238,-688z"/>
  <path fill="#FF8700" d="M4296 7443c84,7 217,-3 302,-12 25,-34 16,-6 27,-66 -30,-27 -65,-46 -90,-72 -28,-29 -48,-71 -72,-101 -63,72 -99,186 -167,251z"/>
  <path fill="#4E354F" d="M6610 5974l43 -3c32,-79 116,-141 152,-243l-237 -64 42 310z"/>
  <path fill="#4E354F" d="M4716 5064c-103,-22 -82,-31 -202,-17l17 164c61,4 31,7 84,22 56,16 45,0 80,26 1,-68 -3,-139 21,-195z"/>
  <path fill="#FF8700" d="M4929 7278c103,-35 149,-92 201,-162l-214 -104 13 266z"/>
  <path fill="#FF8700" d="M4644 7258l41 -320 -72 9 -64 59c-6,167 9,171 95,252z"/>
  <path fill="#77B839" d="M3939 3118c139,3 184,-30 211,-152 -139,6 -195,25 -211,152z"/>
 </g>
</svg>
