<svg width="1078" height="694.18" xmlns="http://www.w3.org/2000/svg">
 <title>react</title>

 <g>
  <title>background</title>
  <rect fill="none" id="canvas_background" height="696.18" width="1080" y="-1" x="-1"/>
 </g>
 <g>
  <title>Layer 1</title>
  <path id="svg_1" fill="#f2f2f2" d="m767.68,330.789996l6.89,-2.7c0.66,-0.26 1.31,-0.54 2,-0.81a59.85,59.85 0 0 1 15.28,-115.77l-4.8,24.2l18.22,-23.92l0.16,0a59.87,59.87 0 0 1 51.16,67.45c-0.15,1.13 -0.39,2.23 -0.6,3.34c5.61,-4.43 10.87,-9.32 14.81,-15c8,-11.54 10.71,-25.76 13.47,-43.17c5.47,-34.48 10.4,-69.34 14.84,-104.18a59.83,59.83 0 0 1 -42,-65.36c0.25,-1.82 0.6,-3.59 1,-5.34c0.1,-0.44 0.2,-0.88 0.31,-1.31c0.43,-1.69 0.91,-3.35 1.47,-5c0.09,-0.27 0.21,-0.52 0.3,-0.78c0.5,-1.37 1,-2.72 1.65,-4c0.22,-0.5 0.44,-1 0.67,-1.47c0.69,-1.43 1.42,-2.83 2.22,-4.19c0.27,-0.45 0.56,-0.88 0.83,-1.33c0.62,-1 1.27,-2 1.94,-2.93c0.36,-0.5 0.71,-1 1.08,-1.49l0.27,-0.39l0,0a59.81,59.81 0 0 1 74.64,-17l-6.24,31.49l18,-23.64a59.5,59.5 0 0 1 16.32,68.62l0.07,0c-0.17,0.4 -0.38,0.78 -0.55,1.18c-0.33,0.74 -0.67,1.47 -1,2.2c-0.46,0.93 -1,1.84 -1.45,2.74c-0.38,0.68 -0.75,1.36 -1.16,2c-0.59,1 -1.23,1.9 -1.87,2.83c-0.38,0.54 -0.73,1.1 -1.12,1.63c-1,1.39 -2.12,2.72 -3.26,4c-0.4,0.45 -0.83,0.86 -1.25,1.3c-0.81,0.86 -1.62,1.71 -2.48,2.52c-0.53,0.5 -1.09,1 -1.64,1.46c-0.79,0.7 -1.6,1.38 -2.43,2c-0.59,0.47 -1.19,0.92 -1.79,1.36c-0.87,0.63 -1.75,1.22 -2.64,1.81c-0.6,0.39 -1.2,0.78 -1.81,1.15c-1,0.61 -2.05,1.17 -3.1,1.72c-0.53,0.27 -1,0.57 -1.59,0.83c-1.58,0.77 -3.2,1.48 -4.85,2.11c-0.31,0.12 -0.64,0.21 -0.95,0.32c-1.38,0.5 -2.77,1 -4.18,1.35c-0.61,0.17 -1.23,0.31 -1.85,0.46c-1.15,0.28 -2.31,0.54 -3.48,0.76q-1,0.18 -2.07,0.33c-1.15,0.17 -2.31,0.3 -3.48,0.4c-0.69,0.06 -1.37,0.12 -2.07,0.16c-1.26,0.06 -2.53,0.07 -3.8,0.06a2.08,2.08 0 0 0 -0.25,0q-2.82,22 -5.92,44a59.82,59.82 0 0 1 86.4,-10.32l-15.68,26.58l25.21,-16.59a59.68,59.68 0 0 1 11.5,44.16a58.76,58.76 0 0 1 -4.5,15.94a59.83,59.83 0 0 1 -111.19,-4c-0.23,1.48 -0.45,3 -0.68,4.46c-2.44,15.35 -5.47,34.46 -16.23,50c-7.29,10.56 -17.33,18.36 -27.09,25.22q-9.52,6.7 -19.48,12.77a59.85,59.85 0 0 1 -24.53,13.74q-16,8.19 -32.69,14.81l-6.95,2.72c-6.25,2.44 -12.65,4.94 -19,7.6c1,0.09 2,0.17 3,0.3a59.9,59.9 0 0 1 50.86,49.05l-42.31,23.11l42.18,-1.89a59.16,59.16 0 0 1 -11.42,25.68a59.87,59.87 0 0 1 -82.7,11.74l2.1,3.91c1.4,2.58 2.78,5.15 4.12,7.7c18.33,34.74 19.66,64.74 3.75,84.49l-13,-10.45c15.49,-19.22 3.2,-49.77 -5.5,-66.27c-1.32,-2.5 -2.68,-5 -4,-7.56c-11.77,-21.83 -25.12,-46.57 -19.77,-72.9c8,-39.7 51.05,-56.5 85.68,-70z"/>
  <path id="svg_2" fill="#f2f2f2" d="m269.6,519.009996l-5.38,-2.11c-0.52,-0.2 -1,-0.43 -1.54,-0.63a46.75,46.75 0 0 0 -11.94,-90.42l3.75,18.9l-14.22,-18.68l-0.13,0a46.76,46.76 0 0 0 -40,52.68c0.12,0.89 0.31,1.74 0.47,2.61a55.84,55.84 0 0 1 -11.56,-11.73c-6.23,-9 -8.37,-20.12 -10.53,-33.71c-4.23,-26.93 -8.07,-54.15 -11.52,-81.33a46.72,46.72 0 0 0 32.77,-51.05c-0.2,-1.42 -0.47,-2.8 -0.79,-4.17l-0.24,-1c-0.34,-1.32 -0.71,-2.62 -1.15,-3.88c-0.07,-0.21 -0.16,-0.41 -0.24,-0.61c-0.39,-1.07 -0.82,-2.12 -1.28,-3.15c-0.18,-0.38 -0.35,-0.77 -0.53,-1.15c-0.54,-1.11 -1.11,-2.2 -1.73,-3.26c-0.21,-0.36 -0.44,-0.7 -0.65,-1c-0.49,-0.78 -1,-1.55 -1.52,-2.29c-0.28,-0.39 -0.55,-0.79 -0.84,-1.17l-0.21,-0.3l0,0a46.76,46.76 0 0 0 -58.29,-13.32l4.88,24.6l-14.07,-18.46a46.48,46.48 0 0 0 -12.75,53.59l-0.05,0c0.13,0.31 0.29,0.61 0.43,0.92c0.26,0.58 0.52,1.15 0.8,1.72q0.54,1.08 1.14,2.13c0.29,0.54 0.58,1.07 0.9,1.59c0.46,0.75 1,1.48 1.46,2.21c0.3,0.42 0.57,0.86 0.88,1.27c0.8,1.08 1.65,2.12 2.54,3.13c0.31,0.35 0.65,0.67 1,1c0.63,0.67 1.27,1.33 1.94,2c0.41,0.4 0.85,0.77 1.28,1.14q0.93,0.83 1.89,1.59c0.46,0.36 0.93,0.71 1.4,1.06c0.68,0.49 1.37,1 2.06,1.41c0.47,0.31 0.94,0.61 1.42,0.9c0.79,0.48 1.6,0.91 2.42,1.34c0.42,0.22 0.82,0.45 1.24,0.66c1.24,0.6 2.5,1.15 3.79,1.64c0.24,0.1 0.5,0.16 0.74,0.25c1.07,0.39 2.16,0.75 3.27,1.06c0.47,0.13 1,0.24 1.44,0.35c0.9,0.22 1.8,0.43 2.72,0.6l1.61,0.26c0.9,0.13 1.81,0.23 2.72,0.31c0.54,0.05 1.07,0.09 1.62,0.12c1,0.05 2,0.06 3,0.05l0.19,0q2.2,17.22 4.62,34.41a46.71,46.71 0 0 0 -67.48,-8.14l12.14,20.64l-19.68,-12.95a46.57,46.57 0 0 0 -9,34.49a45.8,45.8 0 0 0 3.53,12.46a46.73,46.73 0 0 0 86.84,-3.12c0.18,1.15 0.35,2.32 0.53,3.48c1.9,12 4.27,26.92 12.67,39.08c5.7,8.24 13.54,14.33 21.16,19.69q7.44,5.24 15.21,10a46.88,46.88 0 0 0 19.16,10.74c8.32,4.26 16.84,8.14 25.54,11.56l5.42,2.13c4.88,1.9 9.88,3.85 14.81,5.93c-0.78,0.07 -1.57,0.13 -2.36,0.24a46.77,46.77 0 0 0 -39.72,38.27l33,18l-32.94,-1.47a46.78,46.78 0 0 0 73.57,29.2c-0.55,1 -1.09,2 -1.64,3.05c-1.09,2 -2.17,4 -3.22,6c-14.31,27.13 -15.35,50.57 -2.92,66l10.13,-8.16c-12.1,-15 -2.5,-38.87 4.3,-51.76c1,-1.95 2.09,-3.92 3.16,-5.9c9.19,-17 19.61,-36.37 15.46,-56.94c-6.21,-30.94 -39.86,-44.02 -66.9,-54.6z"/>
  <path id="svg_6" stroke-width="4" stroke-miterlimit="10" stroke="#3f3d56" fill="none" d="m85,686.319996c-3,-5.51 0.4,-12.26 4.28,-17.18s8.61,-10 8.51,-16.29c-0.14,-9 -9.7,-14.31 -17.33,-19.08a84.78,84.78 0 0 1 -15.56,-12.51a23,23 0 0 1 -4.78,-6.4c-1.58,-3.52 -1.53,-7.52 -1.43,-11.38q0.5,-19.26 1.9,-38.48"/>
  <path id="svg_7" fill="#299a65" d="m46.11,564.289996a14,14 0 0 1 7,-11.49l3.14,6.21l-0.09,-7.52a13.86,13.86 0 0 1 4.62,-0.56a14,14 0 1 1 -14.67,13.36z"/>
  <path id="svg_8" fill="#299a65" d="m71.14,659.289996a14,14 0 0 0 26.5,-5.76a13.82,13.82 0 0 0 -0.91,-5.69a14,14 0 0 0 -26.27,0.15l8.77,7.13l-9.64,-2.24a13.89,13.89 0 0 0 1.55,6.41z"/>
  <path id="svg_9" fill="#299a65" d="m78.07,632.039996a14,14 0 0 0 4.46,-27.54l0.07,5.79l-3.18,-6.29l0,0a14,14 0 0 0 -1.31,28.05l-0.04,-0.01z"/>
  <path id="svg_10" fill="#299a65" d="m44,609.369996a14,14 0 0 0 1.32,-28a13.88,13.88 0 0 0 -7.52,1.78l2.48,6.8l-5.11,-4.9a14,14 0 0 0 -4.53,9.69a13.33,13.33 0 0 0 0.36,3.85a14,14 0 0 0 13,10.78z"/>
  <path id="svg_11" opacity="0.1" d="m48,568.029996c3.24,0.36 6.39,1.37 9.64,1.57s6.82,-0.58 8.88,-3.1c1.11,-1.37 1.66,-3.09 2.59,-4.57a10.08,10.08 0 0 1 3.54,-3.33a14,14 0 1 1 -26.24,9.32c0.53,0.02 1.06,0.06 1.59,0.11z"/>
  <path id="svg_12" opacity="0.1" d="m44,609.369996a14,14 0 0 0 13.35,-20a10.4,10.4 0 0 0 -2.82,2.83c-1,1.51 -1.61,3.25 -2.78,4.64c-2.19,2.57 -5.92,3.41 -9.31,3.25s-6.66,-1.11 -10,-1.42c-0.47,0 -0.94,-0.08 -1.41,-0.09a14,14 0 0 0 12.97,10.79z"/>
  <path id="svg_13" opacity="0.1" d="m78.07,632.039996a14,14 0 0 0 13.47,-19.76a11.36,11.36 0 0 0 -3,2.85c-1.09,1.54 -1.77,3.31 -3,4.73c-2.36,2.64 -6.34,3.57 -9.93,3.48s-6.82,-0.93 -10.28,-1.19a14,14 0 0 0 12.74,9.89z"/>
  <path id="svg_14" opacity="0.1" d="m71.14,659.289996a14,14 0 0 0 26.5,-5.76a13.82,13.82 0 0 0 -0.91,-5.69a14,14 0 0 0 -3.08,2.74c-1.34,1.63 -2.21,3.47 -3.76,5c-2.87,2.82 -7.5,4 -11.62,4.09a62.35,62.35 0 0 1 -7.13,-0.38z"/>
  <path id="svg_15" fill="#656380" d="m106.19,679.979996s-11.08,-0.34 -14.41,-2.72s-17,-5.22 -17.87,-1.4s-16.65,19 -4.14,19.06s29.06,-2 32.39,-4s4.03,-10.94 4.03,-10.94z"/>
  <path id="svg_16" opacity="0.2" d="m69.54,693.589996c12.51,0.1 29.06,-2 32.4,-4c2.53,-1.54 3.54,-7.09 3.88,-9.65l0.37,0s-0.7,8.93 -4,11s-19.89,4.08 -32.39,4c-3.61,0 -4.86,-1.31 -4.79,-3.22c0.47,1.13 1.85,1.87 4.53,1.87z"/>
  <path id="svg_17" stroke-width="4" stroke-miterlimit="10" stroke="#3f3d56" fill="none" d="m1055,695.319996c-3,-5.51 0.4,-12.26 4.28,-17.18s8.61,-10 8.51,-16.29c-0.14,-9 -9.7,-14.31 -17.33,-19.08a84.78,84.78 0 0 1 -15.56,-12.51a23,23 0 0 1 -4.78,-6.4c-1.58,-3.52 -1.53,-7.52 -1.43,-11.38q0.49,-19.26 1.9,-38.48"/>
  <path id="svg_18" fill="#299a65" d="m1016.11,573.289996a14,14 0 0 1 7,-11.49l3.14,6.21l-0.09,-7.52a13.86,13.86 0 0 1 4.62,-0.56a14,14 0 1 1 -14.68,13.36l0.01,0z"/>
  <path id="svg_19" fill="#299a65" d="m1041.14,668.289996a14,14 0 0 0 26.5,-5.76a13.82,13.82 0 0 0 -0.91,-5.69a14,14 0 0 0 -26.27,0.15l8.77,7.13l-9.64,-2.24a13.89,13.89 0 0 0 1.55,6.41z"/>
  <path id="svg_20" fill="#299a65" d="m1048.07,641.039996a14,14 0 0 0 4.46,-27.54l0.07,5.79l-3.18,-6.29l0,0a14,14 0 0 0 -1.31,28.05l-0.04,-0.01z"/>
  <path id="svg_21" fill="#299a65" d="m1014,618.369996a14,14 0 0 0 1.32,-28a13.88,13.88 0 0 0 -7.52,1.78l2.48,6.8l-5.11,-4.9a14,14 0 0 0 -4.53,9.69a13.33,13.33 0 0 0 0.36,3.85a14,14 0 0 0 13,10.78z"/>
  <path id="svg_22" opacity="0.1" d="m1018,577.029996c3.24,0.36 6.39,1.37 9.64,1.57s6.82,-0.58 8.88,-3.1c1.11,-1.37 1.66,-3.09 2.59,-4.57a10.08,10.08 0 0 1 3.54,-3.33a14,14 0 1 1 -26.24,9.32c0.53,0.02 1.06,0.06 1.59,0.11z"/>
  <path id="svg_23" opacity="0.1" d="m1014,618.369996a14,14 0 0 0 13.35,-20a10.4,10.4 0 0 0 -2.82,2.83c-1,1.51 -1.61,3.25 -2.78,4.64c-2.19,2.57 -5.92,3.41 -9.31,3.25s-6.66,-1.11 -10,-1.42c-0.47,0 -0.94,-0.08 -1.41,-0.09a14,14 0 0 0 12.97,10.79z"/>
  <path id="svg_24" opacity="0.1" d="m1048.07,641.039996a14,14 0 0 0 13.47,-19.76a11.36,11.36 0 0 0 -3,2.85c-1.09,1.54 -1.77,3.31 -3,4.73c-2.36,2.64 -6.34,3.57 -9.93,3.48s-6.82,-0.93 -10.28,-1.19a14,14 0 0 0 12.74,9.89z"/>
  <path id="svg_25" opacity="0.1" d="m1041.14,668.289996a14,14 0 0 0 26.5,-5.76a13.82,13.82 0 0 0 -0.91,-5.69a14,14 0 0 0 -3.08,2.74c-1.34,1.63 -2.21,3.47 -3.76,5c-2.87,2.82 -7.5,4 -11.62,4.09a62.35,62.35 0 0 1 -7.13,-0.38z"/>
  <path id="svg_26" fill="#656380" d="m1076.19,688.979996s-11.08,-0.34 -14.41,-2.72s-17,-5.22 -17.87,-1.4s-16.65,19 -4.14,19.06s29.06,-2 32.39,-4s4.03,-10.94 4.03,-10.94z"/>
  <path id="svg_27" opacity="0.2" d="m1039.54,702.589996c12.51,0.1 29.06,-2 32.4,-4c2.53,-1.54 3.54,-7.09 3.88,-9.65l0.37,0s-0.7,8.93 -4,11s-19.89,4.08 -32.39,4c-3.61,0 -4.86,-1.31 -4.79,-3.22c0.47,1.13 1.85,1.87 4.53,1.87z"/>
  <path id="svg_55" stroke-width="4" stroke-miterlimit="10" stroke="#3f3d56" fill="none" d="m826.73,672.959996c4.74,-8.78 -0.64,-19.54 -6.82,-27.37s-13.73,-16 -13.57,-26c0.23,-14.35 15.45,-22.81 27.62,-30.42a134.77,134.77 0 0 0 24.79,-19.93c3,-3.05 5.87,-6.31 7.62,-10.21c2.52,-5.6 2.45,-12 2.29,-18.12q-0.79,-30.71 -3,-61.34"/>
  <path id="svg_56" fill="#299a65" d="m888.74,478.489996a22.31,22.31 0 0 0 -11.16,-18.32l-5,9.9l0.15,-12a22.37,22.37 0 1 0 16,20.41l0.01,0.01z"/>
  <path id="svg_57" fill="#299a65" d="m848.86,629.879996a22.36,22.36 0 1 1 1.08,-18l-14,11.37l15.37,-3.57a22.25,22.25 0 0 1 -2.45,10.2z"/>
  <path id="svg_58" fill="#299a65" d="m837.81,586.449996a22.37,22.37 0 0 1 -7.09,-43.86l-0.12,9.22l5.06,-10l0.06,0a22.37,22.37 0 1 1 2.09,44.69l0,-0.05z"/>
  <path id="svg_59" fill="#299a65" d="m892.11,550.319996a22.37,22.37 0 1 1 9.89,-41.86l-4,10.83l8.13,-7.8a22.37,22.37 0 0 1 -14.07,38.83l0.05,0z"/>
  <path id="svg_60" opacity="0.1" d="m885.74,484.449996c-5.17,0.57 -10.19,2.18 -15.37,2.5s-10.87,-0.92 -14.14,-5c-1.77,-2.17 -2.65,-4.91 -4.14,-7.28a16,16 0 0 0 -5.63,-5.3a22.37,22.37 0 1 0 41.81,14.84c-0.85,0.09 -1.69,0.15 -2.53,0.24z"/>
  <path id="svg_61" opacity="0.1" d="m892.11,550.319996a22.39,22.39 0 0 1 -21.28,-31.91a16.37,16.37 0 0 1 4.5,4.51c1.59,2.4 2.56,5.18 4.43,7.39c3.48,4.09 9.44,5.43 14.84,5.19s10.6,-1.78 16,-2.28c0.75,-0.06 1.5,-0.11 2.26,-0.13a22.37,22.37 0 0 1 -20.75,17.23z"/>
  <path id="svg_62" opacity="0.1" d="m837.81,586.449996a22.37,22.37 0 0 1 -21.46,-31.49a17.83,17.83 0 0 1 4.73,4.55c1.74,2.45 2.82,5.27 4.86,7.54c3.77,4.2 10.11,5.68 15.83,5.54c5.54,-0.12 10.87,-1.48 16.38,-1.9a22.36,22.36 0 0 1 -20.34,15.76z"/>
  <path id="svg_63" opacity="0.1" d="m848.86,629.879996a22.37,22.37 0 0 1 -40.78,-18.29a22.27,22.27 0 0 1 4.91,4.38c2.13,2.59 3.53,5.53 6,7.94c4.57,4.49 11.95,6.34 18.52,6.51a97.1,97.1 0 0 0 11.35,-0.54z"/>
  <path id="svg_64" fill="#656380" d="m793,662.849996s17.65,-0.54 23,-4.33s27.16,-8.31 28.48,-2.24s26.53,30.22 6.6,30.38s-46.31,-3.1 -51.62,-6.34s-6.46,-17.47 -6.46,-17.47z"/>
  <path id="svg_65" opacity="0.2" d="m851.4,684.589996c-19.93,0.16 -46.31,-3.11 -51.62,-6.34c-4,-2.47 -5.65,-11.3 -6.19,-15.38l-0.59,0s1.12,14.24 6.43,17.47s31.69,6.5 51.62,6.34c5.75,0 7.74,-2.09 7.63,-5.12c-0.8,1.81 -2.99,2.95 -7.28,3.03z"/>
  <path id="svg_66" fill="#f2f2f2" d="m323,42.859996l-18.25,11.57l11.08,-20.15a18,18 0 0 0 -11,-3.94l-0.3,0a21.58,21.58 0 0 1 -3.78,-0.28l-6.19,3.92l2.65,-4.82a22.06,22.06 0 0 1 -10.82,-8.21l-11.07,7l7,-12.72c-6.48,-7.77 -15.2,-12.54 -24.81,-12.54c-11.51,0 -21.76,6.85 -28.38,17.52a21.24,21.24 0 0 1 -18.76,10.12l-0.62,0c-12.71,0 -23,14.41 -23,32.19s10.3,32.18 23,32.18a17.2,17.2 0 0 0 8,-2c8.29,-4.31 19.17,-4.39 27.85,-0.54a29,29 0 0 0 23.68,0.05c8.62,-3.77 19.37,-3.69 27.61,0.54a17.23,17.23 0 0 0 7.93,2c12.71,0 23,-14.41 23,-32.18a40.86,40.86 0 0 0 -4.82,-19.71z"/>
  <path id="svg_67" opacity="0.03" d="m288.59,89.949996a34,34 0 0 0 -19.72,2.14a29,29 0 0 1 -23.67,-0.05c-8.69,-3.85 -19.57,-3.77 -27.86,0.54a17.2,17.2 0 0 1 -8,2c-11.29,0 -20.68,-11.38 -22.64,-26.38a21.58,21.58 0 0 0 5.64,-6.08c6.66,-10.66 16.87,-17.53 28.38,-17.53s21.64,6.77 28.26,17.32a21.79,21.79 0 0 0 18.76,10.31l0.26,0c9,0.01 16.8,7.22 20.59,17.73z"/>
  <path id="svg_68" fill="#f2f2f2" d="m800.07,66.419996l-9.07,5.77l5.53,-10a9,9 0 0 0 -5.51,-2l-0.14,0a10.79,10.79 0 0 1 -1.89,-0.14l-3.09,2l1.3,-2.46a11,11 0 0 1 -5.4,-4.09l-5.52,3.5l3.49,-6.34a16.17,16.17 0 0 0 -12.37,-6.26c-5.75,0 -10.86,3.42 -14.16,8.74a10.57,10.57 0 0 1 -9.36,5l-0.31,0c-6.34,0 -11.48,7.19 -11.48,16s5.14,16.05 11.48,16.05a8.62,8.62 0 0 0 4,-1a16.56,16.56 0 0 1 13.89,-0.27a14.52,14.52 0 0 0 11.81,0a16.58,16.58 0 0 1 13.77,0.27a8.61,8.61 0 0 0 4,1c6.34,0 11.48,-7.18 11.48,-16.05a20.28,20.28 0 0 0 -2.45,-9.72z"/>
  <path id="svg_69" opacity="0.03" d="m782.92,89.909996a17,17 0 0 0 -9.83,1.07a14.52,14.52 0 0 1 -11.81,0a16.58,16.58 0 0 0 -13.9,0.27a8.55,8.55 0 0 1 -4,1c-5.64,0 -10.32,-5.67 -11.3,-13.15a10.93,10.93 0 0 0 2.82,-3c3.3,-5.32 8.42,-8.73 14.16,-8.73s10.79,3.37 14.09,8.63a10.85,10.85 0 0 0 9.36,5.14l0.15,0c4.49,-0.07 8.34,3.53 10.26,8.77z"/>
  <path id="svg_70" fill="#f2f2f2" d="m204.34,215.859996l14.66,9.28l-8.88,-16.15a14.48,14.48 0 0 1 8.85,-3.15l0.23,0a17.08,17.08 0 0 0 3,-0.22l4.95,3.14l-2.15,-3.86a17.78,17.78 0 0 0 8.67,-6.58l8.87,5.62l-5.54,-10.19c5.19,-6.22 12.18,-10 19.87,-10c9.23,0 17.44,5.48 22.75,14a17,17 0 0 0 15,8.11l0.5,0c10.18,0 18.43,11.54 18.43,25.78s-8.25,25.79 -18.43,25.79a13.86,13.86 0 0 1 -6.43,-1.61a26.59,26.59 0 0 0 -22.31,-0.43a23.28,23.28 0 0 1 -19,0a26.64,26.64 0 0 0 -22.12,0.43a13.9,13.9 0 0 1 -6.35,1.57c-10.19,0 -18.44,-11.54 -18.44,-25.79a32.78,32.78 0 0 1 3.87,-15.74z"/>
  <path id="svg_71" opacity="0.03" d="m231.89,253.589996a27.36,27.36 0 0 1 15.8,1.72a23.28,23.28 0 0 0 19,0a26.61,26.61 0 0 1 22.32,0.43a13.82,13.82 0 0 0 6.42,1.61c9.05,0 16.57,-9.11 18.14,-21.13a17.44,17.44 0 0 1 -4.52,-4.88c-5.31,-8.54 -13.52,-14 -22.75,-14s-17.33,5.42 -22.64,13.88a17.44,17.44 0 0 1 -15,8.25l-0.23,0c-7.26,-0.07 -13.5,5.71 -16.54,14.12z"/>
 </g>
</svg>