<svg width="2630" height="2630" xmlns="http://www.w3.org/2000/svg" clip-rule="evenodd">

 <g>
  <title>background</title>
  <rect fill="none" id="canvas_background" height="2632" width="2632" y="-1" x="-1"/>
 </g>
 <g>
  <title>Layer 1</title>
  <g id="Capa_x0020_1">
   <metadata transform="translate(-2216.736572265625,-4150.130859375) " id="CorelCorpID_0Corel-Layer"/>
   <circle id="svg_1" r="1247" cy="1301.869141" cx="1335.263428" fill="#FEFEFE"/>
   <ellipse id="svg_2" ry="130" rx="131" cy="969.869141" cx="1319.263428" fill="#87E090"/>
   <ellipse id="svg_3" ry="130" rx="131" cy="1366.869141" cx="1664.263428" fill="#87E090"/>
   <ellipse id="svg_4" ry="130" rx="131" cy="1552.869141" cx="1046.263428" fill="#87E090"/>
   <path id="svg_5" d="m752.263428,2167.869141c-56,-38 -109,-81 -156,-129c-408,-409 -407,-1070 1,-1478c409,-407 1070,-405 1478,3c407,409 406,1071 -2,1478c-201,200 -474,310 -758,304" stroke-linejoin="round" stroke-linecap="round" stroke-width="98.4252" stroke="#5C3B25" fill="none"/>
   <path id="svg_6" d="m1205.263428,1157.869141c-42,-50 -122,-177 -119,-294c2,-117 86,-223 140,-298c54,-75 78,-119 104,-117c26,2 54,51 105,119c51,69 124,158 144,236c21,78 -12,144 -50,214c-37,70 -81,144 -106,164c-25,20 -31,-13 -34,-30c-4,-17 -4,-17 -14,-70c-10,-53 -30,-160 -51,-157c-22,3 -45,116 -59,186c-14,70 -18,97 -60,47z" fill="#3DAD4A"/>
   <g id="_2319249064368">
    <path id="svg_7" d="m1267.263428,2354.869141c-42,-249 -5,-355 -27,-538l-1,-4c10,14 15,18 31,22c-70,-21 -69,-171 -7,-172l-1,1l0,1c35,-37 53,-353 58,-418c51,149 55,237 36,395c-8,72 -24,82 -43,94c1,4 2,5 8,23c45,87 49,436 66,528c18,35 5,79 -28,98c-33,19 -75,6 -92,-30zm32,-609c-3,2 -6,5 -9,8c4,-2 7,-4 10,-7l-1,-1z" fill="#5C3B25"/>
   </g>
   <path id="svg_8" d="m1327.263428,2320.869141c-44,-86 -13,-532 -50,-537c-40,-129 18,-20 40,-149c19,-115 27,-266 3,-388" fill="none"/>
   <g id="_2319249055888">
    <path id="svg_9" d="m1256.263428,2037.869141c36,-283 32,-387 169,-599c4,1 1,0 8,-1c3,9 3,4 1,14c-47,260 -54,278 -63,566c2,46 -23,88 -55,94c-32,6 -59,-27 -60,-74z" fill="#5C3B25"/>
   </g>
   <path id="svg_10" d="m1314.263428,2027.869141c-3,-73 29,-340 53,-407c13,-35 43,-148 63,-176c0,0 2,-5 3,-7" fill="none"/>
   <path id="svg_11" d="m1125.263428,1724.869141c-35,9 -110,16 -178,-34c-68,-50 -130,-156 -168,-239c-38,-83 -53,-142 -62,-184c-9,-42 -12,-65 -13,-77c-1,-12 -1,-12 19,-10c20,3 60,8 105,20c46,11 96,30 141,53c45,24 84,52 116,82c33,31 58,63 75,89c17,26 26,45 30,60c3,16 1,27 -11,24c-11,-4 -32,-24 -44,-39c-11,-15 -14,-27 -38,-34c-24,-6 -69,-8 -90,-8c-21,1 -19,4 -1,30c18,27 52,77 77,114c25,38 40,63 50,81c10,18 15,30 19,41c5,11 8,22 -27,31z" fill="#00A859"/>
   <path id="svg_12" d="m1451.263428,1353.869141c3,-16 19,-52 44,-88c25,-37 59,-73 88,-99c30,-26 55,-42 92,-59c37,-17 85,-36 124,-50c38,-14 67,-23 87,-29c20,-6 31,-10 39,-12c8,-3 12,-4 13,2c2,5 1,17 -1,36c-2,20 -5,46 -10,75c-5,28 -12,58 -24,94c-13,36 -31,78 -49,111c-18,33 -36,57 -55,79c-19,21 -39,40 -64,59c-24,18 -53,37 -83,53c-30,17 -62,31 -86,39c-25,8 -42,10 -52,7c-10,-3 -13,-10 -15,-16c-3,-5 -5,-9 -2,-19c2,-9 10,-24 24,-41c15,-17 37,-35 56,-57c19,-21 35,-45 51,-70c15,-24 30,-48 38,-65c8,-17 10,-26 2,-28c-9,-1 -28,5 -54,17c-27,12 -62,28 -88,41c-25,12 -42,20 -56,26c-13,6 -22,10 -19,-6z" fill="#00A859"/>
  </g>
 </g>
</svg>