<svg width="812.567" height="748.955" xmlns="http://www.w3.org/2000/svg">
 <defs>
  <linearGradient gradientUnits="objectBoundingBox" x2="0.505" y1="1.007" x1="0.505" id="linear-gradient">
   <stop stop-opacity="0.251" stop-color="gray" offset="0"/>
   <stop stop-opacity="0.122" stop-color="gray" offset="0.54"/>
   <stop stop-opacity="0.102" stop-color="gray" offset="1"/>
  </linearGradient>
 </defs>
 <g>
  <title>background</title>
  <rect fill="none" id="canvas_background" height="750.955" width="814.567" y="-1" x="-1"/>
 </g>
 <g>
  <title>Layer 1</title>
  <g id="Group_22">
   <g id="Group_2">
    <rect x="608.094971" y="165.557999" fill="#565658" rx="2.29" height="90.604" width="10.994" id="Rectangle_76"/>
    <rect x="245.247986" y="-4" fill="#565658" rx="38.99" height="747.455" width="367.778" id="Rectangle_80"/>
    <path fill="#fff" d="m562.836981,15.468994l-42.188,0l0,5.075a24.047,24.047 0 0 1 -24.06,24.047l-134.169,0a24.047,24.047 0 0 1 -24.06,-24.047l0,-5.075l-39.5,0a29.209,29.209 0 0 0 -29.209,29.209l0,650.15a29.209,29.209 0 0 0 29.209,29.209l263.977,0a29.209,29.209 0 0 0 29.209,-29.209l0,-650.1a29.209,29.209 0 0 0 -29.209,-29.259z" id="Path_176"/>
    <rect x="394.661987" y="18.322001" fill="#e6e8ec" rx="3.87" height="10.423" width="51.357" id="Rectangle_81"/>
    <circle fill="#e6e8ec" r="5.919" cy="23.534" cx="459.705987" id="Ellipse_5"/>
    <circle fill="#fff" r="69.572998" cy="378.903994" cx="432.382982" id="Ellipse_11"/>
    <path fill="#2bc97f" d="m523.891001,369.189005a92.987,92.987 0 1 1 -92.984,-92.99a92.987,92.987 0 0 1 92.984,92.99zm-103.733,49.22l68.977,-68.977a5.993,5.993 0 0 0 0,-8.487l-8.487,-8.425a5.981,5.981 0 0 0 -8.475,0l-56.258,56.259l-26.268,-26.33a6.018,6.018 0 0 0 -8.487,0l-8.487,8.537a6.018,6.018 0 0 0 0,8.487l39,38.986a5.993,5.993 0 0 0 8.487,0l-0.002,-0.05z" id="Path_222"/>
   </g>
   <g id="Group_1">
    <rect x="254.51001" y="143.357002" fill="#3f3d56" rx="2.29" height="26.813" width="5.543" id="Rectangle_77"/>
    <rect x="254.309006" y="192.454002" fill="#3f3d56" rx="2.29" height="46.666" width="6.246" id="Rectangle_78"/>
    <rect x="254.409012" y="255.449005" fill="#3f3d56" rx="2.29" height="47.067" width="5.945" id="Rectangle_79"/>
    <path fill="url(#linear-gradient)" d="m180.741006,379.909999a1.026,1.026 0 0 0 1.216,0.156a4.305,4.305 0 0 1 -1.216,-0.156z" id="Path_190"/>
    <path fill="#feb9b9" d="m226.704005,397.889008l-1.2,6.536l-0.926,5l-1.684,9.146l-16.329,11.432s-1.472,-1.26 -3.9,-3.246c-6.692,-5.51 -20.757,-16.73 -31.085,-22.753a34.786,34.786 0 0 0 -8.544,-3.937l63.668,-2.178z" id="Path_192"/>
    <path fill="#3f3d56" d="m214.725008,402.751998s19.039,3.268 20.154,-4.863s-9.8,-12.525 -19.05,-13.072s-64.768,3.268 -64.768,3.268s-9.793,13.061 25.575,15.247l38.089,-0.58z" id="Path_194"/>
    <rect x="156.761002" y="134.445" fill="#2f2e41" height="118.104" width="99.6" id="Rectangle_82"/>
    <rect fill-opacity="0" x="156.761002" y="134.981003" opacity="0.1" height="118.104" width="99.6" id="Rectangle_83"/>
    <path fill="#feb9b9" d="m40.030007,336.622994c-1.64,0.413 -3.736,2 -6.067,4.294c-10.038,9.938 -24.415,33.26 -24.415,33.26c-18.381,-21.895 1.959,-39.194 10.629,-45.139c2.108,-1.439 3.524,-2.231 3.524,-2.231l16.329,9.816z" id="Path_198"/>
    <path fill="#feb9b9" d="m225.611006,171.72s4.9,34.286 21.771,42.45s-21.771,23.422 -21.771,23.422l-52.789,-19.608s29.936,-9.8 23.946,-38.647l28.843,-7.617z" id="Path_199"/>
    <path fill="#feb9b9" d="m169.008012,377.991009l-1.194,6.514l-0.97,5.019l-1.684,9.146l-16.329,11.421s-1.472,-1.249 -3.9,-3.234c-6.692,-5.51 -20.756,-16.73 -31.1,-22.753a34.572,34.572 0 0 0 -8.544,-3.937l63.721,-2.176z" id="Path_200"/>
    <path fill="#2f2e41" d="m154.883005,386.023999s17.087,0.121 18.115,-8.033s-9.312,-12.525 -18.115,-13.072s-62.289,3.522 -62.289,3.522s-7.588,15.4 26.055,17.582l36.234,0.001z" id="Path_202"/>
    <path fill="#565658" d="m274.686002,514.119009c-0.747,-0.368 -1.495,-0.747 -2.231,-1.115l-2.008,-2.532l-26.333,-33.393l0,0.58c-0.178,5.577 -2.074,49.767 -16.864,53.849c-15.782,4.35 -34.821,5.443 -43.5,-23.946s-24.537,-93.611 -40.822,-97.425l24.225,-19.864s16.039,18.76 22.574,36.717c-0.245,-1.115 -11.321,-52.867 -2.231,-62.024l79.475,0s12.269,34.944 20.678,52.254c6.547,13.44 16.373,45.216 22.7,66.72c6.263,21.234 -15.743,39.983 -35.663,30.179z" id="Path_204"/>
    <path opacity="0.1" d="m272.422008,374.723007c-12.269,7.261 -66.129,4.305 -83.651,3.123l-4.774,-0.346c-0.513,0 0.078,-0.29 0.078,-0.29l0.491,-4.941l13.061,-33.193l69.932,-40.554c-1.417,4.272 -1.885,10.808 -1.773,18.292c0.323,24.047 6.636,57.909 6.636,57.909z" id="Path_205"/>
    <path fill="#efefef" d="m272.422011,373.084006c-12.269,7.261 -66.129,4.305 -83.651,3.123l-4.774,-0.335l-0.792,-0.067l0.87,-0.223l4.305,-1.115l9.246,-37.007l69.932,-40.543c-1.416,4.272 -1.885,10.808 -1.773,18.292c0.324,24.024 6.637,57.875 6.637,57.875z" id="Path_206"/>
    <path opacity="0.1" d="m265.741007,315.186006c-14.221,3.279 -45.517,12.9 -57.541,36.137c-8.019,15.47 -14.767,22.106 -19.474,24.883l-4.774,-0.335a2.749,2.749 0 0 0 0.078,-0.29l4.305,-1.115l9.246,-37.007l69.932,-40.542c-1.4,4.249 -1.884,10.785 -1.772,18.269z" id="Path_207"/>
    <path opacity="0.1" d="m23.70101,326.831l16.329,9.793c-1.64,0.413 -3.736,2 -6.067,4.294c-1.361,-3.971 -9.9,-9.514 -13.786,-11.878c2.107,-1.417 3.524,-2.209 3.524,-2.209z" id="Path_208"/>
    <path opacity="0.1" d="m181.042006,376.508003a0.97,0.97 0 0 1 -1.115,-0.156a3.87,3.87 0 0 0 1.115,0.156z" id="Path_209"/>
    <path fill="#2bc97f" d="m217.994014,211.995007s-14.7,1.628 -25.039,-9.257c0,0 -43.5,12.525 -58.232,40.821s-114.881,83.818 -114.881,83.818s17.422,9.793 15.782,14.689l65.861,-38.1s23.422,-16.864 29.925,-20.678s42.461,-27.214 50.079,36.461s0,56.057 0,56.057s10.886,3.815 26.668,-26.668s64.757,-37.554 64.757,-37.554l2.721,-32.1s9.715,-21.281 2.231,-30.114a18.961,18.961 0 0 1 -4.361,-9.213c-1.238,-8.153 0,-21.738 17.332,-33.025c26.668,-17.422 37.007,-31.564 37.007,-31.564s0.546,-10.35 -15.782,-15.247s-82.725,-31.564 -82.725,-31.564l-2.231,9.257l52.388,36.974s-26.121,21.191 -46.844,20.678c-0.001,0 3.847,15.782 -14.656,16.329z" id="Path_210"/>
    <path opacity="0.1" d="m228.076011,186.642999a106.3,106.3 0 0 1 -3.011,-13.295l-28.843,7.62a31.621,31.621 0 0 1 -0.658,16.641a31.018,31.018 0 0 0 32.512,-10.966z" id="Path_211"/>
    <circle fill="#feb9b9" r="31.018" cy="166.010001" cx="204.119013" id="Ellipse_10"/>
    <path opacity="0.1" d="m237.858004,415.812004s17.957,35.379 12.514,46.253" id="Path_213"/>
    <path fill="#2f2e41" d="m220.614011,94.371005c8.61,0.982 16.786,4.673 25.263,6.692a12.537,12.537 0 0 0 6.536,0.245c3.29,-1.015 5.967,-4.461 9.38,-4.361c2.1,0.067 3.959,1.495 5.688,2.866a69.968,69.968 0 0 1 7.807,6.96c5.844,6.346 9.469,14.89 14.8,21.794s12.934,15 20.507,11.834c-5.152,20.076 -21.221,32.635 -39.478,33.885c-7.283,0.5 -14.745,-1.015 -21.794,1.115a18.884,18.884 0 0 1 -5.5,1.338c-4.06,0 -7.328,-3.725 -9.86,-7.35c-5.934,-8.521 -10.629,-18.191 -17.31,-25.965c-2.231,-2.576 -4.807,-5.019 -7.93,-5.487s-5.989,1.026 -8.766,2.465c-4.584,2.376 -9.268,4.829 -12.826,8.923s-5.8,10.138 -4.328,15.615c0.792,2.967 2.6,5.644 2.632,8.744c0.067,4.952 -4.305,8.566 -5.164,13.384a50.184,50.184 0 0 0 -0.212,6.09c-0.379,6.6 -4.7,12 -9.2,16.161c-1.762,1.606 -3.7,3.346 -4.216,5.833c-0.346,1.706 0,3.5 -0.223,5.231c-0.658,4.283 -4.93,6.458 -8.711,7.016a25.128,25.128 0 0 1 -13.072,-1.55c5.287,-2.5 8.544,-9.614 7.317,-15.983c-1.684,-8.834 -10.562,-15.18 -9.8,-24.169a28,28 0 0 1 2.454,-7.952a72.856,72.856 0 0 0 4.194,-15.068c0.669,-3.982 0.993,-8.209 -0.257,-12.012c-1.115,-3.458 -3.446,-6.212 -5.421,-9.135a51.942,51.942 0 0 1 -6.279,-12.86a9.046,9.046 0 0 1 -0.6,-4.261a8.79,8.79 0 0 1 2.733,-4.406c4.852,-5.1 10.038,-10.395 16.541,-11.856a37.232,37.232 0 0 1 9.391,-0.357a110.84,110.84 0 0 0 16.317,-0.692c4.461,-0.524 12,-0.457 15.782,-3.346c3.524,-2.7 5.51,-6.09 9.848,-7.807a29,29 0 0 1 13.763,-1.573l-0.006,-0.001z" id="Path_221"/>
   </g>
   <ellipse fill="#2bc97f" ry="7.609" rx="44.995" cy="732.98902" cx="761.962041" id="Ellipse_9"/>
   <path fill="#2bc97f" d="m780.571002,720.546002a13.1,13.1 0 0 0 4.286,-6.479c0.559,-2.562 -0.537,-5.6 -3,-6.591c-2.753,-1.052 -5.7,0.862 -7.923,2.786s-4.789,4.129 -7.71,3.715a11.727,11.727 0 0 0 3.641,-10.977a4.622,4.622 0 0 0 -1.018,-2.238c-1.522,-1.634 -4.3,-0.94 -6.121,0.358c-5.819,4.084 -7.441,12 -7.475,19.1c-0.593,-2.562 -0.09,-5.237 -0.112,-7.833s-0.727,-5.6 -2.954,-6.971a8.885,8.885 0 0 0 -4.476,-1.052c-2.618,-0.1 -5.528,0.168 -7.318,2.081c-2.238,2.372 -1.634,6.356 0.291,8.952s4.868,4.263 7.576,6.065a16.786,16.786 0 0 1 5.4,5.159a4.656,4.656 0 0 1 0.4,0.929l16.349,0a45.945,45.945 0 0 0 10.161,-7l0.003,-0.004z" id="Path_179"/>
   <ellipse fill="#efefef" ry="5.022" rx="29.694" cy="739.934003" cx="185.212005" id="Ellipse_9-2"/>
   <path fill="#efefef" d="m197.493008,731.722002a8.648,8.648 0 0 0 2.828,-4.276a3.813,3.813 0 0 0 -1.979,-4.35c-1.817,-0.694 -3.759,0.569 -5.228,1.839s-3.161,2.725 -5.088,2.452a7.739,7.739 0 0 0 2.4,-7.244a3.05,3.05 0 0 0 -0.672,-1.477c-1,-1.078 -2.836,-0.62 -4.039,0.236c-3.84,2.7 -4.911,7.916 -4.933,12.606c-0.391,-1.691 -0.059,-3.456 -0.074,-5.169s-0.48,-3.692 -1.95,-4.6a5.864,5.864 0 0 0 -2.954,-0.694c-1.728,-0.066 -3.648,0.111 -4.83,1.374c-1.477,1.566 -1.078,4.195 0.192,5.908s3.212,2.814 5,4a11.077,11.077 0 0 1 3.567,3.4a3.078,3.078 0 0 1 0.266,0.613l10.789,0a30.322,30.322 0 0 0 6.705,-4.623l0,0.005z" id="Path_179-2"/>
   <ellipse fill="#efefef" ry="5.022" rx="29.694" cy="739.934003" cx="17.279999" id="Ellipse_12"/>
   <path fill="#efefef" d="m29.56097,731.722002a8.648,8.648 0 0 0 2.828,-4.276a3.813,3.813 0 0 0 -1.979,-4.35c-1.817,-0.694 -3.759,0.569 -5.228,1.839s-3.161,2.725 -5.088,2.452a7.739,7.739 0 0 0 2.4,-7.244a3.05,3.05 0 0 0 -0.672,-1.477c-1,-1.078 -2.836,-0.62 -4.039,0.236c-3.84,2.7 -4.911,7.916 -4.933,12.606c-0.391,-1.691 -0.059,-3.456 -0.074,-5.169s-0.48,-3.692 -1.95,-4.6a5.864,5.864 0 0 0 -2.954,-0.694c-1.728,-0.066 -3.648,0.111 -4.83,1.374c-1.477,1.566 -1.078,4.195 0.192,5.908s3.212,2.814 5,4a11.077,11.077 0 0 1 3.567,3.4a3.078,3.078 0 0 1 0.266,0.613l10.789,0a30.322,30.322 0 0 0 6.705,-4.623l0,0.005z" id="Path_223"/>
   <rect x="-2" y="746.088028" fill="#2f2e41" height="1.821" width="902.567" id="Rectangle_22"/>
   <path fill="#2bc97f" d="m795.510005,45.524001s-94.221,-5.685 -83.12,60.337c0,0 -2.238,11.671 8.37,16.964c0,0 0.168,-4.89 9.668,-3.223a44.2,44.2 0 0 0 10.239,0.492a21.329,21.329 0 0 0 12.51,-5.114l0,0s26.487,-10.944 36.782,-54.227c0,0 7.62,-9.444 7.318,-11.873l-15.9,6.792s5.438,11.47 1.119,21c0,0 -0.515,-20.59 -3.57,-20.142c-0.615,0.09 -8.258,3.972 -8.258,3.972s9.344,19.974 2.294,34.5c0,0 2.674,-24.618 -5.215,-33.056l-11.19,6.535s10.922,20.635 3.514,37.476c0,0 1.9,-25.827 -5.875,-35.887l-10.138,7.911s10.261,20.332 4.006,34.3c0,0 -0.817,-30.057 -6.2,-32.328c0,0 -8.874,7.833 -10.228,11.033c0,0 7.027,14.771 2.663,22.559c0,0 -2.674,-20.03 -4.868,-20.142c0,0 -8.84,13.271 -9.758,22.38c0,0 0.381,-13.529 7.62,-23.633c0,0 -8.549,1.466 -13.54,7c0,0 1.376,-9.377 15.722,-10.205c0,0 7.307,-10.071 9.254,-10.675c0,0 -14.256,-1.2 -22.906,2.641c0,0 7.609,-8.851 25.525,-4.823l10.015,-8.18s-18.777,-2.563 -26.744,0.269c0,0 9.165,-7.833 29.441,-2.126l10.9,-6.513s-16.013,-3.447 -25.547,-2.238c0,0 10.071,-5.427 28.747,0.459l7.833,-3.5s-11.727,-2.305 -15.163,-2.674s-3.614,-1.309 -3.614,-1.309a40.676,40.676 0 0 1 22.033,2.451s16.541,-6.162 16.261,-7.203z" id="Path_177"/>
   <path fill="#3f3d56" d="m666.413004,10.571002s-42.522,-2.563 -37.554,27.27c0,0 -1,5.271 3.782,7.665c0,0 0.078,-2.238 4.375,-1.466a19.593,19.593 0 0 0 4.621,0.224a9.579,9.579 0 0 0 5.651,-2.328l0,0s11.973,-4.946 16.628,-24.506c0,0 3.435,-4.263 3.3,-5.36l-7.184,3.066s2.451,5.181 0.526,9.489c0,0 -0.235,-9.3 -1.611,-9.086c-0.28,0 -3.738,1.8 -3.738,1.8s4.23,9.03 1.041,15.588c0,0 1.208,-11.123 -2.361,-14.939l-5.058,3s4.935,9.321 1.589,16.931c0,0 0.862,-11.671 -2.652,-16.214l-4.577,3.581s4.633,9.187 1.813,15.5c0,0 -0.38,-13.585 -2.809,-14.614c0,0 -4.006,3.536 -4.622,4.991c0,0 3.178,6.714 1.209,10.194c0,0 -1.209,-9.053 -2.238,-9.1c0,0 -3.995,6 -4.409,10.071a21.842,21.842 0 0 1 3.447,-10.675a12.04,12.04 0 0 0 -6.121,3.167s0.627,-4.241 7.106,-4.61c0,0 3.357,-4.554 4.185,-4.834c0,0 -6.445,-0.537 -10.351,1.2c0,0 3.435,-3.995 11.526,-2.182l4.476,-3.693s-8.49,-1.13 -12.09,0.116c0,0 4.14,-3.536 13.305,-0.962l4.924,-2.943s-7.24,-1.555 -11.548,-1c0,0 4.554,-2.451 12.992,0.2l3.525,-1.578s-5.3,-1.041 -6.86,-1.209s-1.634,-0.593 -1.634,-0.593a18.34,18.34 0 0 1 9.959,1.119s7.568,-2.814 7.437,-3.28z" id="Path_178"/>
   <path fill="#3f3d56" d="m45.671991,467.007999s-42.522,-2.563 -37.554,27.27c0,0 -1,5.271 3.782,7.665c0,0 0.078,-2.238 4.375,-1.466a19.593,19.593 0 0 0 4.621,0.224a9.579,9.579 0 0 0 5.651,-2.328l0,0s11.973,-4.946 16.628,-24.506c0,0 3.435,-4.263 3.3,-5.36l-7.184,3.066s2.451,5.181 0.526,9.489c0,0 -0.235,-9.3 -1.611,-9.086c-0.28,0 -3.738,1.8 -3.738,1.8s4.23,9.03 1.041,15.588c0,0 1.208,-11.123 -2.361,-14.939l-5.058,3s4.935,9.321 1.589,16.931c0,0 0.862,-11.671 -2.652,-16.214l-4.577,3.581s4.633,9.187 1.813,15.5c0,0 -0.38,-13.585 -2.809,-14.614c0,0 -4.006,3.536 -4.622,4.991c0,0 3.178,6.714 1.209,10.194c0,0 -1.209,-9.053 -2.238,-9.1c0,0 -3.995,6 -4.409,10.071a21.842,21.842 0 0 1 3.447,-10.675a12.04,12.04 0 0 0 -6.121,3.167s0.627,-4.241 7.106,-4.61c0,0 3.357,-4.554 4.185,-4.834c0,0 -6.445,-0.537 -10.351,1.2c0,0 3.435,-3.995 11.526,-2.182l4.476,-3.693s-8.49,-1.13 -12.09,0.116c0,0 4.14,-3.536 13.305,-0.962l4.924,-2.943s-7.24,-1.555 -11.548,-1c0,0 4.554,-2.451 12.992,0.2l3.525,-1.578s-5.3,-1.041 -6.86,-1.209s-1.634,-0.593 -1.634,-0.593a18.34,18.34 0 0 1 9.959,1.119s7.568,-2.814 7.437,-3.28z" id="Path_224"/>
  </g>
 </g>
</svg>