<svg width="832" height="690.68939" xmlns="http://www.w3.org/2000/svg">
 <title>verified</title>

 <g>
  <title>background</title>
  <rect fill="none" id="canvas_background" height="402" width="582" y="-1" x="-1"/>
 </g>
 <g>
  <title>Layer 1</title>
  <ellipse id="svg_1" fill="#e6e6e6" ry="24" rx="416" cy="666.68939" cx="416"/>
  <path id="svg_2" fill="#2f2e41" d="m654.124,232.332704s-12.40214,-4.42933 -20.375,13.288s-20.37494,37.20641 -20.37494,37.20641l7.08694,1.77174s1.77173,-12.40214 6.20107,-14.17388l-1.77174,15.94561s53.152,18.60321 77.07044,-1.77173l-0.88587,-6.20107s3.54347,0.88586 3.54347,6.20107l2.6576,-2.6576s-2.6576,-5.31521 -10.6304,-12.40214c-5.233,-4.65156 -7.03129,-13.50109 -7.64926,-19.034a23.03336,23.03336 0 0 0 -5.3029,-12.54328c-5.29831,-6.14047 -14.95262,-12.6669 -29.56941,-5.62913z"/>
  <polygon id="svg_3" fill="#fbbebe" points="581.286 384.321 592.884 399.082 600.264 390.647 593.938 380.104 581.286 384.321"/>
  <polygon id="svg_4" fill="#fbbebe" points="577.069 610.998 572.852 633.138 583.395 638.41 590.775 633.138 590.775 610.998 577.069 610.998"/>
  <polygon id="svg_5" fill="#fbbebe" points="650.87 610.998 655.088 633.138 644.545 638.41 637.164 633.138 637.164 610.998 650.87 610.998"/>
  <polygon id="svg_6" fill="#565658" points="607.644 411.733 592.884 517.164 571.797 613.106 597.101 616.269 617.133 526.653 642.436 450.743 639.273 541.413 634.002 616.269 652.979 616.269 666.685 515.056 681.841 439.805 681.445 411.733 607.644 411.733"/>
  <path id="svg_7" fill="#2f2e41" d="m580.23181,631.029584s-5.27154,-6.32585 -8.43447,-3.16293s-10.54308,15.81463 -10.54308,15.81463s-16.86894,9.48878 -3.16293,11.5974s17.92325,0 17.92325,-1.05431s2.10862,-4.21723 2.10862,-4.21723l5.27154,1.0543l7.38016,-2.10861s3.16293,-19.42585 0,-18.67455s-9.48878,3.91423 -10.54309,0.7513z"/>
  <path id="svg_8" fill="#2f2e41" d="m647.70757,631.029584s5.27154,-6.32585 8.43447,-3.16293s10.54309,15.81463 10.54309,15.81463s16.86893,9.48878 3.16292,11.5974s-17.92325,0 -17.92325,-1.05431s-2.10861,-4.21723 -2.10861,-4.21723l-5.27155,1.0543l-7.38016,-2.10861s-3.16292,-19.42585 0,-18.67455s9.48878,3.91423 10.54309,0.7513z"/>
  <circle id="svg_9" fill="#fbbebe" r="21.08617" cy="265.71162" cx="657.7235"/>
  <path id="svg_10" fill="#fbbebe" d="m671.95667,278.890484s-2.10862,17.92325 -1.05431,22.14048s3.16293,10.54309 3.16293,10.54309l-33.73788,-6.32585s9.48878,-20.03187 7.38016,-23.19479s24.2491,-3.16293 24.2491,-3.16293z"/>
  <path id="svg_11" fill="#2bc97f" d="m675.1196,304.193894l-34.79219,-7.38019l-20.03187,122.29984a45.67559,45.67559 0 0 1 27.412,1.0543c14.76032,5.27155 34.79219,0 34.79219,0l-4.21721,-114.91964l-3.16292,-1.05431z"/>
  <path id="svg_12" fill="#565658" d="m647.4138,287.127454l-12.35793,6.52335l-15.81463,3.1629l-16.86894,40.06376l2.10861,28.46633s-17.92324,32.68357 -20.03186,50.60682c0,0 2.10862,27.412 36.9008,26.35772l23.19479,-64.31283s9.48878,-48.4982 0,-62.20422c0,0 6.79262,-25.6984 2.86916,-28.66383z"/>
  <path id="svg_13" fill="#565658" d="m625.56709,296.813704l-3.41389,-0.58239l-2.912,0.58239s-7.38017,1.05431 -15.81463,8.43447s-36.90081,30.575 -39.00943,36.9008s-1.0543,16.86894 2.10862,23.19479s9.48878,14.76032 9.48878,14.76032l3.16293,7.38016l17.92324,-5.27154s-11.59739,-22.14048 -10.54308,-31.62926l21.08617,-16.86894l17.92329,-36.9008z"/>
  <path id="svg_14" fill="#565658" d="m670.78918,291.893954l15.92781,19.6801l8.43447,10.54309l-10.54309,35.84649l-5.27154,30.575s12.6517,48.4982 2.10862,63.25852c0,0 -6.32585,7.38016 -8.43447,-1.0543s-2.10862,-48.4982 -2.10862,-48.4982s-8.43447,-52.71544 -4.21723,-66.42145s-0.22636,-41.46886 4.10405,-43.92925z"/>
  <path id="svg_15" fill="#fbbebe" d="m685.66268,444.416944l0,10.54309s-2.10862,34.79219 8.43447,30.575s3.16293,-30.575 3.16293,-30.575l-1.05431,-11.5974l-10.54309,1.05431z"/>
  <path id="svg_16" fill="#2f2e41" d="m634.21832,266.835844c8.0189,-5.8034 14.51,-12.48772 18.80392,-20.439c0,0 14.71612,16.35124 23.7093,17.1688s0.81756,-19.62149 0.81756,-19.62149l-16.35124,-4.08781l-15.53368,1.63513l-12.26343,8.17562l0.81757,17.16875z"/>
  <polygon id="svg_17" fill="#565658" points="685.9169799089432,318.9540100097656 694.3510009050369,322.11700439453125 695.4059935808182,332.6600036621094 699.6229735612869,396.9729919433594 697.5140258073807,445.47100830078125 681.6999999284744,446.5260009765625 676.4280272722244,392.7560119628906 674.3199950456619,333.7149963378906 685.9169799089432,318.9540100097656 "/>
  <path id="svg_18" fill="#565658" d="m430,158.430314l-3.66313,0l0,-100.35024a58.08,58.08 0 0 0 -58.08017,-58.08007l-212.60544,0a58.08,58.08 0 0 0 -58.08017,58.08007l0,550.52926a58.08,58.08 0 0 0 58.08017,58.08007l212.60544,0a58.08,58.08 0 0 0 58.08017,-58.08007l0,-378.748l3.66313,0l0,-71.43102z"/>
  <path id="svg_19" fill="#fff" d="m413.97482,57.4853l0,549.71933a43.37625,43.37625 0 0 1 -43.37549,43.37549l-213.62554,0a43.37629,43.37629 0 0 1 -43.37549,-43.37549l0,-549.71933a43.37632,43.37632 0 0 1 43.37549,-43.37549l25.91541,0a20.61744,20.61744 0 0 0 19.08152,28.38874l121.79955,0a20.61754,20.61754 0 0 0 19.08158,-28.38874l27.74748,0a43.37629,43.37629 0 0 1 43.37549,43.37549z"/>
  <path id="svg_27" fill="#565658" d="m420.20638,487.997414l0,123.00829a45.176,45.176 0 0 1 -45.17521,45.17521l-222.48917,0a45.176,45.176 0 0 1 -45.17526,-45.17521l0,-111.01562a212.73036,212.73036 0 0 1 312.83964,-11.99267z"/>
  <circle id="svg_28" opacity="0.2" fill="#2bc97f" r="63.20824" cy="546.13015" cx="264.01977"/>
  <circle id="svg_29" fill="#2bc97f" r="50.89495" cy="546.13015" cx="264.01977"/>
  <polygon id="svg_30" fill="#fff" points="258.084 567.89 240.147 544.829 250.578 536.716 259.07 547.635 287.759 517.351 297.353 526.439 258.084 567.89"/>
 </g>
</svg>