<svg width="1660" height="1710" xmlns="http://www.w3.org/2000/svg" clip-rule="evenodd">

 <g>
  <title>background</title>
  <rect fill="none" id="canvas_background" height="1712" width="1662" y="-1" x="-1"/>
 </g>
 <g>
  <title>Layer 1</title>
  <g id="Capa_x0020_1">
   <metadata transform="translate(-6450,-1366.6666259765625) " id="CorelCorpID_0Corel-Layer"/>
   <g id="_3139498754656">
    <path id="svg_1" d="m694,1040.333374c95,-20 170,44 172,131c2,87 -66,156 -138,171c-93,19 -168,-44 -171,-129c-4,-88 64,-157 137,-173zm274,-278c37,-13 70,16 59,53c-8,29 -43,36 -71,48c-56,22 -111,45 -167,68c-56,23 -285,120 -337,138c-38,13 -71,-17 -61,-54c8,-28 43,-36 72,-47l337,-138c54,-22 113,-50 168,-68zm-280,-272c91,-15 164,54 160,143c-3,84 -70,150 -146,162c-94,15 -168,-54 -163,-144c5,-85 71,-149 149,-161zm-627,577l89,105c26,34 162,177 192,201c15,12 74,72 105,96l52,44c37,33 77,72 124,72c37,1 56,-7 77,-23l52,-45c19,-15 34,-31 52,-47l130,-118c9,-8 16,-16 24,-25c16,-15 34,-35 50,-49l346,-368c6,-6 5,-7 11,-14c58,-62 70,-82 72,-176c0,-16 3,-25 3,-45c0,-74 -25,-240 -51,-297c-15,5 -38,20 -55,28c-18,9 -36,17 -55,26c1,61 -19,109 -82,127c-66,19 -116,-24 -133,-67c-35,-87 50,-175 138,-147c32,10 40,25 60,42c12,-2 46,-19 58,-25c10,-5 18,-10 28,-15c11,-6 21,-8 25,-17c-8,-19 -12,-44 -44,-65c-17,-11 -58,-28 -76,-32l-48,-15c-11,-1 -9,-1 -19,-5c-35,0 -78,-8 -118,-8c-76,-2 -199,4 -257,55l-293,267c-40,46 -84,82 -126,126l-241,255c-36,42 -81,80 -86,130l-2,24c-1,0 -1,3 -1,2c0,0 -1,2 -1,3z" fill="#FFCF63"/>
    <path id="svg_2" d="m61,1067.333374c0,-1 1,-3 1,-3c0,1 0,-2 1,-2l2,-24c5,-50 50,-88 86,-130l241,-255c42,-44 86,-80 126,-126l293,-267c58,-51 181,-57 257,-55c40,0 83,8 118,8c-75,-18 -89,-20 -163,-29c-17,-2 -45,-2 -62,-4c-19,-3 -102,4 -120,7c-69,12 -76,31 -125,73l-89,77c-6,6 -10,11 -17,16l-102,94c-7,6 -11,11 -17,17c-26,20 -174,170 -215,212l-32,34c-6,6 -10,11 -16,17l-77,86c-6,7 -11,10 -17,17c-44,52 -93,91 -101,145l0,30c1,6 2,11 4,17c6,21 13,27 24,45z" fill="#FEC250"/>
    <path id="svg_3" d="m691,581.333374c87,-25 89,99 7,123c-88,27 -94,-98 -7,-123zm-3,-91c-78,12 -144,76 -149,161c-5,90 69,159 163,144c76,-12 143,-78 146,-162c4,-89 -69,-158 -160,-143z" fill="#DA5B6D"/>
    <path id="svg_4" d="m712,1128.333374c85,-23 84,102 3,125c-87,25 -95,-100 -3,-125zm-18,-88c-73,16 -141,85 -137,173c3,85 78,148 171,129c72,-15 140,-84 138,-171c-2,-87 -77,-151 -172,-131z" fill="#DA5B6D"/>
    <path id="svg_5" d="m968,762.333374c-55,18 -114,46 -168,68l-337,138c-29,11 -64,19 -72,47c-10,37 23,67 61,54c52,-18 281,-115 337,-138c56,-23 111,-46 167,-68c28,-12 63,-19 71,-48c11,-37 -22,-66 -59,-53z" fill="#DA5B6D"/>
    <path id="svg_6" d="m1205,218.333374l48,15c7,-14 33,-44 44,-55c9,-9 18,-15 27,-24c111,-98 224,-58 209,27c-10,58 -133,143 -160,149c-4,9 -14,11 -25,17c-10,5 -18,10 -28,15c-12,6 -46,23 -58,25c-12,9 -30,16 -46,20c-8,3 -19,7 -27,11c0,-16 1,-17 3,-28c-18,-5 -30,-5 -48,-1c-4,19 -7,74 12,83c16,9 59,-12 75,-20l48,-20c19,-9 37,-17 55,-26c17,-8 40,-23 55,-28c41,-21 65,-38 101,-65c9,-6 10,-9 18,-15c34,-30 68,-70 74,-116l0,-30c-1,-12 -5,-24 -12,-37c-72,-139 -260,-37 -337,62c-10,13 -23,27 -28,41z" fill="#DA5B6D"/>
    <path id="svg_7" d="m1279,432.333374l-48,20c0,59 -61,80 -101,52c-18,-12 -28,-30 -26,-62c3,-32 24,-41 40,-53c18,-4 30,-4 48,1c9,6 16,9 24,17c16,-4 34,-11 46,-20c-20,-17 -28,-32 -60,-42c-88,-28 -173,60 -138,147c17,43 67,86 133,67c63,-18 83,-66 82,-127z" fill="#FEC250"/>
    <path id="svg_8" d="m712,1128.333374c-92,25 -84,150 3,125c81,-23 82,-148 -3,-125z" fill="#FFCF64"/>
    <path id="svg_9" d="m691,581.333374c-87,25 -81,150 7,123c82,-24 80,-148 -7,-123z" fill="#FFCF64"/>
   </g>
  </g>
 </g>
</svg>