<svg width="1790" height="1770.0000000000002" xmlns="http://www.w3.org/2000/svg" clip-rule="evenodd">

 <g>
  <title>background</title>
  <rect fill="none" id="canvas_background" height="1772" width="1792" y="-1" x="-1"/>
 </g>
 <g>
  <title>Layer 1</title>
  <g id="Capa_x0020_1">
   <metadata transform="translate(0,-212.50177001953125) translate(-1537.5128173828125,-1025.008544921875) " id="CorelCorpID_0Corel-Layer"/>
   <g id="_3139498760832">
    <path id="svg_1" d="m1364.487183,992.489685c37,3 34,43 9,49l-281,1c-32,-4 -35,-39 -6,-49l278,-1zm0,-932l0,0c3,55 5,109 9,163c4,64 0,99 38,136c29,29 89,29 139,33c52,4 115,10 166,9c0,54 3,99 3,154l0,162l-9,267c-1,16 -4,18 -4,36c0,55 -3,118 -56,145c-25,13 -73,17 -100,17c-58,2 -156,13 -224,13c-26,0 -52,0 -79,0c-101,0 -202,-3 -303,-12c-44,-3 -100,-4 -132,-24c-37,-25 -39,-55 -45,-109c-4,-70 -9,-139 -11,-209c-2,-36 -3,-72 -3,-108c-1,-29 1,-81 -3,-107c-3,-51 3,-97 3,-146c0,-26 0,-52 2,-73c3,-22 -1,-47 3,-69c3,-19 3,-52 5,-70c2,-26 2,-46 3,-71c2,-47 16,-82 46,-101c38,-24 72,-17 126,-24l426,-12zm-263,893c-47,0 -48,-50 0,-50l221,0c48,0 48,50 0,50l-221,0zm-168,16c38,-50 43,-124 83,-116c33,7 12,45 2,64c-11,21 -59,124 -72,130c-29,11 -42,-26 -52,-44c-10,-17 -38,-53 -16,-70c30,-25 43,21 55,36zm425,-223c24,0 190,-5 204,5c15,11 14,36 -4,43c-14,6 -355,3 -418,3c-17,0 -52,4 -64,-6c-15,-12 -12,-32 6,-42c14,-7 240,-3 276,-3zm-277,-85c8,-5 238,-6 254,-3c25,5 30,37 8,47c-8,4 -238,5 -255,2c-25,-4 -28,-36 -7,-46zm-146,63c8,-23 22,-45 34,-67c10,-19 20,-57 49,-49c32,10 8,46 -1,64c-11,22 -56,123 -73,129c-29,10 -41,-28 -52,-47c-10,-18 -38,-54 -11,-69c31,-17 41,27 54,39zm573,-223c19,0 50,-6 64,6c15,13 7,39 -10,43c-15,4 -377,1 -425,1c-11,0 -83,11 -69,-33c4,-11 8,-12 19,-16c14,-4 357,-1 421,-1zm-423,-87c8,-3 242,-4 255,0c23,6 23,40 0,47c-9,2 -244,3 -256,0c-22,-6 -25,-39 1,-47zm-152,64c12,-13 26,-48 34,-64c10,-20 21,-58 49,-52c43,10 -10,87 -32,130c-8,15 -25,57 -39,63c-27,12 -41,-25 -51,-43c-10,-17 -38,-52 -16,-70c30,-24 44,20 55,36z" fill="#ECECEC"/>
    <path id="svg_2" d="m232.487183,1251.489685c77,-5 149,-7 227,-2c83,5 76,36 77,158c1,39 0,77 -3,116c-2,38 -5,66 -44,72c-63,9 -165,7 -230,2l19,129l921,0c20,-87 22,-174 34,-255c9,-63 9,-140 11,-204l3,-72c-101,0 -202,-3 -303,-12c-44,-3 -100,-4 -132,-24c-37,-25 -39,-55 -45,-109c-20,-8 -52,-30 -70,-42c-26,-18 -43,-34 -75,-12c-23,15 -44,27 -68,43c-19,12 -48,39 -71,17c-17,-16 -10,-74 -10,-101c0,-68 -5,-292 1,-329l-197,0c2,30 -16,111 -20,148c-6,50 -12,100 -16,151c-8,110 -10,215 -9,326z" fill="#FFCF63"/>
    <path id="svg_3" d="m278.487183,1726.489685l-19,-129c-83,-5 -76,-36 -77,-158c-1,-38 0,-77 3,-116c3,-41 7,-65 47,-72c-1,-111 1,-216 9,-326c4,-51 10,-101 16,-151c4,-37 22,-118 20,-148c-30,0 -148,-4 -168,0c-14,3 -14,36 -19,66c-34,200 -36,354 -36,552l0,10l11,204c1,11 3,29 4,38c4,29 5,50 8,79c3,23 7,48 10,74c4,24 12,54 12,77l179,0z" fill="#FFCF63"/>
    <path id="svg_4" d="m767.487183,1050.489685c-4,-70 -9,-139 -11,-209c-2,-36 -3,-72 -3,-108c-1,-29 1,-81 -3,-107l-276,0c-6,37 -1,261 -1,329c0,27 -7,85 10,101c23,22 52,-5 71,-17c24,-16 45,-28 68,-43c32,-22 49,-6 75,12c18,12 50,34 70,42z" fill="#DB5C6D"/>
    <path id="svg_5" d="m278.487183,1498.489685c-48,0 -44,-50 0,-50l159,0c51,0 47,50 4,50l-163,0zm-17,-148c7,-2 187,-6 202,2c16,10 13,38 -4,44c-14,5 -116,2 -139,2c-18,0 -51,4 -65,-4c-17,-12 -11,-39 6,-44zm-29,-99c-40,7 -44,31 -47,72c-3,39 -4,78 -3,116c1,122 -6,153 77,158c65,5 167,7 230,-2c39,-6 42,-34 44,-72c3,-39 4,-77 3,-116c-1,-122 6,-153 -77,-158c-78,-5 -150,-3 -227,2z" fill="#ECECEC"/>
    <path id="svg_6" d="m1716.487183,401.489685c-13,-51 -65,-115 -103,-153c-65,-65 -131,-135 -215,-176c-13,-6 -22,-7 -34,-12l0,0c3,55 5,109 9,163c4,64 0,99 38,136c29,29 89,29 139,33c52,4 115,10 166,9z" fill="#DBDBDB"/>
    <path id="svg_7" d="m1087.487183,502.489685c-11,4 -15,5 -19,16c-14,44 58,33 69,33c48,0 410,3 425,-1c17,-4 25,-30 10,-43c-14,-12 -45,-6 -64,-6c-64,0 -407,-3 -421,1z" fill="#406F93"/>
    <path id="svg_8" d="m1082.487183,749.489685c-18,10 -21,30 -6,42c12,10 47,6 64,6c63,0 404,3 418,-3c18,-7 19,-32 4,-43c-14,-10 -180,-5 -204,-5c-36,0 -262,-4 -276,3z" fill="#406F93"/>
    <path id="svg_9" d="m1086.487183,993.489685c-29,10 -26,45 6,49l281,-1c25,-6 28,-46 -9,-49l-278,1z" fill="#406F93"/>
    <path id="svg_10" d="m1085.487183,414.489685c-26,8 -23,41 -1,47c12,3 247,2 256,0c23,-7 23,-41 0,-47c-13,-4 -247,-3 -255,0z" fill="#406F93"/>
    <path id="svg_11" d="m1081.487183,661.489685c-21,10 -18,42 7,46c17,3 247,2 255,-2c22,-10 17,-42 -8,-47c-16,-3 -246,-2 -254,3z" fill="#406F93"/>
    <path id="svg_12" d="m1101.487183,953.489685l221,0c48,0 48,-50 0,-50l-221,0c-48,0 -47,50 0,50z" fill="#406F93"/>
    <path id="svg_13" d="m935.487183,724.489685c-13,-12 -23,-56 -54,-39c-27,15 1,51 11,69c11,19 23,57 52,47c17,-6 62,-107 73,-129c9,-18 33,-54 1,-64c-29,-8 -39,30 -49,49c-12,22 -26,44 -34,67z" fill="#95D6A4"/>
    <path id="svg_14" d="m933.487183,969.489685c-12,-15 -25,-61 -55,-36c-22,17 6,53 16,70c10,18 23,55 52,44c13,-6 61,-109 72,-130c10,-19 31,-57 -2,-64c-40,-8 -45,66 -83,116z" fill="#95D6A4"/>
    <path id="svg_15" d="m933.487183,478.489685c-11,-16 -25,-60 -55,-36c-22,18 6,53 16,70c10,18 24,55 51,43c14,-6 31,-48 39,-63c22,-43 75,-120 32,-130c-28,-6 -39,32 -49,52c-8,16 -22,51 -34,64z" fill="#95D6A4"/>
    <path id="svg_16" d="m261.487183,1350.489685c-17,5 -23,32 -6,44c14,8 47,4 65,4c23,0 125,3 139,-2c17,-6 20,-34 4,-44c-15,-8 -195,-4 -202,-2z" fill="#DBDBDB"/>
    <path id="svg_17" d="m278.487183,1498.489685l163,0c43,0 47,-50 -4,-50l-159,0c-44,0 -48,50 0,50z" fill="#DBDBDB"/>
   </g>
  </g>
 </g>
</svg>