<svg width="1410" height="1620" xmlns="http://www.w3.org/2000/svg" clip-rule="evenodd">

 <g>
  <title>background</title>
  <rect fill="none" id="canvas_background" height="1622" width="1412" y="-1" x="-1"/>
 </g>
 <g>
  <title>Layer 1</title>
  <g id="Capa_x0020_1">
   <metadata transform="translate(-4300.03466796875,-1371.439697265625) " id="CorelCorpID_0Corel-Layer"/>
   <g id="_3139257720880">
    <path id="svg_1" d="m524.965332,767.560303c0,72 -8,132 29,186c71,102 213,101 282,2c39,-56 31,-112 31,-188c-5,-10 2,-2 -8,-9c-6,-3 -6,-3 -12,-6c-7,-6 -13,-11 -18,-19c-37,-51 0,-124 64,-124c80,0 103,102 47,141c-13,9 -19,8 -21,17c0,92 5,159 -44,224c-90,120 -268,120 -358,0c-49,-65 -44,-132 -44,-224c-3,-11 -61,-25 -52,-91c5,-37 37,-67 79,-67c62,0 99,71 64,123c-11,16 -18,18 -29,25c-11,7 -5,0 -10,10zm-432,761l4,0l1198,0l3,0l-49,-971l-1106,1l-50,970z" fill="#FFCF63"/>
    <path id="svg_2" d="m142.965332,558.560303l1106,-1l49,971l-3,0l-1198,0l-4,0l50,-970zm995,-133l42,0l46,78l-106,0l18,-78zm-917,1l10,78l-65,0l37,-64c6,-12 4,-14 18,-14zm228,6c20,-9 356,-88 371,-89l39,161l-394,0l-16,-72zm343,-138l12,-57l306,71l-44,196l-153,0c-8,-44 -22,-95 -33,-139c-4,-15 -12,-57 -17,-68c-13,-24 -45,-8 -71,-3zm-541,-81c21,-6 374,-46 386,-45l18,157l-187,47c-29,7 -75,9 -77,38c-1,17 17,72 20,94l-127,0c-4,-47 -12,-99 -17,-146c-4,-33 -18,-118 -16,-145zm348,-97l16,-11c8,-4 13,-6 21,-9c67,-26 150,-3 194,55c8,10 20,28 23,41c-45,-1 -85,-41 -98,20l-20,88c-4,10 -14,12 -27,13c0,-9 -3,-24 -4,-35l-13,-106c-12,-87 -13,-56 -92,-56zm-384,257c-38,0 -32,-4 -62,47c-83,137 -55,71 -65,195c-5,50 -9,112 -9,164c0,18 -3,22 -4,39l-8,164c-2,14 0,28 0,42c-1,14 -4,21 -4,39l-12,248c0,19 -3,22 -3,39c0,31 -2,54 -3,85c-1,40 -21,146 15,146l1271,0c35,0 18,-82 18,-103l-36,-699c0,-52 -5,-114 -9,-164c-9,-108 13,-65 -32,-140c-11,-19 -21,-35 -32,-53c-34,-58 -23,-49 -87,-49c0,-52 47,-99 -14,-113l-225,-53c-7,-78 -104,-176 -209,-176c-69,0 -118,17 -166,65c-39,39 -10,28 -69,37l-192,22c-17,2 -33,5 -48,6c-50,5 -37,24 -27,115l12,97z" fill="#FFCF63"/>
    <path id="svg_3" d="m250.965332,213.560303c-2,27 12,112 16,145c5,47 13,99 17,146l127,0c-3,-22 -21,-77 -20,-94c2,-29 48,-31 77,-38l187,-47l-18,-157c-12,-1 -365,39 -386,45z" fill="#2A8DE5"/>
    <path id="svg_4" d="m867.965332,698.560303c-5,-50 57,-48 48,2c-8,-6 -19,-18 -38,-8l-8,5c0,-1 -1,1 -2,1zm-393,2c-3,-19 1,-36 22,-38c22,-2 30,17 26,38c-25,-14 -21,-19 -48,0zm50,67c5,-10 -1,-3 10,-10c11,-7 18,-9 29,-25c35,-52 -2,-123 -64,-123c-42,0 -74,30 -79,67c-9,66 49,80 52,91c0,92 -5,159 44,224c90,120 268,120 358,0c49,-65 44,-132 44,-224c2,-9 8,-8 21,-17c56,-39 33,-141 -47,-141c-64,0 -101,73 -64,124c5,8 11,13 18,19c6,3 6,3 12,6c10,7 3,-1 8,9c0,76 8,132 -31,188c-69,99 -211,100 -282,-2c-37,-54 -29,-114 -29,-186z" fill="black"/>
    <path id="svg_5" d="m791.965332,294.560303c26,-5 58,-21 71,3c5,11 13,53 17,68c11,44 25,95 33,139l153,0l44,-196l-306,-71l-12,57z" fill="#95D6A4"/>
    <path id="svg_6" d="m464.965332,504.560303l394,0l-39,-161c-15,1 -351,80 -371,89l16,72z" fill="#EB5380"/>
    <polygon id="svg_7" points="1119.96533203125,503.560302734375 1225.96533203125,503.560302734375 1179.96533203125,425.560302734375 1137.96533203125,425.560302734375 " fill="#FFCF63"/>
    <path id="svg_8" d="m220.965332,426.560303c-14,0 -12,2 -18,14l-37,64l65,0l-10,-78z" fill="#FFCF63"/>
    <path id="svg_9" d="m474.965332,700.560303c27,-19 23,-14 48,0c4,-21 -4,-40 -26,-38c-21,2 -25,19 -22,38z" fill="#8A6A3A"/>
    <path id="svg_10" d="m867.965332,698.560303c1,0 2,-2 2,-1l8,-5c19,-10 30,2 38,8c9,-50 -53,-52 -48,-2z" fill="#8A6A3A"/>
   </g>
  </g>
 </g>
</svg>