<svg width="1500" height="920.0000000000001" xmlns="http://www.w3.org/2000/svg" clip-rule="evenodd">

 <g>
  <title>background</title>
  <rect fill="none" id="canvas_background" height="922" width="1502" y="-1" x="-1"/>
 </g>
 <g>
  <title>Layer 1</title>
  <g id="Capa_x0020_1">
   <metadata fill="#ffffff" transform="translate(-4733.310546875,-2799.986572265625) " id="CorelCorpID_0Corel-Layer"/>
   <path id="svg_1" d="m104.689453,173.013428c0,83 2,69 36,122c101,158 131,489 573,489c189,0 311,-85 397,-193l193,-398c0,-148 -275,-222 -275,39c0,45 117,98 -63,292c-134,146 -445,154 -571,-50c-135,-218 -15,-140 -15,-261c0,-226 -275,-171 -275,-40z" fill="#ffffff"/>
  </g>
 </g>
</svg>